<svg xmlns="http://www.w3.org/2000/svg" xml:space="preserve" width="1300" height="197.3" style="fill-rule:evenodd;clip-rule:evenodd;stroke-linejoin:round;stroke-miterlimit:2" viewBox="0 0 1374 350"><path d="M0 0h1334v750H0z" style="fill:none" transform="matrix(1.17202 0 0 .63919 -79.285 -76.04)"/><path d="M438.664 343.904V290h-14.013v98.719h14.013v-27.336l14.189 27.336h19.848l-20.208-37.152 20.339-39.422h-17.745z" style="fill:#24584d;fill-rule:nonzero" transform="matrix(3.2696 0 0 2.16377 -979.553 -578.845)"/><path d="M577.797 314.847h13.246v73.872h-13.246z" style="fill:#24584d" transform="matrix(3.46123 0 0 1.93298 -999.352 -488.202)"/><path d="M0-27.676c-2.549.235-5.178 1.074-7.014 2.934-2.199 2.139-3.272 5.18-3.604 8.176-.37 3.705-.033 7.645 1.837 10.938C-7.33-2.949-4.557-1.126-1.588-.579c2.841.706 5.895.324 8.509-.977 2.836-1.44 4.853-4.117 5.989-7.038.956-2.838 1.181-5.937.557-8.871-.701-3.547-2.863-6.86-6.022-8.688-2.213-1.36-4.886-1.773-7.445-1.523m-8.733-11.215c3.177-1.038 6.563-1.223 9.883-1.101 3.571.2 7.244 1.084 10.124 3.295.987.71 1.816 1.608 2.595 2.535-.088-1.461-.03-2.924-.045-4.384h13.794c-.003 16.353.002 32.708-.003 49.061-4.603 0-9.205-.009-13.808.006.051-1.506-.033-3.014.062-4.517-1.982 2.472-4.734 4.317-7.803 5.131-4.833 1.303-10.018 1.096-14.809-.292-4.809-1.511-9.066-4.727-11.81-8.958-2.806-4.1-4.039-9.073-4.343-13.979-.22-4.714.324-9.532 2.146-13.914 2.479-6.069 7.69-11.025 14.017-12.883" style="fill:#24584d;fill-rule:nonzero" transform="matrix(2.01524 0 0 2.01525 1314.657 238.19)"/><path d="M0-27.094a13.5 13.5 0 0 0-5.023 1.418c-1.289.739-2.365 1.808-3.271 2.974-1.763 2.534-2.367 5.672-2.449 8.706-.068 3.313.505 6.76 2.347 9.574 1.42 2.265 3.842 3.78 6.434 4.34 3.253.856 6.78.429 9.815-.987 2.773-1.41 4.505-4.274 5.322-7.192.916-3.636.861-7.523-.197-11.123-.83-2.694-2.66-5.138-5.206-6.414C5.4-27.054 2.634-27.286 0-27.094m-3.094-12.054c4.313-.534 8.734-.397 12.944.729.669.187 1.34.435 2.049.4 5.368-.023 10.736.02 16.106-.023q-.017 3.951 0 7.902c-1.622.115-3.223.432-4.846.5 2.642 3.6 4.119 7.946 4.624 12.36.616 5.416.005 11.066-2.394 16.009A22.65 22.65 0 0 1 17.751 7.8c-4.701 3.418-10.586 4.788-16.328 4.781-4.381-.068-8.848-.797-12.785-2.797-3.139-1.587-6.028-3.77-8.19-6.561-2.985-3.775-4.683-8.461-5.224-13.217-.5-4.537-.08-9.205 1.49-13.507 1.421-3.843 3.737-7.418 6.938-10.014 3.728-3.156 8.441-4.998 13.254-5.633" style="fill:#24584d;fill-rule:nonzero" transform="matrix(3.30477 0 0 3.30479 862.573 222.001)"/><path d="M0-27.094a13.5 13.5 0 0 0-5.023 1.418c-1.289.739-2.365 1.808-3.271 2.974-1.763 2.534-2.367 5.672-2.449 8.706-.068 3.313.505 6.76 2.347 9.574 1.42 2.265 3.842 3.78 6.434 4.34 3.253.856 6.78.429 9.815-.987 2.773-1.41 4.505-4.274 5.322-7.192.916-3.636.861-7.523-.197-11.123-.83-2.694-2.66-5.138-5.206-6.414C5.4-27.054 2.634-27.286 0-27.094m-3.094-12.054c4.313-.534 8.734-.397 12.944.729.669.187 1.34.435 2.049.4 5.368-.023 10.736.02 16.106-.023-.012 2.634 0 7.902 0 7.902s-3.223.432-4.846.5c2.642 3.6 4.119 7.946 4.624 12.36.616 5.416.005 11.066-2.394 16.009A22.65 22.65 0 0 1 17.751 7.8c-4.701 3.418-10.586 4.788-16.328 4.781-4.381-.068-8.848-.797-12.785-2.797-3.139-1.587-6.028-3.77-8.19-6.561-2.985-3.775-4.683-8.461-5.224-13.217-.5-4.537-.08-9.205 1.49-13.507 1.421-3.843 3.737-7.418 6.938-10.014 3.728-3.156 8.441-4.998 13.254-5.633" style="fill:#24584d;fill-rule:nonzero" transform="matrix(1.999 0 0 -2.01525 1188.032 183.267)"/><path d="M0-27.091c-1.867.16-3.723.679-5.34 1.638-2.202 1.331-3.727 3.565-4.526 5.98-.982 3.001-1.081 6.238-.64 9.347.515 3.261 1.98 6.596 4.823 8.461C-2.13.615 2.502.902 6.441-.479c1.941-.654 3.696-1.915 4.836-3.625 2.377-3.266 2.746-7.512 2.477-11.42-.292-3.495-1.558-7.21-4.499-9.35C6.634-26.863 3.206-27.365 0-27.091M-2.194-39.25c6.873-.704 14.183.435 19.953 4.427a23.8 23.8 0 0 1 7.182 8.049c3.037 5.922 3.786 12.881 2.488 19.377-.712 3.258-1.875 6.459-3.741 9.24-1.38 1.822-2.858 3.605-4.653 5.036a24.9 24.9 0 0 1-9.932 4.826 33.2 33.2 0 0 1-14.221.192 24.95 24.95 0 0 1-9.844-4.289c-4.104-2.966-7.171-7.285-8.656-12.126a31.96 31.96 0 0 1-.438-16.416c.817-3.548 2.535-6.846 4.777-9.695 4.229-5.038 10.581-8.031 17.085-8.621" style="fill:#24584d;fill-rule:nonzero" transform="matrix(3.30477 0 0 3.30479 664.078 222.151)"/><path d="M-2.194-39.25c6.873-.704 14.183.435 19.953 4.427a23.8 23.8 0 0 1 7.182 8.049c3.037 5.922 3.786 12.881 2.488 19.377-.712 3.258-1.875 6.459-3.741 9.24-1.38 1.822-2.858 3.605-4.653 5.036a24.9 24.9 0 0 1-9.932 4.826 33.2 33.2 0 0 1-14.221.192 24.95 24.95 0 0 1-9.844-4.289c-4.104-2.966-7.171-7.285-8.656-12.126a31.96 31.96 0 0 1-.438-16.416c.817-3.548 2.535-6.846 4.777-9.695 4.229-5.038 10.581-8.031 17.085-8.621" style="fill:#24584d;fill-rule:nonzero" transform="translate(1021.792 84.552)scale(.85727)"/><path d="M-2.194-39.25c6.873-.704 14.183.435 19.953 4.427a23.8 23.8 0 0 1 7.182 8.049c3.037 5.922 3.786 12.881 2.488 19.377-.712 3.258-1.875 6.459-3.741 9.24-1.38 1.822-2.858 3.605-4.653 5.036a24.9 24.9 0 0 1-9.932 4.826 33.2 33.2 0 0 1-14.221.192 24.95 24.95 0 0 1-9.844-4.289c-4.104-2.966-7.171-7.285-8.656-12.126a31.96 31.96 0 0 1-.438-16.416c.817-3.548 2.535-6.846 4.777-9.695 4.229-5.038 10.581-8.031 17.085-8.621" style="fill:#24584d;fill-rule:nonzero" transform="translate(1095.348 257.1)scale(.57517)"/><path d="M0-22.782c4.775.042 9.552.018 14.33.013-.101 3.188 1.541 6.354 4.242 8.059 2.834 2.014 6.477 2.424 9.855 2.115 2.189-.113 4.302-.915 6.144-2.073 2.676-1.758 4.371-4.883 4.341-8.094q7.115.002 14.232 0c-.036 4.292-1.001 8.668-3.348 12.309-2.444 3.827-6.282 6.636-10.509 8.211C34.471-.477 29.275 0 24.178-.217 19.204-.542 14.123-1.54 9.839-4.214 7.21-5.737 4.995-7.932 3.35-10.478 1.003-14.123.082-18.495 0-22.782" style="fill:#24584d;fill-rule:nonzero" transform="matrix(3.30477 0 0 3.30479 779.893 345.244)"/><path d="M0-21.44c-4.171-11.47-11.5-26.74-27.04-35.95 11.72-18.4 30.369-39.22 45.689-39.23.491 0 .971.02 1.441.07 5.05.44 6.229 7.68 6.319 13.68C26.78-61.23 13.46-30.67 0-21.44m-137.89-75.18c15.32 0 33.969 20.83 45.69 39.23-15.54 9.21-22.87 24.48-27.04 35.95-13.46-9.23-26.781-39.79-26.41-61.43.1-6 1.27-13.24 6.32-13.68.47-.05.95-.07 1.44-.07M21.22-109.5a27 27 0 0 0-2.561-.12c-26.099 0-50.069 34.69-57.729 46.96-6.18-1.88-13.09-2.85-20.54-2.88-7.47.03-14.38 1-20.561 2.88-7.649-12.27-31.619-46.95-57.729-46.96q-1.293 0-2.57.12c-5.33.46-17.801 3.97-18.18 26.41-.21 12.7 3.549 28.81 10.04 43.11 6.92 15.24 15.88 26.28 25.349 31.25-.379 1.33-.739 2.63-1.09 3.88-1.089 3.92-2.029 7.31-2.99 9.91-6.939 18.58 2.561 33.72 5.511 37.78l-8.55 37.39c-.391 1.69-.1 3.43.83 4.9a6.46 6.46 0 0 0 4.05 2.88c.45.11.95.17 1.46.17 3.05 0 5.65-2.08 6.33-5.05l6.46-28.24 19.46 21.83c1.229 1.39 3 2.18 4.859 2.18 1.59 0 3.131-.59 4.321-1.65 2.67-2.38 2.91-6.5.53-9.17l-26.13-29.31-2.721-3.05c-.539-.68-2.299-3.02-3.779-6.6-1.84-4.51-3.42-11.56-.461-19.53 1.141-3.03 2.101-6.46 3.341-10.97.54-1.93 1.1-3.94 1.69-5.97.73-2.55 1.459-4.88 2.219-7.11C-101.99-32.1-91.14-52.38-59.61-52.54c31.509.16 42.36 20.44 48.29 38.08a147 147 0 0 1 2.219 7.11c.59 2.03 1.151 4.04 1.691 5.97C-6.171 3.14-5.2 6.58-4.07 9.6c2.96 7.96 1.38 15.01-.46 19.52-1.481 3.58-3.241 5.93-3.781 6.6l-2.719 3.05-26.12 29.3c-2.38 2.68-2.14 6.8.52 9.18a6.52 6.52 0 0 0 4.319 1.65c1.861 0 3.63-.79 4.861-2.18l19.46-21.83 6.46 28.24a6.47 6.47 0 0 0 6.33 5.05 6.52 6.52 0 0 0 5.519-3.05 6.46 6.46 0 0 0 .83-4.91L2.59 42.84c2.95-4.06 12.45-19.2 5.51-37.78-.96-2.59-1.9-5.98-2.99-9.9-.35-1.26-.711-2.56-1.09-3.89 9.469-4.97 18.44-16.01 25.36-31.25 6.49-14.3 10.24-30.42 10.029-43.11-.379-22.44-12.84-25.95-18.189-26.41" style="fill:#24584d;fill-rule:nonzero" transform="translate(246.447 175.866)scale(1.51792)"/><path d="M-7.231-7.231c-3.99 0-7.23 3.24-7.23 7.231a7.23 7.23 0 0 0 7.23 7.231A7.23 7.23 0 0 0 0 0a7.235 7.235 0 0 0-7.231-7.231" style="fill:#24584d;fill-rule:nonzero" transform="matrix(0 -1.51792 -1.51792 0 116.877 146.174)"/><path d="M-7.225-7.225a7.227 7.227 0 0 0-7.23 7.229c0 3.991 3.24 7.221 7.23 7.221S.005 3.995.005.004c0-4-3.24-7.229-7.23-7.229" style="fill:#24584d;fill-rule:nonzero" transform="matrix(0 -1.51792 -1.51792 0 195.027 146.182)"/><path d="M0 38.15c-4.19 2.1-8.181 3.15-11.91 3.15-2.95 0-5.75-.65-8.38-1.95s-4.8-3.13-6.59-5.17c-1.79 2.04-3.96 3.87-6.59 5.17a18.7 18.7 0 0 1-8.37 1.95c-3.74 0-7.73-1.05-11.92-3.15a4.984 4.984 0 0 1-2.23-6.7 4.97 4.97 0 0 1 4.46-2.77c.75 0 1.52.17 2.24.53 2.769 1.39 5.23 2.08 7.41 2.08 1.43 0 2.74-.3 3.96-.89 3.63-1.79 6.069-6.11 7.5-9.73-1.88-.54-15.12-4.77-14.97-14.55.13-8.43 11.92-9.27 16.61-9.27 1.17 0 1.9.05 1.9.05h.01s.721-.05 1.891-.05c4.699 0 16.489.84 16.609 9.27.16 9.78-13.09 14.01-14.96 14.55 1.42 3.62 3.87 7.94 7.5 9.73 1.21.59 2.52.89 3.95.89 2.18 0 4.64-.69 7.42-2.08.71-.36 1.481-.53 2.231-.53a4.96 4.96 0 0 1 4.458 2.77A4.98 4.98 0 0 1 0 38.15" style="fill:#24584d;fill-rule:nonzero" transform="translate(196.75 184.912)scale(1.51792)"/></svg>