<svg xmlns="http://www.w3.org/2000/svg" xml:space="preserve" viewBox="0 0 2809.9 600"><path d="M524.7 376.1H355.1l-92.8 92.7-92.7-92.7H0v92.7h131.2l65.6 65.6 65.5 65.6 65.6-65.6 65.6-65.6h131.2zM0 190.6h524.7v92.8H0zM0 5.1h524.7v92.8H0zm733.3 0h83.4v455.2h-83.4zm213.4 442.2c-26.3-14.5-47.2-34.5-62.6-59.7Q861 349.65 861 304.2c0-30.3 7.7-58.2 23.1-83.4 15.4-25.3 36.2-45.2 62.6-59.7 26.3-14.5 54.9-21.8 85.7-21.8s59.3 7.3 85.7 21.8c26.3 14.5 47.2 34.5 62.6 59.7q23.1 37.95 23.1 83.4c0 30.3-7.7 58.2-23.1 83.4-15.4 25.3-36.3 45.2-62.6 59.7s-54.9 21.8-85.7 21.8c-30.9 0-59.4-7.3-85.7-21.8m129.5-66.4c13.3-7.4 23.9-17.8 31.9-31.3s12-28.7 12-45.5-4-32-12-45.5-18.6-23.9-31.9-31.3-27.9-11.1-43.9-11.1-30.7 3.7-43.9 11.1c-13.3 7.4-23.9 17.8-31.9 31.3s-12 28.7-12 45.5c0 16.9 4 32 12 45.5s18.6 23.9 31.9 31.3 27.9 11.1 43.9 11.1c16-.1 30.7-3.7 43.9-11.1M1247.9 5.1h83.4v271.2L1440 147.9h99.2l-122.6 144.8 131.5 167.5h-106.8l-110-144.8v144.8h-83.4zm379 443.7c-23.4-13.5-42.4-32.8-56.9-57.8-14.5-25.1-21.8-54-21.8-86.9 0-29.9 7-57.5 20.9-82.8s32.9-45.3 56.9-60.1c24-14.7 50.3-22.1 79-22.1 20.2 0 38.7 3.4 55.3 10.1s29.4 15.8 38.3 27.2V148h83.4v312.3h-83.4v-28.4c-13.1 12.2-27 21.5-41.7 27.8-14.8 6.3-33.7 9.5-56.9 9.5-25.4-.1-49.8-6.9-73.1-20.4m152-82.1c15.6-16.9 23.4-37.7 23.4-62.6s-7.8-45.7-23.4-62.6c-15.6-16.8-36.2-25.3-61.9-25.3s-46.4 8.4-62 25.3-23.4 37.7-23.4 62.6 7.8 45.7 23.4 62.6 36.2 25.3 62 25.3c25.6-.1 46.3-8.5 61.9-25.3M1942.6 5.1h83.4v455.2h-83.4zm148.6 84.7C2081 79.7 2076 67.4 2076 53.1c0-14.7 5.1-27.3 15.2-37.6S2113.5 0 2127.8 0c14.7 0 27.3 5.2 37.6 15.5s15.5 22.9 15.5 37.6c0 14.3-5.2 26.5-15.5 36.7-10.3 10.1-22.9 15.2-37.6 15.2-14.3-.1-26.5-5.1-36.6-15.2m-4.5 58.1h83.4v312.3h-83.4zm140.4 290.8 19-78.4h3.8c27.4 21.1 55.4 31.6 84.1 31.6q17.7 0 28.8-6.6c7.4-4.4 11.1-10.8 11.1-19.3 0-8.8-4.3-16-13-21.5-8.6-5.5-24.8-12.2-48.4-20.2-24-8-42.7-19.6-55.9-34.8-13.3-15.2-19.9-33.1-19.9-53.7 0-29.1 10.8-52.5 32.6-70.2 21.7-17.7 49.2-26.6 82.5-26.6 16.9 0 31.8 1.6 44.9 4.7 13.1 3.2 25.5 8.3 37.3 15.5l3.2 79.6h-4.4c-15.2-9.7-28.7-17-40.5-21.8s-25.1-7.3-39.8-7.3c-10.5 0-19.2 2.1-25.9 6.3s-10.1 9.7-10.1 16.4c0 8.9 4.2 16.1 12.7 21.8 8.4 5.7 24.2 12.5 47.4 20.5 26.5 8.9 46.7 19.6 60.4 32.2s20.5 32.2 20.5 58.8c0 21.9-5.5 40.7-16.4 56.3-11 15.6-25.4 27.3-43.3 35.1q-26.85 11.7-59.1 11.7c-43.8.3-80.9-9.8-111.6-30.1m347.7 8.2c-26.1-14.7-46.7-34.9-61.6-60.4-15-25.5-22.4-53.8-22.4-85 0-30.3 7.1-57.8 21.2-82.5s33.7-44.1 58.8-58.5c25.1-14.3 53.4-21.5 85-21.5 32 0 59.7 7.5 83.1 22.4q35.1 22.5 53.1 59.7c12 24.9 18 51.6 18 80.3v24.7h-239.6c5.1 23.6 15.9 41.5 32.6 53.7 16.6 12.2 38.7 18.3 66.1 18.3 41.7 0 78.2-13.7 109.4-41.1h8.9l-3.2 79c-19 11-39 19.2-60.1 24.7s-41.3 8.2-60.7 8.2c-33 .2-62.5-7.2-88.6-22m151.7-177.6c-2.1-19-10-33.8-23.7-44.6-13.7-10.7-30.5-16.1-50.3-16.1-19.4 0-36.4 5.2-50.9 15.5s-24.3 25.4-29.4 45.2z" style="fill:#1d1d1b"/></svg>