<?xml version="1.0" encoding="UTF-8"?>
<!-- Generator: Adobe Illustrator 24.0.3, SVG Export Plug-In . SVG Version: 6.00 Build 0)  -->
<svg version="1.1" id="Layer_1" xmlns="http://www.w3.org/2000/svg" xmlns:xlink="http://www.w3.org/1999/xlink" x="0px" y="0px" viewBox="0 0 2809.9 600" style="enable-background:new 0 0 2809.9 600;" xml:space="preserve">
<style type="text/css">
	.st0{fill:#1D1D1B;}
</style>
<g>
	<polygon class="st0" points="524.7,376.1 431.9,376.1 370.3,376.1 355.1,376.1 262.3,468.8 169.6,376.1 154.4,376.1 92.8,376.1    0,376.1 0,468.8 131.2,468.8 196.8,534.4 196.8,534.4 262.3,600 327.9,534.4 393.5,468.8 524.7,468.8  "/>
	<rect y="190.6" class="st0" width="524.7" height="92.8"/>
	<rect y="5.1" class="st0" width="524.7" height="92.8"/>
</g>
<path class="st0" d="M733.3,5.1h83.4v455.2h-83.4V5.1z"/>
<path class="st0" d="M946.7,447.3c-26.3-14.5-47.2-34.5-62.6-59.7c-15.4-25.3-23.1-53.1-23.1-83.4c0-30.3,7.7-58.2,23.1-83.4  c15.4-25.3,36.2-45.2,62.6-59.7c26.3-14.5,54.9-21.8,85.7-21.8c30.8,0,59.3,7.3,85.7,21.8c26.3,14.5,47.2,34.5,62.6,59.7  c15.4,25.3,23.1,53.1,23.1,83.4c0,30.3-7.7,58.2-23.1,83.4c-15.4,25.3-36.3,45.2-62.6,59.7c-26.3,14.5-54.9,21.8-85.7,21.8  C1001.5,469.1,973,461.8,946.7,447.3z M1076.2,380.9c13.3-7.4,23.9-17.8,31.9-31.3c8-13.5,12-28.7,12-45.5c0-16.8-4-32-12-45.5  c-8-13.5-18.6-23.9-31.9-31.3c-13.3-7.4-27.9-11.1-43.9-11.1c-16,0-30.7,3.7-43.9,11.1c-13.3,7.4-23.9,17.8-31.9,31.3  c-8,13.5-12,28.7-12,45.5c0,16.9,4,32,12,45.5c8,13.5,18.6,23.9,31.9,31.3c13.3,7.4,27.9,11.1,43.9,11.1  C1048.3,391.9,1063,388.3,1076.2,380.9z"/>
<path class="st0" d="M1247.9,5.1h83.4v271.2L1440,147.9h99.2l-122.6,144.8l131.5,167.5h-106.8l-110-144.8v144.8h-83.4V5.1z"/>
<path class="st0" d="M1626.9,448.8c-23.4-13.5-42.4-32.8-56.9-57.8c-14.5-25.1-21.8-54-21.8-86.9c0-29.9,7-57.5,20.9-82.8  s32.9-45.3,56.9-60.1c24-14.7,50.3-22.1,79-22.1c20.2,0,38.7,3.4,55.3,10.1c16.6,6.7,29.4,15.8,38.3,27.2v-28.4h83.4v312.3h-83.4  v-28.4c-13.1,12.2-27,21.5-41.7,27.8c-14.8,6.3-33.7,9.5-56.9,9.5C1674.6,469.1,1650.2,462.3,1626.9,448.8z M1778.9,366.7  c15.6-16.9,23.4-37.7,23.4-62.6c0-24.9-7.8-45.7-23.4-62.6c-15.6-16.8-36.2-25.3-61.9-25.3c-25.7,0-46.4,8.4-62,25.3  c-15.6,16.9-23.4,37.7-23.4,62.6c0,24.9,7.8,45.7,23.4,62.6c15.6,16.9,36.2,25.3,62,25.3C1742.6,391.9,1763.3,383.5,1778.9,366.7z"/>
<path class="st0" d="M1942.6,5.1h83.4v455.2h-83.4V5.1z"/>
<path class="st0" d="M2091.2,89.8C2081,79.7,2076,67.4,2076,53.1c0-14.7,5.1-27.3,15.2-37.6C2101.3,5.2,2113.5,0,2127.8,0  c14.7,0,27.3,5.2,37.6,15.5c10.3,10.3,15.5,22.9,15.5,37.6c0,14.3-5.2,26.5-15.5,36.7c-10.3,10.1-22.9,15.2-37.6,15.2  C2113.5,104.9,2101.3,99.9,2091.2,89.8z M2086.7,147.9h83.4v312.3h-83.4V147.9z"/>
<path class="st0" d="M2227.1,438.7l19-78.4h3.8c27.4,21.1,55.4,31.6,84.1,31.6c11.8,0,21.4-2.2,28.8-6.6  c7.4-4.4,11.1-10.8,11.1-19.3c0-8.8-4.3-16-13-21.5c-8.6-5.5-24.8-12.2-48.4-20.2c-24-8-42.7-19.6-55.9-34.8  c-13.3-15.2-19.9-33.1-19.9-53.7c0-29.1,10.8-52.5,32.6-70.2c21.7-17.7,49.2-26.6,82.5-26.6c16.9,0,31.8,1.6,44.9,4.7  c13.1,3.2,25.5,8.3,37.3,15.5l3.2,79.6h-4.4c-15.2-9.7-28.7-17-40.5-21.8c-11.8-4.8-25.1-7.3-39.8-7.3c-10.5,0-19.2,2.1-25.9,6.3  c-6.7,4.2-10.1,9.7-10.1,16.4c0,8.9,4.2,16.1,12.7,21.8c8.4,5.7,24.2,12.5,47.4,20.5c26.5,8.9,46.7,19.6,60.4,32.2  c13.7,12.6,20.5,32.2,20.5,58.8c0,21.9-5.5,40.7-16.4,56.3c-11,15.6-25.4,27.3-43.3,35.1c-17.9,7.8-37.6,11.7-59.1,11.7  C2294.9,469.1,2257.8,459,2227.1,438.7z"/>
<path class="st0" d="M2574.8,446.9c-26.1-14.7-46.7-34.9-61.6-60.4c-15-25.5-22.4-53.8-22.4-85c0-30.3,7.1-57.8,21.2-82.5  c14.1-24.7,33.7-44.1,58.8-58.5c25.1-14.3,53.4-21.5,85-21.5c32,0,59.7,7.5,83.1,22.4c23.4,15,41.1,34.9,53.1,59.7  c12,24.9,18,51.6,18,80.3v24.7h-239.6c5.1,23.6,15.9,41.5,32.6,53.7c16.6,12.2,38.7,18.3,66.1,18.3c41.7,0,78.2-13.7,109.4-41.1h8.9  l-3.2,79c-19,11-39,19.2-60.1,24.7c-21.1,5.5-41.3,8.2-60.7,8.2C2630.4,469.1,2600.9,461.7,2574.8,446.9z M2726.5,269.3  c-2.1-19-10-33.8-23.7-44.6c-13.7-10.7-30.5-16.1-50.3-16.1c-19.4,0-36.4,5.2-50.9,15.5c-14.5,10.3-24.3,25.4-29.4,45.2H2726.5z"/>
</svg>