<svg xmlns="http://www.w3.org/2000/svg" xml:space="preserve" width="64" height="64" version="1"><switch><g><linearGradient id="a" x1="8" x2="56" y1="11.9" y2="52.1" gradientUnits="userSpaceOnUse"><stop offset="0" stop-color="#FFF"/><stop offset=".1" stop-color="#E7E8E6"/><stop offset=".1" stop-color="#CDD0D0"/><stop offset=".2" stop-color="#B5BBBD"/><stop offset=".2" stop-color="#A5ACAF"/><stop offset=".3" stop-color="#9BA3A7"/><stop offset=".3" stop-color="#98A0A4"/><stop offset=".4" stop-color="#828A8F"/><stop offset=".5" stop-color="#667075"/><stop offset=".6" stop-color="#535C63"/><stop offset=".7" stop-color="#475158"/><stop offset=".8" stop-color="#434D54"/><stop offset="1" stop-color="#475157"/></linearGradient><path fill="url(#a)" d="M63.3 32c0 17.3-14 31.3-31.3 31.3S.7 49.3.7 32 14.7.7 32 .7s31.3 14 31.3 31.3M32 2.6C15.7 2.6 2.6 15.7 2.6 32S15.8 61.4 32 61.4c16.3 0 29.4-13.2 29.4-29.4C61.4 15.7 48.3 2.6 32 2.6"/><linearGradient id="b" x1="9.5" x2="54.5" y1="13.1" y2="50.9" gradientUnits="userSpaceOnUse"><stop offset="0" stop-color="#0B1F2A"/><stop offset=".2" stop-color="#333F47"/><stop offset=".5" stop-color="#777F84"/><stop offset=".5" stop-color="#81898D"/><stop offset=".7" stop-color="#B3B8B8"/><stop offset=".8" stop-color="#D2D5D3"/><stop offset=".8" stop-color="#DEE0DD"/><stop offset="1" stop-color="#FBFBFB"/></linearGradient><path fill="url(#b)" d="M32 2.6C15.7 2.6 2.6 15.7 2.6 32S15.8 61.4 32 61.4c16.3 0 29.4-13.2 29.4-29.4C61.4 15.7 48.3 2.6 32 2.6m0 56.9C16.8 59.5 4.5 47.2 4.5 32S16.8 4.5 32 4.5 59.5 16.8 59.5 32 47.2 59.5 32 59.5"/><linearGradient id="c" x1="2374.7" x2="2396.6" y1="772.9" y2="833.1" gradientTransform="rotate(180 1208.836 417.504)" gradientUnits="userSpaceOnUse"><stop offset="0" stop-color="#E1E3E1"/><stop offset=".1" style="stop-color:#c1c5c4;stop-opacity:1"/><stop offset=".3" style="stop-color:#9ba1a2;stop-opacity:1"/><stop offset=".5" style="stop-color:#7d8487;stop-opacity:1"/><stop offset=".7" style="stop-color:#687074;stop-opacity:0"/><stop offset=".8" style="stop-color:#5b6469;stop-opacity:0"/><stop offset="1" style="stop-color:#576065;stop-opacity:0"/></linearGradient><path fill="url(#c)" d="M32 63.3c17.3 0 31.3-14 31.3-31.3S49.3.7 32 .7.7 14.7.7 32s14 31.3 31.3 31.3M32 0c17.6 0 32 14.4 32 32S49.6 64 32 64 0 49.6 0 32 14.4 0 32 0" opacity=".4"/><path fill="#FFF" d="M2.2 32.1C2.2 15.7 15.5 2.2 32 2.2s29.8 13.4 29.8 29.9c0 16.4-13.3 29.7-29.8 29.7S2.2 48.5 2.2 32.1m9.3-20.6c-5.3 5.3-8.6 12.6-8.6 20.6s3.3 15.3 8.5 20.5c5.3 5.2 12.6 8.5 20.6 8.5s15.3-3.2 20.5-8.5c5.3-5.2 8.5-12.5 8.5-20.5s-3.3-15.3-8.5-20.6S40 2.9 32 2.9s-15.3 3.3-20.5 8.6"/><linearGradient id="d" x1="18.2" x2="45.8" y1="8.1" y2="55.9" gradientUnits="userSpaceOnUse"><stop offset="0" stop-color="#E1E3E1"/><stop offset=".1" style="stop-color:#c1c5c4;stop-opacity:1"/><stop offset=".3" style="stop-color:#9ba1a2;stop-opacity:1"/><stop offset=".5" style="stop-color:#7d8487;stop-opacity:1"/><stop offset=".7" style="stop-color:#687074;stop-opacity:0"/><stop offset=".8" style="stop-color:#5b6469;stop-opacity:0"/><stop offset="1" style="stop-color:#576065;stop-opacity:0"/></linearGradient><path fill="url(#d)" d="M32 59.6c-7.4 0-14.3-2.9-19.5-8.1S4.4 39.4 4.4 32s2.9-14.3 8.1-19.5S24.6 4.4 32 4.4s14.3 2.9 19.5 8.1 8.1 12.1 8.1 19.5-2.9 14.3-8.1 19.5-12.1 8.1-19.5 8.1m0-.8c7.1 0 13.9-2.8 18.9-7.8 5.1-5.1 7.8-11.8 7.8-18.9s-2.8-13.9-7.8-18.9C45.8 8.1 39.1 5.4 32 5.4s-13.9 2.8-18.9 7.8C8 18.1 5.2 24.9 5.2 32S8 45.9 13 50.9c5.1 5.1 11.9 7.9 19 7.9" opacity=".4"/><path fill="#FFF" d="M56.3 45c-.5-.4-19.8-15.7-19.8-15.7L32 3.6c-.3.1-.7.4-.9.8l-3.2 25L8 44.7s-.4.5-.6.8c-.1.2-.1.5-.1.8l24.6-10.1 24.6 10.1c.2-.5 0-1-.2-1.3"/><path fill="#565F64" d="m32.2 32.8-.2 4.6 22.6 9.1c.8.4 1.4.2 2-.2L32.5 32.7c-.1-.1-.3 0-.3.1"/><linearGradient id="e" x1="44.5" x2="42.8" y1="39.4" y2="42.2" gradientUnits="userSpaceOnUse"><stop offset="0" stop-color="#27343C"/><stop offset="1" style="stop-color:#00111e;stop-opacity:0"/></linearGradient><path fill="url(#e)" d="M32.2 32.8s1.3 2.3 2.8 3.9c2.1 2.3 4.9 3.9 4.9 3.9l14.7 5.9c.8.4 1.4.2 2-.2L32.5 32.7c-.1-.1-.3 0-.3.1"/><path fill="#A4AAAE" fill-opacity=".6" d="M56.5 45.4c0-.1-.1-.2-.2-.4L35.7 29.9l-2.8 1.8s.2.1.3 0c.3-.1.9-.2 1.5 0 .5.2 21.8 13.8 21.8 13.8z"/><path fill="#333E46" d="M55.8 44.5 36.6 29.3l-.9.6 20.6 15.2c-.1-.2-.3-.4-.5-.6"/><path fill="#565F64" d="m32.5 31.3-.1.1s0 .2.2.1c.1-.1 3-1.6 4-2.2l-3.5-24c-.1-.9-.5-1.3-1.2-1.6l.4 27.8z"/><path fill="#A4AAAE" fill-opacity=".6" d="M30.8 5.3v1.3l-2.2 22.1c0 .3.1.6.4.8l1.3 1 .9-24.4.1-1.9c-.3.2-.4.6-.5 1.1m-1.2 25.6-1.2-1L8.1 44.6s-.6.4-.7.8l.7-.4 21.3-13.4c.4-.2.5-.4.2-.7"/><path fill="#565F64" d="M31.7 32.8c0-.1-.1-.2-.2-.1L7.3 46.4c.6.4 1.2.5 2 .2l22.6-9.1z"/><linearGradient id="f" x1="39.6" x2="36.8" y1="29.1" y2="24.6" gradientUnits="userSpaceOnUse"><stop offset=".1" style="stop-color:#02131f;stop-opacity:1"/><stop offset=".9" style="stop-color:#02131f;stop-opacity:0"/></linearGradient><path fill="url(#f)" d="m32.4 31.4.1-.1zs0 .1.1.1h.1c.1-.1 3-1.6 4-2.2l-.4-2.9-3.1-21.1q0-.6-.3-.9s1.5 20.2 1.5 22.4c0 2.9-1.9 4.6-1.9 4.6"/><linearGradient id="g" x1="32" x2="27.8" y1="36.4" y2="37.6" gradientUnits="userSpaceOnUse"><stop offset=".2" style="stop-color:#02131f;stop-opacity:1"/><stop offset=".9" style="stop-color:#02131f;stop-opacity:0"/></linearGradient><path fill="url(#g)" fill-opacity=".8" d="M31.7 32.8c0-.1-.1-.2-.2-.1L7.3 46.4c.6.4 1.2.5 2 .2l22.6-9.1z"/><linearGradient id="h" x1="20.8" x2="20.2" y1="41.9" y2="40.4" gradientUnits="userSpaceOnUse"><stop offset="0" style="stop-color:#02131f;stop-opacity:1"/><stop offset=".1" style="stop-color:#02131f;stop-opacity:1"/><stop offset="1" style="stop-color:#02131f;stop-opacity:0"/></linearGradient><path fill="url(#h)" d="m9.3 46.5 22.6-9.1-.2-4.4c-.4 1.2-1.1 2.5-3 3.5-1.4.8-14.8 7.4-19.6 9.7-.3.2-.7.3-.9.4.4.2.7.1 1.1-.1" opacity=".8"/><linearGradient id="i" x1="35.6" x2="32.2" y1="17.2" y2="17.6" gradientUnits="userSpaceOnUse"><stop offset=".3" style="stop-color:#02131f;stop-opacity:1"/><stop offset=".3" style="stop-color:#02131f;stop-opacity:1"/><stop offset=".8" style="stop-color:#02131f;stop-opacity:0"/></linearGradient><path fill="url(#i)" d="m32.5 31.3-.1.1s0 .2.2.1c.1-.1 3-1.6 4-2.2l-3.5-24c-.1-.9-.5-1.3-1.2-1.6l.4 27.8z"/><linearGradient id="j" x1="35.7" x2="33.4" y1="17.1" y2="17.4" gradientUnits="userSpaceOnUse"><stop offset=".4" stop-color="#27343C"/><stop offset="1" style="stop-color:#3b474e;stop-opacity:0"/></linearGradient><path fill="url(#j)" d="m32.5 31.3-.1.1s0 .2.2.1c.1-.1 3-1.6 4-2.2l-3.5-24c-.1-.9-.5-1.3-1.2-1.6l.4 27.8z"/><linearGradient id="k" x1="-.4" x2="27.5" y1="32.9" y2="49" gradientUnits="userSpaceOnUse"><stop offset="0" style="stop-color:#24303a;stop-opacity:0"/><stop offset="0" style="stop-color:#25323b;stop-opacity:0"/><stop offset=".1" stop-color="#27343C"/></linearGradient><path fill="url(#k)" d="M5.1 44.4C4.4 42.8.4 35 4.8 20H3.1c-.9 3-1.6 4.8-2 7.5 0 0-.2 1-.3 2.1S.7 31.3.7 32c0 6 1.5 9.5 1.5 9.5 1.6 5 4.4 9.5 8.2 12.9 3.3 2.9 8.4 5.1 12.6 5.9-.7-.1-12.7-5.2-17.9-15.9"/><linearGradient id="l" x1="32" x2="32" y1="37.4" y2="32.6" gradientUnits="userSpaceOnUse"><stop offset=".3" stop-color="#A5ABAF"/><stop offset="1" style="stop-color:#a5abaf;stop-opacity:0"/></linearGradient><path fill="url(#l)" d="M32.4 32.6h-.9c.1 0 .2 0 .2.1l.2 4.6h.1l.2-4.6c0-.1.1-.2.2-.1"/><linearGradient id="m" x1="47.7" x2="47.7" y1="2.3" y2="63.3" gradientUnits="userSpaceOnUse"><stop offset="0" stop-color="#DEE0DD"/><stop offset="0" stop-color="#C5C9C7"/><stop offset="0" stop-color="#9EA4A5"/><stop offset="0" stop-color="#82898C"/><stop offset="0" stop-color="#71797D"/><stop offset="0" stop-color="#6B7378"/><stop offset=".2" stop-color="#333F47"/><stop offset=".5" stop-color="#27343C"/><stop offset=".8" stop-color="#333F47"/><stop offset="1" stop-color="#434D54"/></linearGradient><path fill="url(#m)" d="M42 2.3c10.5 4 20.4 15 20.4 28.9C62.4 48 49 61.7 32 61.7v1.6c17 0 31.3-14 31.3-31.3 0-13.8-8.8-25.4-21.3-29.7"/><linearGradient id="n" x1="32.1" x2="32.1" y1=".7" y2=".7" gradientUnits="userSpaceOnUse"><stop offset="0" stop-color="#DEE0DD"/><stop offset="0" stop-color="#C5C9C7"/><stop offset="0" stop-color="#9EA4A5"/><stop offset="0" stop-color="#82898C"/><stop offset="0" stop-color="#71797D"/><stop offset="0" stop-color="#6B7378"/><stop offset=".2" stop-color="#333F47"/><stop offset=".5" stop-color="#27343C"/><stop offset=".8" stop-color="#333F47"/><stop offset="1" stop-color="#434D54"/></linearGradient><path fill="url(#n)" d="M32.3.7H32z"/><linearGradient id="o" x1="57.3" x2="43.8" y1="8.1" y2="27.9" gradientUnits="userSpaceOnUse"><stop offset=".7" stop-color="#27343C"/><stop offset=".7" style="stop-color:#2b373f;stop-opacity:1"/><stop offset=".7" style="stop-color:#36424a;stop-opacity:1"/><stop offset=".7" style="stop-color:#49545b;stop-opacity:1"/><stop offset=".8" style="stop-color:#646d73;stop-opacity:0"/><stop offset=".8" style="stop-color:#868d92;stop-opacity:0"/><stop offset=".8" style="stop-color:#b0b5b8;stop-opacity:0"/><stop offset=".8" style="stop-color:#e1e3e4;stop-opacity:0"/><stop offset=".8" style="stop-color:#fff;stop-opacity:0"/></linearGradient><path fill="url(#o)" d="M58.8 20.2C51.8 4.1 36 3.2 35.1 3.1H35c12.1 2.2 19.8 10.1 22.5 18.4v.1c1.2 3.2 1.8 6.6 1.9 10.3.1 3.5-.7 7.4-2.2 11-.1.5-.2 1.1-.3 1.1h1.6c4.8-9 2.7-18.1.3-23.8"/><path fill="#FBFBFB" d="M2.2 32.1C2.2 15.7 15.5 2.2 32 2.2s29.8 13.4 29.8 29.9c0 16.4-13.3 29.7-29.8 29.7S2.2 48.5 2.2 32.1m9.3-20.6c-5.3 5.3-8.6 12.6-8.6 20.6s3.3 15.3 8.5 20.5c5.3 5.2 12.6 8.5 20.6 8.5s15.3-3.2 20.5-8.5c5.3-5.2 8.5-12.5 8.5-20.5s-3.3-15.3-8.5-20.6S40 2.9 32 2.9s-15.3 3.3-20.5 8.6"/><path fill="#333F47" d="m7.9 44.8 20.4-14.7c1.1.6 2.9 1.4 3.1 1.4.2.1.2-.1.2-.1l-2.5-2.1c-.3-.2-.4-.5-.4-.8l2.4-24.1c-.1.1-.1.3-.2.4-.1.2-.1.3-.1.5l-3.5 24.1L8.1 44.5c-.1.1-.2.2-.2.3"/></g></switch></svg>