<svg xmlns="http://www.w3.org/2000/svg" width="620.36" height="195.72"><path d="M60.18 60.18h11.3l36.71 53.4v-53.4h12.17v75.36h-11.3l-36.71-53.4v53.4H60.18zm68.1 47.91c0-17.01 10.87-28.31 27.13-28.31S182 89.9 182.33 106.05c0 1.4-.11 2.91-.32 4.41h-41.56v.75c.32 9.37 6.24 15.5 15.4 15.5 7.11 0 12.27-3.55 13.89-9.69h11.63c-1.94 10.87-11.2 19.16-24.87 19.16-17.33 0-28.21-11.2-28.21-28.1Zm41.99-6.14c-.97-8.18-6.67-12.81-14.75-12.81-7.43 0-13.78 4.95-14.64 12.81zm43.81-22.17c14.64 0 23.04 7 23.04 20.02v22.07c0 2.8 1.18 3.55 3.55 3.55h2.37v10.12h-6.14c-7.54 0-10.12-3.34-10.12-8.83-3.66 5.6-9.26 9.47-18.19 9.47-12.06 0-20.46-5.92-20.46-16.15 0-11.3 8.18-17.66 23.58-17.66h13.89v-3.34c0-6.14-4.41-9.9-12.06-9.9-6.89 0-11.52 3.23-12.38 8.07h-11.41c1.18-10.77 10.44-17.44 24.33-17.44Zm-3.88 47.37c9.69 0 15.29-5.71 15.4-14.21V111h-14.43c-7.21 0-11.2 2.69-11.2 8.29 0 4.63 3.88 7.86 10.23 7.86m102.06-56.74h9.58V60.18h-11.09c-10.66 0-15.4 5.17-15.4 15.07v5.17h-16.68c-9.04 0-13.46 3.66-16.26 8.29l-1.29-8.29h-10.34v55.12h11.63v-27.67c0-8.5 3.34-16.58 13.67-16.58h19.27v44.25h11.74V91.29h14.75V80.42h-14.96v-4.63c0-3.77 1.61-5.38 5.38-5.38m39.07 9.37c16.79 0 28.1 11.41 28.1 28.21s-11.3 28.21-28.1 28.21-28.1-11.3-28.1-28.21 11.3-28.21 28.1-28.21m16.26 28.21c0-10.66-6.46-18.3-16.26-18.3s-16.15 7.64-16.15 18.3 6.35 18.3 16.15 18.3 16.26-7.64 16.26-18.3m29.72-27.57 1.29 8.29c2.8-4.63 7.21-8.29 16.26-8.29h2.58v10.87h-5.17c-10.34 0-13.67 8.07-13.67 16.58v27.67h-11.63V80.42zm27.24 0h10.12l1.29 7.21c3.12-4.09 7.86-7.75 16.15-7.86 7.21 0 13.67 2.91 17.01 10.01 3.55-6.03 9.8-10.01 18.84-10.01 11.41 0 20.67 6.57 20.67 24.01v31.76H497v-31.01c0-9.69-3.98-14.75-11.52-14.75-7.97 0-13.03 6.03-13.03 15.93v29.82h-11.74v-31.01c0-9.69-3.98-14.75-11.63-14.75s-12.92 6.46-12.92 16.26v29.5h-11.63V80.41Z" style="stroke-width:0;fill:#000e38"/><path d="M514.89 135.54h45.29v11.09h-45.29z" style="fill:#00e5a4;stroke-width:0"/></svg>