<svg xmlns="http://www.w3.org/2000/svg" width="500" height="607.14" fill="none" viewBox="0 0 28 34"><path fill="#fff" d="M21.56 18.452h2.632c.476 0 .812.448.7.868l-2.016 8.008a.67.67 0 0 1-.672.532h-2.66c-.42 0-.756-.448-.672-.868l2.016-8.008c.084-.308.336-.532.672-.532M16.24 6.02h2.632c.476 0 .812.448.672.868l-1.96 8.008a.78.78 0 0 1-.728.532h-2.604c-.476 0-.812-.448-.672-.868l1.988-8.008c.056-.308.364-.532.672-.532M5.712 11.788h2.632c.448 0 .784.448.672.896l-1.988 7.98a.715.715 0 0 1-.672.532h-2.66c-.448 0-.812-.42-.672-.868l1.988-7.98a.72.72 0 0 1 .7-.56"/></svg>