<svg xmlns="http://www.w3.org/2000/svg" xml:space="preserve" id="Layer_1" width="600" height="200" x="0" y="0" viewBox="0 0 3762 874.6"><style>.st0{enable-background:new}.st1{fill:#21fa90}</style><g class="st0"><path d="M1271.6 602V400.5h87.2c18 0 33.6 2.9 46.6 8.8s23.1 14.2 30.2 25.2c7.1 10.9 10.7 24 10.7 39.2 0 15-3.6 27.9-10.7 38.9-7.1 10.9-17.2 19.3-30.2 25.2-13.1 5.9-28.6 8.8-46.6 8.8h-61.3l20.7-21V602zm46.6-71.4-20.7-22.2h58.7c14.4 0 25.1-3.1 32.2-9.2s10.7-14.7 10.7-25.6c0-11.1-3.6-19.8-10.7-25.9s-17.8-9.2-32.2-9.2h-58.7l20.7-22.2zm161 71.4V388.4h44.9V602zm134.4 2.3c-12.1 0-22.5-2.1-31.1-6.2s-15.3-9.7-19.9-16.8-6.9-15.1-6.9-23.9c0-9.2 2.3-17.3 6.8-24.2s11.7-12.3 21.4-16.3c9.8-3.9 22.5-5.9 38.3-5.9h41.2v26.2h-36.3c-10.6 0-17.8 1.7-21.7 5.2s-5.9 7.8-5.9 13c0 5.8 2.3 10.3 6.8 13.7s10.7 5 18.6 5c7.5 0 14.2-1.8 20.2-5.3 5.9-3.5 10.3-8.8 13-15.7l6.9 20.7c-3.3 10-9.2 17.6-17.8 22.7-8.9 5.2-20 7.8-33.6 7.8m47.2-2.3v-30.2l-2.9-6.6V511c0-9.6-2.9-17.1-8.8-22.5s-14.8-8.1-26.9-8.1q-12.45 0-24.3 3.9c-8 2.6-14.7 6.1-20.3 10.5l-16.1-31.4c8.4-5.9 18.6-10.6 30.5-13.8 11.9-3.3 24-4.9 36.3-4.9 23.6 0 41.9 5.6 55 16.7 13 11.1 19.6 28.5 19.6 52.1V602zm64.2-116.9v-34.5h107.4v34.5zm81.7 119.2c-18.2 0-32.4-4.7-42.6-14s-15.3-23.2-15.3-41.6V412.8h44.9v135.3c0 6.5 1.7 11.6 5.2 15.1 3.5 3.6 8.2 5.3 14.1 5.3 7.1 0 13.1-1.9 18.1-5.8l12.1 31.7c-4.6 3.3-10.1 5.7-16.6 7.3-6.3 1.7-12.9 2.6-19.9 2.6" class="st1"/></g><g class="st0"><path d="M1850.2 485.1v-34.5h107.4v34.5zm23.9 116.9V443.6c0-17.5 5.2-31.4 15.5-41.9 10.4-10.5 25.1-15.7 44.3-15.7 6.5 0 12.8.7 18.9 2 6 1.3 11.2 3.5 15.4 6.3l-11.8 32.5c-2.5-1.7-5.3-3.1-8.3-4-3.1-1-6.3-1.4-9.8-1.4-6.5 0-11.6 1.9-15.1 5.6-3.6 3.7-5.3 9.4-5.3 16.8v14.4l1.2 19.3V602z" class="st1"/></g><g class="st0"><path d="M2051.7 604.3c-16.5 0-31.1-3.5-43.9-10.4s-22.8-16.4-30.2-28.4-11.1-25.7-11.1-41c0-15.5 3.7-29.3 11.1-41.3s17.5-21.4 30.2-28.2c12.8-6.8 27.4-10.2 43.9-10.2q24.45 0 43.8 10.2c12.9 6.8 22.9 16.2 30.2 28.1s10.9 25.7 10.9 41.5c0 15.4-3.6 29-10.9 41s-17.4 21.4-30.2 28.4c-12.9 6.8-27.5 10.3-43.8 10.3m0-36.9c7.5 0 14.2-1.7 20.2-5.2 5.9-3.5 10.7-8.4 14.1-14.8 3.5-6.4 5.2-14.1 5.2-22.9 0-9-1.7-16.7-5.2-23q-5.25-9.45-14.1-14.7c-6-3.5-12.7-5.2-20.2-5.2s-14.2 1.7-20.2 5.2-10.7 8.3-14.2 14.7c-3.6 6.3-5.3 14-5.3 23 0 8.8 1.8 16.5 5.3 22.9s8.3 11.4 14.2 14.8c6 3.5 12.7 5.2 20.2 5.2" class="st1"/></g><g class="st0"><path d="M2166.6 602V447.1h42.9v43.8l-6-12.7q6.9-16.35 22.2-24.9c10.2-5.7 22.5-8.5 37.1-8.5v41.5c-1.9-.2-3.6-.3-5.2-.4-1.5-.1-3.2-.1-4.9-.1-12.3 0-22.2 3.5-29.8 10.5q-11.4 10.5-11.4 32.7v73z" class="st1"/></g><g class="st0"><path d="M2487.9 444.8c12.3 0 23.2 2.4 32.7 7.3q14.25 7.35 22.5 22.5c5.5 10.1 8.2 23 8.2 38.7V602h-44.9v-81.8q0-18.75-7.8-27.6c-5.2-5.9-12.5-8.9-21.9-8.9-6.5 0-12.4 1.5-17.6 4.5s-9.2 7.4-12.1 13.4-4.3 13.5-4.3 22.7V602h-44.9v-81.8c0-12.5-2.5-21.7-7.6-27.6s-12.3-8.9-21.7-8.9c-6.5 0-12.4 1.5-17.6 4.5s-9.2 7.4-12.1 13.4-4.3 13.5-4.3 22.7V602h-44.9V447.1h42.9v42.3l-8.1-12.4c5.4-10.6 13-18.6 22.9-24 9.9-5.5 21.2-8.2 33.8-8.2 14.2 0 26.6 3.6 37.3 10.8s17.7 18.2 21.2 33l-15.8-4.3q7.8-18.15 24.9-28.8c11.3-7.2 24.4-10.7 39.2-10.7m151.4 159.5c-12.1 0-22.5-2.1-31.1-6.2s-15.3-9.7-19.9-16.8-6.9-15.1-6.9-23.9c0-9.2 2.3-17.3 6.8-24.2s11.7-12.3 21.4-16.3c9.8-3.9 22.5-5.9 38.3-5.9h41.2v26.2h-36.3c-10.6 0-17.8 1.7-21.7 5.2s-5.9 7.8-5.9 13c0 5.8 2.3 10.3 6.8 13.7s10.7 5 18.6 5c7.5 0 14.2-1.8 20.2-5.3 5.9-3.5 10.3-8.8 13-15.7l6.9 20.7c-3.3 10-9.2 17.6-17.8 22.7-8.9 5.2-20 7.8-33.6 7.8m47.2-2.3v-30.2l-2.9-6.6V511c0-9.6-2.9-17.1-8.8-22.5s-14.8-8.1-26.9-8.1q-12.45 0-24.3 3.9c-8 2.6-14.7 6.1-20.3 10.5l-16.1-31.4c8.4-5.9 18.6-10.6 30.5-13.8 11.9-3.3 24-4.9 36.3-4.9 23.6 0 41.9 5.6 55 16.7 13 11.1 19.6 28.5 19.6 52.1V602zm64.2-116.9v-34.5h107.4v34.5zm81.7 119.2c-18.2 0-32.4-4.7-42.6-14s-15.3-23.2-15.3-41.6V412.8h44.9v135.3c0 6.5 1.7 11.6 5.2 15.1 3.5 3.6 8.2 5.3 14.1 5.3 7.1 0 13.1-1.9 18.1-5.8l12.1 31.7c-4.6 3.3-10.1 5.7-16.6 7.3-6.3 1.7-13 2.6-19.9 2.6m84.4-178.8c-8.3 0-15-2.4-20.2-7.2s-7.8-10.7-7.8-17.8 2.6-13 7.8-17.8 11.9-7.2 20.2-7.2c8.2 0 15 2.3 20.2 6.8q7.8 6.75 7.8 17.4c0 7.5-2.5 13.7-7.6 18.6-5.2 4.7-12 7.2-20.4 7.2M2894.3 602V447.1h44.9V602z" class="st1"/></g><g class="st0"><path d="M3055.8 604.3c-16.7 0-31.6-3.4-44.6-10.2-13.1-6.8-23.3-16.3-30.7-28.4s-11.1-25.8-11.1-41.2c0-15.5 3.7-29.3 11.1-41.3s17.6-21.4 30.7-28.2c13-6.8 27.9-10.2 44.6-10.2q24.45 0 42.6 10.2c12.1 6.8 21 16.6 26.8 29.2l-34.8 18.7c-4-7.3-9.1-12.7-15.1-16.1-6-3.5-12.6-5.2-19.7-5.2-7.7 0-14.6 1.7-20.7 5.2s-11 8.3-14.5 14.7c-3.6 6.3-5.3 14-5.3 23s1.8 16.7 5.3 23 8.4 11.2 14.5 14.7 13 5.2 20.7 5.2c7.1 0 13.7-1.7 19.7-5 6-3.4 11.1-8.8 15.1-16.3l34.8 19c-5.8 12.5-14.7 22.1-26.8 28.9-12.1 6.9-26.3 10.3-42.6 10.3" class="st1"/></g><g class="st0"><path d="M3173.8 604.3c-7.7 0-14.2-2.6-19.7-7.9s-8.2-12-8.2-20.3c0-8.2 2.7-14.9 8.2-20s12-7.6 19.7-7.6c7.9 0 14.5 2.5 19.9 7.6s8.1 11.8 8.1 20c0 8.3-2.7 15-8.1 20.3-5.4 5.2-12 7.9-19.9 7.9" class="st1"/></g><g class="st0"><path d="M3296.8 604.3c-14.6 0-27.7-3.3-39.4-9.9s-21-15.9-27.8-27.8q-10.2-17.85-10.2-42 0-24.45 10.2-42.3c6.8-11.9 16.1-21.1 27.8-27.6s24.9-9.8 39.4-9.8c13 0 24.5 2.9 34.3 8.6 9.8 5.8 17.4 14.5 22.7 26.2 5.4 11.7 8.1 26.7 8.1 44.9 0 18-2.6 33-7.8 44.8s-12.6 20.6-22.3 26.3c-9.8 5.7-21.4 8.6-35 8.6m7.7-36.9c7.3 0 13.9-1.7 19.9-5.2 5.9-3.5 10.7-8.4 14.2-14.8s5.3-14.1 5.3-22.9c0-9-1.8-16.7-5.3-23-3.6-6.3-8.3-11.2-14.2-14.7-6-3.5-12.6-5.2-19.9-5.2-7.5 0-14.2 1.7-20.2 5.2s-10.7 8.3-14.2 14.7c-3.6 6.3-5.3 14-5.3 23 0 8.8 1.8 16.5 5.3 22.9s8.3 11.4 14.2 14.8c6 3.5 12.8 5.2 20.2 5.2m40.6 34.6v-31.7l.9-46.1-2.9-45.8v-90.1h44.9V602z" class="st1"/></g><g class="st0"><path d="M3506.3 604.3c-17.7 0-33.2-3.5-46.5-10.4s-23.7-16.4-30.9-28.4c-7.3-12-10.9-25.7-10.9-41 0-15.5 3.6-29.3 10.8-41.3s17-21.4 29.5-28.2q18.75-10.2 42.3-10.2c15.2 0 28.8 3.2 41 9.6s21.8 15.6 28.9 27.6 10.7 26.3 10.7 43c0 1.7-.1 3.7-.3 5.9s-.4 4.3-.6 6.2h-125.8V511h102.2l-17.3 7.8c0-8.1-1.6-15.1-4.9-21s-7.8-10.6-13.5-14c-5.8-3.4-12.5-5-20.2-5s-14.4 1.7-20.3 5c-5.9 3.4-10.4 8.1-13.7 14.1s-4.9 13.2-4.9 21.4v6.9c0 8.4 1.9 15.9 5.6 22.3s9 11.3 15.8 14.7 14.8 5 24 5c8.2 0 15.5-1.2 21.7-3.7s11.9-6.2 17.1-11.2l23.9 25.9c-7.1 8.1-16 14.2-26.8 18.6-10.5 4.3-22.9 6.5-36.9 6.5" class="st1"/></g><g class="st0"><path d="m3650.3 602-65.1-154.9h46.3l54.1 133.3h-23l56.1-133.3h43.2L3696.6 602z" class="st1"/></g><path d="M310 641.2h613.7v-.2c82.7-3.7 148.5-71.9 148.5-155.5s-69.7-155.7-155.7-155.7c-25.9 0-50.4 6.4-71.9 17.6-25.5-59-77.3-104-140.6-120.3m-525.6.1C87.7 250.6 20.6 332.9 20.6 430.9s67.2 180.5 158 203.8" style="fill:none;stroke:#00283d;stroke-width:41.21;stroke-linecap:round;stroke-linejoin:round"/><path d="M421.2 356.3 339.3 385l36 76.4" style="fill:none;stroke:#21fa90;stroke-width:42.48;stroke-linecap:round;stroke-linejoin:round"/><path d="M341.1 386.4c29.2 17.2 63.2 27.1 99.6 27.1 108.5 0 196.4-87.9 196.4-196.4S549.2 20.6 440.7 20.6s-196.4 88-196.4 196.4v293" style="fill:none;stroke:#21fa90;stroke-width:41.21;stroke-linecap:round;stroke-linejoin:round"/><path d="M244.3 819.7V854" style="opacity:.2;fill:none;stroke:#21fa90;stroke-width:41.21;stroke-linecap:round;stroke-linejoin:round"/><path d="M244.6 712v54.1" style="opacity:.4;fill:none;stroke:#21fa90;stroke-width:41.21;stroke-linecap:round;stroke-linejoin:round"/><path d="M244.3 565.7v90.4" style="opacity:.7;fill:none;stroke:#21fa90;stroke-width:41.21;stroke-linecap:round;stroke-linejoin:round"/></svg>