<svg width="711" height="117" viewBox="0 0 711 117" fill="none" xmlns="http://www.w3.org/2000/svg">
<path d="M711 96.3594V116.043H691.327V96.3594H711Z" fill="url(#paint0_linear_469_271)"/>
<path d="M49.7328 117C77.9042 117 90.9669 102.513 90.9669 83.144C90.9669 59.3661 70.5072 54.1696 48.7885 48.6581C34.3093 45.0363 22.5056 42.3594 22.5056 29.7618C22.5056 19.9986 29.7452 14.8021 43.9096 14.8021C60.2774 14.8021 67.9891 22.2032 69.8777 35.7456H87.8192C86.088 13.07 69.4055 0 43.7522 0C19.5154 0 4.4067 11.1803 4.4067 30.7066C4.4067 52.1225 23.7647 57.7914 41.3915 62.5155C61.8512 67.712 72.8679 69.7591 72.8679 84.0888C72.8679 94.3244 67.3596 102.198 49.2606 102.198C28.1714 102.198 19.2006 91.9623 17.9416 76.8452H0C1.25906 102.198 21.2466 117 49.7328 117Z" fill="#34495E"/>
<path d="M106.837 114.795H188.046V99.8358H124.149V64.0902H178.76V49.1305H124.149V17.1642H186.472V2.20458H106.837V114.795Z" fill="#34495E"/>
<path d="M204.278 114.795H285.488V99.8358H221.59V64.0902H276.202V49.1305H221.59V17.1642H283.914V2.20458H204.278V114.795Z" fill="#34495E"/>
<path d="M301.72 114.795H344.843C376.004 114.795 394.575 94.7968 394.575 58.5787C394.575 22.3607 375.69 2.20458 344.528 2.20458H301.72V114.795ZM319.032 99.8358V17.1642H343.741C369.866 17.1642 376.634 36.8479 376.634 58.5787C376.634 80.3096 369.866 99.8358 343.741 99.8358H319.032Z" fill="#34495E"/>
<path d="M411.765 114.795H429.077V2.20458H411.765V114.795Z" fill="#34495E"/>
<path d="M494.54 117C525.544 117 538.607 100.781 538.607 76.5303V2.20458H521.138V76.5303C521.138 94.0094 512.482 102.04 494.54 102.04C476.756 102.04 467.943 94.0094 467.943 76.5303V2.20458H450.631V76.5303C450.631 100.781 463.693 117 494.54 117Z" fill="#34495E"/>
<path d="M560.232 114.795H577.23V27.3997H577.544L608.549 114.795H622.871L653.875 27.3997H654.19V114.795H671.187V2.20458H648.366L615.788 90.7026H615.474L583.053 2.20458H560.232V114.795Z" fill="#34495E"/>
<defs>
<linearGradient id="paint0_linear_469_271" x1="690.974" y1="96.3594" x2="713.586" y2="99.0641" gradientUnits="userSpaceOnUse">
<stop stop-color="#FDCE7C"/>
<stop offset="1" stop-color="#FFF593"/>
<stop offset="1" stop-color="#FFF593"/>
</linearGradient>
</defs>
</svg>
