<svg xmlns="http://www.w3.org/2000/svg" width="392" height="61" fill="none" viewBox="0 0 392 61"><path fill="#000" d="M53.626.139H37.538v38.88h16.088zm-37.538 0H0v22.12l16.088 16.76z" style="fill:#000;fill-opacity:1"/><path fill="#000" d="M16.088 39.018H0v21.45h16.088z" style="fill:#000;fill-opacity:1"/><path fill="#000" d="M37.54 39.018H16.087l12.737 16.088h8.714z" style="fill:#000;fill-opacity:1"/><mask id="a" width="324" height="56" x="67.626" y="-.6" fill="#000" maskUnits="userSpaceOnUse"><path fill="#fff" d="M67.626-.6h324v56h-324z"/><path d="M69.626 1.4h40.034v5.92H92.862V53.2h-6.438V7.32H69.626zm38.034 32.93q0-5.772 2.22-10.138 2.295-4.365 6.364-6.734 4.071-2.442 9.324-2.442 5.18 0 9.176 2.146t6.29 6.216q2.295 4.07 2.442 9.546 0 .814-.148 2.59h-29.304v.518q.149 5.55 3.404 8.88 3.257 3.33 8.51 3.33 4.071 0 6.882-1.998 2.886-2.071 3.848-5.698h6.142q-1.11 5.772-5.55 9.472-4.44 3.626-10.878 3.626-5.624 0-9.842-2.368-4.218-2.442-6.586-6.808-2.294-4.44-2.294-10.138m29.526-3.848q-.444-4.81-3.626-7.474-3.108-2.664-7.918-2.664-4.291 0-7.548 2.812-3.255 2.813-3.7 7.326zm17.806 10.286q.148 3.405 2.96 5.55 2.886 2.145 7.4 2.146 3.996 0 6.438-1.554 2.516-1.627 2.516-4.218 0-2.22-1.184-3.404t-3.108-1.628q-1.85-.444-5.328-.888-4.884-.593-7.992-1.554t-5.032-3.034q-1.924-2.146-1.924-5.846 0-3.33 1.85-5.92 1.924-2.59 5.18-3.996 3.256-1.48 7.326-1.48 6.66 0 10.804 3.108 4.218 3.108 4.662 8.88h-6.068q-.37-2.96-2.886-4.884t-6.29-1.924q-3.847 0-6.216 1.628-2.368 1.554-2.368 4.144 0 1.925 1.11 2.96 1.11 1.036 2.812 1.406 1.776.37 5.328.814 4.958.592 8.14 1.628 3.256 1.035 5.18 3.33 1.998 2.294 1.998 6.216 0 3.404-1.998 5.994t-5.402 3.996-7.548 1.406q-7.4 0-11.914-3.404-4.44-3.405-4.514-9.472zM189.7 21.01h-6.808v-5.55h6.808V4.878h6.068V15.46h9.546v5.55h-9.546v22.274q0 2.368.888 3.404.962.962 3.256.962h6.586v5.55h-6.956q-5.328 0-7.622-2.368-2.22-2.368-2.22-7.474zM211.703 1.4h8.14l18.352 42.994L256.325 1.4h7.992v51.8h-6.29V12.352L240.859 53.2h-5.698l-17.168-40.848V53.2h-6.29zm94.252 14.06V53.2h-5.254l-.814-5.032q-4.292 5.475-12.062 5.476-6.734 0-10.804-4.144t-4.07-13.024V15.46h6.068v20.646q0 5.846 2.516 8.954 2.59 3.034 7.326 3.034 5.18 0 8.066-3.7 2.96-3.7 2.96-10.064V15.46zm24.309 37.74 19.758-51.8h7.622l19.684 51.8h-6.882l-5.476-13.986H342.4L336.924 53.2zm14.06-19.832h18.722L353.648 8.43zM383.189 1.4h6.438v51.8h-6.438z"/></mask><path fill="#000" d="M69.626 1.4h40.034v5.92H92.862V53.2h-6.438V7.32H69.626zm38.034 32.93q0-5.772 2.22-10.138 2.295-4.365 6.364-6.734 4.071-2.442 9.324-2.442 5.18 0 9.176 2.146t6.29 6.216q2.295 4.07 2.442 9.546 0 .814-.148 2.59h-29.304v.518q.149 5.55 3.404 8.88 3.257 3.33 8.51 3.33 4.071 0 6.882-1.998 2.886-2.071 3.848-5.698h6.142q-1.11 5.772-5.55 9.472-4.44 3.626-10.878 3.626-5.624 0-9.842-2.368-4.218-2.442-6.586-6.808-2.294-4.44-2.294-10.138m29.526-3.848q-.444-4.81-3.626-7.474-3.108-2.664-7.918-2.664-4.291 0-7.548 2.812-3.255 2.813-3.7 7.326zm17.806 10.286q.148 3.405 2.96 5.55 2.886 2.145 7.4 2.146 3.996 0 6.438-1.554 2.516-1.627 2.516-4.218 0-2.22-1.184-3.404t-3.108-1.628q-1.85-.444-5.328-.888-4.884-.593-7.992-1.554t-5.032-3.034q-1.924-2.146-1.924-5.846 0-3.33 1.85-5.92 1.924-2.59 5.18-3.996 3.256-1.48 7.326-1.48 6.66 0 10.804 3.108 4.218 3.108 4.662 8.88h-6.068q-.37-2.96-2.886-4.884t-6.29-1.924q-3.847 0-6.216 1.628-2.368 1.554-2.368 4.144 0 1.925 1.11 2.96 1.11 1.036 2.812 1.406 1.776.37 5.328.814 4.958.592 8.14 1.628 3.256 1.035 5.18 3.33 1.998 2.294 1.998 6.216 0 3.404-1.998 5.994t-5.402 3.996-7.548 1.406q-7.4 0-11.914-3.404-4.44-3.405-4.514-9.472zM189.7 21.01h-6.808v-5.55h6.808V4.878h6.068V15.46h9.546v5.55h-9.546v22.274q0 2.368.888 3.404.962.962 3.256.962h6.586v5.55h-6.956q-5.328 0-7.622-2.368-2.22-2.368-2.22-7.474zM211.703 1.4h8.14l18.352 42.994L256.325 1.4h7.992v51.8h-6.29V12.352L240.859 53.2h-5.698l-17.168-40.848V53.2h-6.29zm94.252 14.06V53.2h-5.254l-.814-5.032q-4.292 5.475-12.062 5.476-6.734 0-10.804-4.144t-4.07-13.024V15.46h6.068v20.646q0 5.846 2.516 8.954 2.59 3.034 7.326 3.034 5.18 0 8.066-3.7 2.96-3.7 2.96-10.064V15.46zm24.309 37.74 19.758-51.8h7.622l19.684 51.8h-6.882l-5.476-13.986H342.4L336.924 53.2zm14.06-19.832h18.722L353.648 8.43zM383.189 1.4h6.438v51.8h-6.438z" style="fill:#000;fill-opacity:1"/><path stroke="#000" stroke-width="2.8" d="M69.626 1.4h40.034v5.92H92.862V53.2h-6.438V7.32H69.626z" mask="url(#a)" style="stroke:#000;stroke-opacity:1"/><path stroke="#000" stroke-width="2.8" d="M107.66 34.33q0-5.772 2.22-10.138 2.295-4.365 6.364-6.734 4.071-2.442 9.324-2.442 5.18 0 9.176 2.146t6.29 6.216q2.295 4.07 2.442 9.546 0 .814-.148 2.59h-29.304v.518q.149 5.55 3.404 8.88 3.257 3.33 8.51 3.33 4.071 0 6.882-1.998 2.886-2.071 3.848-5.698h6.142q-1.11 5.772-5.55 9.472-4.44 3.626-10.878 3.626-5.624 0-9.842-2.368-4.218-2.442-6.586-6.808-2.294-4.44-2.294-10.138Zm29.526-3.848q-.444-4.81-3.626-7.474-3.108-2.664-7.918-2.664-4.291 0-7.548 2.812-3.255 2.813-3.7 7.326z" mask="url(#a)" style="stroke:#000;stroke-opacity:1"/><path stroke="#000" stroke-width="2.8" d="M154.992 40.768q.148 3.405 2.96 5.55 2.886 2.145 7.4 2.146 3.996 0 6.438-1.554 2.516-1.627 2.516-4.218 0-2.22-1.184-3.404t-3.108-1.628q-1.85-.444-5.328-.888-4.884-.593-7.992-1.554t-5.032-3.034q-1.924-2.146-1.924-5.846 0-3.33 1.85-5.92 1.924-2.59 5.18-3.996 3.256-1.48 7.326-1.48 6.66 0 10.804 3.108 4.218 3.108 4.662 8.88h-6.068q-.37-2.96-2.886-4.884t-6.29-1.924q-3.847 0-6.216 1.628-2.368 1.554-2.368 4.144 0 1.925 1.11 2.96 1.11 1.036 2.812 1.406 1.776.37 5.328.814 4.958.592 8.14 1.628 3.256 1.035 5.18 3.33 1.998 2.294 1.998 6.216 0 3.404-1.998 5.994t-5.402 3.996-7.548 1.406q-7.4 0-11.914-3.404-4.44-3.405-4.514-9.472z" mask="url(#a)" style="stroke:#000;stroke-opacity:1"/><path stroke="#000" stroke-width="2.8" d="M189.7 21.01h-6.808v-5.55h6.808V4.878h6.068V15.46h9.546v5.55h-9.546v22.274q0 2.368.888 3.404.962.962 3.256.962h6.586v5.55h-6.956q-5.328 0-7.622-2.368-2.22-2.368-2.22-7.474z" mask="url(#a)" style="stroke:#000;stroke-opacity:1"/><path stroke="#000" stroke-width="2.8" d="M211.703 1.4h8.14l18.352 42.994L256.325 1.4h7.992v51.8h-6.29V12.352L240.859 53.2h-5.698l-17.168-40.848V53.2h-6.29z" mask="url(#a)" style="stroke:#000;stroke-opacity:1"/><path stroke="#000" stroke-width="2.8" d="M305.955 15.46V53.2h-5.254l-.814-5.032q-4.292 5.475-12.062 5.476-6.734 0-10.804-4.144t-4.07-13.024V15.46h6.068v20.646q0 5.846 2.516 8.954 2.59 3.034 7.326 3.034 5.18 0 8.066-3.7 2.96-3.7 2.96-10.064V15.46z" mask="url(#a)" style="stroke:#000;stroke-opacity:1"/><path stroke="#000" stroke-width="2.8" d="m330.264 53.2 19.758-51.8h7.622l19.684 51.8h-6.882l-5.476-13.986H342.4L336.924 53.2zm14.06-19.832h18.722L353.648 8.43z" mask="url(#a)" style="stroke:#000;stroke-opacity:1"/><path stroke="#000" stroke-width="2.8" d="M383.189 1.4h6.438v51.8h-6.438z" mask="url(#a)" style="stroke:#000;stroke-opacity:1"/></svg>