<?xml version="1.0" encoding="UTF-8" standalone="no"?>
<!-- Created with Inkscape (http://www.inkscape.org/) -->

<svg
   version="1.1"
   id="svg2"
   width="778.46356"
   height="175.60933"
   viewBox="0 0 778.46356 175.60933"
   xmlns="http://www.w3.org/2000/svg"
   xmlns:svg="http://www.w3.org/2000/svg">
  <defs
     id="defs6">
    <clipPath
       clipPathUnits="userSpaceOnUse"
       id="clipPath18">
      <path
         d="M 0,1.206994e-5 H 720 V 540.00001 H 0 Z"
         id="path16" />
    </clipPath>
  </defs>
  <g
     id="g8"
     transform="matrix(1.3333333,0,0,-1.3333333,-27.760413,505.60933)">
    <g
       id="g10" />
    <g
       id="g12">
      <g
         id="g14"
         clip-path="url(#clipPath18)">
        <path
           d="M 0,540 H 720 V 1.206994e-5 H 0 Z"
           style="fill:#ffffff;fill-opacity:1;fill-rule:nonzero;stroke:none"
           id="path20" />
      </g>
    </g>
    <g
       id="g22">
      <path
         d="M 0,540 H 720 V 1.40816e-5 H 0 Z"
         style="fill:#ffffff;fill-opacity:1;fill-rule:nonzero;stroke:none"
         id="path24" />
      <g
         id="g26"
         transform="matrix(0.24,0,0,0.24,187.3402,-246.96)">
        <text
           xml:space="preserve"
           transform="matrix(1,0,0,-1,0,2250)"
           style="font-variant:normal;font-weight:normal;font-size:416.667px;font-family:Lato;-inkscape-font-specification:Lato-Regular;writing-mode:lr-tb;fill:#353535;fill-opacity:1;fill-rule:nonzero;stroke:none"
           id="text30"><tspan
             x="0 207.29169 387.50003 620.83337 840.62506 1039.5834 1189.0417 1289.0417 1504.1251"
             y="0"
             id="tspan28">aspectivo</tspan></text>
      </g>
      <g
         id="g32"
         transform="matrix(6.690874e-5,4.151183e-5,4.151183e-5,-6.690874e-5,0.5001019,327.4291)">
        <path
           d="M 0,738504 457444,0 914888,738504 Z"
           style="fill:none;stroke:#353535;stroke-width:165100;stroke-linecap:butt;stroke-linejoin:miter;stroke-miterlimit:8;stroke-dasharray:none;stroke-opacity:1"
           id="path34" />
      </g>
      <g
         id="g36"
         transform="matrix(6.746655e-5,4.059897e-5,4.059897e-5,-6.746655e-5,14.32736,337.6907)">
        <path
           d="M 0,1130628 682958,0 1365916,1130628 Z"
           style="fill:none;stroke:#353535;stroke-width:165100;stroke-linecap:butt;stroke-linejoin:miter;stroke-miterlimit:8;stroke-dasharray:none;stroke-opacity:1"
           id="path38" />
      </g>
    </g>
  </g>
</svg>
