<svg viewBox="0 0 143 39" fill="#0c3" xmlns="http://www.w3.org/2000/svg" height="42" width="180"><path d="M11.404 26.008c-3.55 0-5.59-2.175-6.035-5.862h15.797C23.296 12.862 19.258 7 11.448 7 4.438 7 0 11.663 0 18.725c0 7.062 4.393 11.724 11.316 11.724 5.546 0 9.495-2.975 10.782-7.638h-5.501c-.756 2.043-2.708 3.197-5.193 3.197Zm-.044-14.744c3.506 0 5.325 2.087 5.014 5.285H5.458c.533-3.42 2.574-5.285 5.902-5.285ZM58.176 7c-6.79 0-11.316 4.707-11.316 11.725s4.527 11.724 11.316 11.724c6.745 0 11.316-4.706 11.316-11.724S64.92 7 58.176 7Zm0 19.008c-3.64 0-6.035-2.886-6.035-7.283s2.395-7.284 6.035-7.284c3.594 0 6.035 2.887 6.035 7.284s-2.441 7.283-6.035 7.283ZM84.889 7c-3.327 0-5.945 1.51-7.588 4.042v-3.42h-5.058v30.644H77.3V26.364c1.642 2.576 4.26 4.085 7.588 4.085 5.903 0 10.118-4.662 10.118-11.724C95.007 11.707 90.791 7 84.889 7Zm-1.42 19.052c-3.727 0-6.212-2.93-6.212-7.327s2.484-7.284 6.212-7.284c3.773 0 6.258 2.887 6.258 7.284s-2.485 7.327-6.258 7.327ZM134.856 7c-3.373 0-6.079 1.776-7.544 4.707V7.622h-5.059v22.206h5.059V18.947c0-4.53 2.351-7.55 5.725-7.55 3.905 0 3.905 3.597 3.905 6.128v12.303H142V17.392C142 14.062 142 7 134.856 7ZM108.763 26.008c-3.55 0-5.592-2.175-6.035-5.862h15.798C120.656 12.862 116.617 7 108.807 7c-7.01 0-11.449 4.663-11.449 11.725 0 7.062 4.393 11.724 11.316 11.724 5.548 0 9.497-2.975 10.783-7.638h-5.502c-.754 2.043-2.707 3.197-5.192 3.197Zm-.045-14.744c3.506 0 5.325 2.087 5.015 5.285h-10.917c.533-3.42 2.575-5.285 5.902-5.285ZM35.943 12.773l-1.33 1.76-4.749-6.91h-5.768l7.677 10.79-2.619 3.553a13.105 13.105 0 0 1-2.663 2.888c-.958.75-2.26 1.154-3.771 1.154v4.442c5.727 0 8.208-2.853 10.244-5.773l6.796-9.194a12.94 12.94 0 0 1 2.663-2.886c.958-.75 2.216-1.156 3.727-1.156V7c-5.727 0-8.17 2.852-10.207 5.773ZM46.15 29.828l-6.985-9.736c-.455.177-.882.42-1.268.72a12.605 12.605 0 0 0-2.293 2.375l4.6 6.641h5.946Z"/></svg>