<?xml version="1.0" encoding="utf-8"?>
<svg version="1.1" id="Layer_1" xmlns="http://www.w3.org/2000/svg" xmlns:xlink="http://www.w3.org/1999/xlink" x="0px" y="0px" width="512" height="280"
	 viewBox="0 0 512 280" style="enable-background:new 0 0 512 280;" xml:space="preserve">
<g id="Layer_1_1_">
	<g>
		<g>
			<g>
				<g>
					<path fill="#2455D1" d="M109.3,207.5l11.3,6.5c-8.2,12.6-21.5,20.5-36.5,20.5c-23.8,0-43.4-19.8-43.4-43.3
						c0-23.6,19.8-43.3,43.4-43.3c7,0,14.9,1.8,20.9,5.6l-7.2,10.8c-5.7-2.8-9.8-3.4-13.3-3.4c-17.1,0-30.8,13.8-30.8,30.3
						c0,16.7,13.8,30.3,30.3,30.3C94.4,221.4,103.3,216,109.3,207.5z"/>
					<g>
						<g>
							<path fill="#191919" d="M126.4,147.7h40.1c20.4,0,30.6,9.3,30.6,28.5c0,17.6-8.6,27.3-25.7,28.7l24.7,42.8h-14.5L157.5,205
								h-17.8v26.3h-13.2L126.4,147.7L126.4,147.7z M168.2,160.7h-28.6v31.4h28.6c10.8,0,16.2-5.3,16.2-15.8
								C184.3,165.9,179,160.7,168.2,160.7z"/>
						</g>
					</g>
					<path fill="#2455D1" d="M286.7,232.9h-14.9l-6.8-13.1h-48.3l-6.3,13.1h-15l44.9-90.3L286.7,232.9z M222.8,206.6h35.9L240.8,169
						L222.8,206.6z"/>
					<path fill="#2455D1" d="M303.8,232.9h-13v-83.7h54v13h-41v31.4h32.9v13h-32.9V232.9z"/>
					<path fill="#2455D1" d="M383.1,232.9H370v-70.7h-22.2v-13h58.9v13h-23.6L383.1,232.9L383.1,232.9z"/>
					<g>
						<g>
							<path fill="#2455D1" d="M444.3,195.6h-9.2c-17,0-25.7-8.1-25.7-23.8c0-15.3,8.4-22.7,25.6-22.7h24.7v13h-26.4
								c-7.5,0-11.2,3.2-11.2,9.8s3.8,10.4,11.2,10.4h9.3c19.2,0,28.6,8.5,28.6,25.2s-9.5,25.1-28.5,25.1h-32.5V220h34.1
								c9.5,0,14.3-4.2,14.3-12.4C458.6,199.6,454,195.6,444.3,195.6z"/>
						</g>
					</g>
				</g>
			</g>
			<g>
				<g>
					<g>
						<g>
							<path fill="#191919" d="M77.2,110.5V23h13.2v87.7H77.2V110.5z"/>
						</g>
					</g>
					<g>
						<g>
							<path fill="#191919" d="M114.3,51.8v58.8h-13.1V22.9h8.1l42.2,58.8V22.9h13v87.7h-7.9L114.3,51.8z"/>
						</g>
					</g>
					<g>
						<g>
							<path fill="#191919" d="M209.1,36.5v74h-13.3v-74h-22.6V22.9h22.6h13.3h51.7v13.7L209.1,36.5L209.1,36.5z"/>
						</g>
					</g>
					<g>
						<g>
							<path fill="#191919" d="M269.5,110.5V23h45.3v13.7h-32.1v15H315v13.7h-32.3v31.8h44.4v13.7h-57.6L269.5,110.5L269.5,110.5z"/>
						</g>
					</g>
					<g>
						<g>
							<path fill="#191919" d="M403,83.8l11.4,6.9c-8.4,13.2-21.7,21.3-36.9,21.3c-23.9,0-43.9-20.6-43.9-45.3s19.9-45.3,43.9-45.3
								c7.2,0,15,1.8,21.1,5.9l-7.3,11.3c-5.8-2.9-9.9-3.5-13.5-3.5c-17.3,0-31,14.5-31,31.8c0,17.5,13.9,31.8,30.6,31.8
								C387.9,98.5,396.9,92.7,403,83.8z"/>
						</g>
					</g>
					<g>
						<g>
							<polygon fill="#191919" points="18.7,258.4 31.8,258.4 31.8,83 65,83 65,69.4 31.8,69.4 31.8,36.5 71.3,36.5 71.3,22.9 
								18.7,22.9 							"/>
						</g>
						<g>
							<polygon fill="#191919" points="480.2,24.6 480.2,71.1 435.3,71.1 435.3,24.6 422.1,24.6 422.1,112.3 435.3,112.3 435.3,84.8 
								480.2,84.8 480.2,258.4 493.3,258.6 493.3,24.6 							"/>
						</g>
					</g>
				</g>
			</g>
		</g>
		<g>
			<path fill="#191919" d="M31.2,258.4v-11.5h450.2v11.5H31.2z"/>
		</g>
	</g>
</g>
</svg>
