<svg xmlns="http://www.w3.org/2000/svg" width="1300" height="197.3" viewBox="0 0 1300 197.3">
  <path d="M0 6.9h37.3v49.4H80V7H117v129.5H79.9v-51H37.3v51H0ZM132.7 110.1c0-22.3 18.9-31 50.4-31h9V77c0-9-2.1-15-12.5-15-8.8 0-12.1 5.2-12.8 11.2h-30.5c1.5-22.9 19.4-34 45.3-34 26.1 0 42.8 10.6 42.8 35.8v61.4h-31.5v-11c-4.6 6.8-13 13.2-28.1 13.2-17 0-32-8.4-32-28.5Zm59.4-6.9v-5.8h-8.5c-13 0-18.8 2.6-18.8 10.4 0 5.4 3.6 8.8 11.2 8.8 9.2 0 16.1-5.2 16.1-13.4ZM242.8 41.7h32.4v15.2C280.3 47 290.6 39 306.4 39c18.3 0 31 11.4 31 35.7v61.6h-32.5v-55c0-10.8-4.1-16-13.5-16-9.6 0-16.2 5.8-16.2 18v53h-32.4ZM351 90v-1.4c0-32.3 17.8-49.5 40.3-49.5 14.9 0 23.7 6.4 29.2 16V0h32.4v136.4h-32.4V121a32 32 0 0 1-29.6 17.6c-21.9 0-39.8-15.8-39.8-48.6Zm70.4-.5V88c0-16-6.7-24.4-18.7-24.4-12.1 0-18.6 8.1-18.6 24.6v1.5c0 15.9 7 24 18.2 24 11.8 0 19-8.1 19-24.2ZM465.7 106.3h29.9c1 6.9 4.2 10.7 13.4 10.7 8 0 11.6-3 11.6-7.8 0-4.5-4.5-6.7-17.6-8.5-25.3-3.3-36-10.7-36-30.4 0-21 18.6-31.2 40.6-31.2 23.3 0 39.6 8 41.8 30.6H520c-1.2-6.3-4.7-9.4-12-9.4-7.2 0-10.8 3-10.8 7.4 0 4.6 4.4 6.4 16 7.8C539.4 78.8 552 85.7 552 106c0 22.4-16.7 32.6-43 32.6-27 0-42.7-11.3-43.4-32.3ZM561.1 90.2v-1.5c0-30.4 22.7-49.6 52-49.6 29.2 0 51.6 18.7 51.6 48.7v1.5c0 30.8-22.6 49.3-51.8 49.3s-51.8-17.8-51.8-48.4Zm70.7-.5v-1.5c0-16-6.4-24.8-18.7-24.8-12.1 0-18.8 8.5-18.8 24.4v1.5c0 16.3 6.3 25.2 18.8 25.2 12.2 0 18.7-9 18.7-24.8ZM678.8 41.7h32.5v15.2c5-9.8 15.3-17.8 31.1-17.8 18.3 0 31 11.4 31 35.7v61.6H741v-55c0-10.8-4.2-16-13.6-16-9.6 0-16.1 5.8-16.1 18v53h-32.5ZM796.2 106V63.8h-11.4V41.7h11.4V21.9h32.4v19.8h18.6v22h-18.6V103c0 6.9 3.4 10 9.6 10a24.6 24.6 0 0 0 9.2-1.7v24.6a68.3 68.3 0 0 1-18 2.8c-21.3 0-33.2-10.4-33.2-32.6ZM856.8 110.1c0-22.3 18.9-31 50.4-31h9V77c0-9-2.1-15-12.5-15-8.8 0-12.1 5.2-12.8 11.2h-30.5c1.5-22.9 19.4-34 45.3-34 26.1 0 42.8 10.6 42.8 35.8v61.4H917v-11c-4.6 6.8-13 13.2-28.1 13.2-17 0-32-8.4-32-28.5Zm59.4-6.9v-5.8h-8.5c-13 0-18.8 2.6-18.8 10.4 0 5.4 3.6 8.8 11.2 8.8 9.2 0 16.1-5.2 16.1-13.4ZM999.3 121.7v14.7H967V0h32.4v55.8A33.4 33.4 0 0 1 1029 39c22 0 40 16.7 40 49.1v1.5c0 32.6-18 48.9-40.2 48.9-14.2 0-24.7-6.7-29.4-16.9Zm36.6-32v-1.5c0-16.7-7.2-24.6-18.6-24.6-11.8 0-18.9 8.5-18.9 24.4v1.5c0 16 7 24.2 18.9 24.2 12.1 0 18.6-8.5 18.6-24ZM1084.2 0h32.3v136.4h-32.3ZM1131.5 90.2v-1.5c0-30.4 22.6-49.6 51.3-49.6 25.9 0 48.1 14.9 48.1 49v8.4h-66.6c.9 12.5 8.1 19.8 19.7 19.8 10.7 0 15.2-5 16.5-11.3h30.4c-2.9 21.4-19.3 33.6-48 33.6-29.7 0-51.4-17.4-51.4-48.4Zm68-12c-.6-11.4-6.2-17.7-16.7-17.7-9.8 0-16.5 6.3-18.2 17.7Z"/>
  <path fill="#1a42e8" d="M1245.3 142.7h54.7v54.6h-54.7Z"/>
</svg>