<svg xmlns="http://www.w3.org/2000/svg" width="32" height="32" fill="none"><path fill="url(#a)" d="M15.453 31.297c-.55 0-1.101-.049-1.578-.145h-.007c-2.032-.428-4.03-1.403-6.103-2.98l-.01-.008c-1.872-1.474-3.461-3.293-4.596-5.262-1.235-2.098-2.006-4.376-2.229-6.586v-.003c-.25-2.55.142-4.975 1.157-7.212A14.037 14.037 0 0 1 6.363 3.77a15.06 15.06 0 0 1 6.82-2.89 15.365 15.365 0 0 1 7.77.833 14.71 14.71 0 0 1 5.846 3.747c1.633 1.693 2.89 3.747 3.735 6.098l.004.011c.84 2.441.81 5.016-.09 7.249l-.003.01a8.391 8.391 0 0 1-1.113 1.91 8.155 8.155 0 0 1-.097 1.51c-.36 2.326-1.85 4.34-4.082 5.519-1.681.889-3.668 1.302-5.685 1.194-.075.58-.346.997-.61 1.273-.544.565-1.407.915-2.56 1.03-.272.019-.559.034-.845.034ZM14.21 29.51c.42.082 1.172.152 1.92.078.715-.07 1.269-.26 1.518-.525.071-.074.235-.245.12-.73-.176-.676-.715-1.26-1.608-1.73-1.012-.531-2.15-.755-2.746-.837-.752-.085-1.537-.048-2.367-.003-1.138.06-2.314.119-3.482-.16-.086-.019-.168-.041-.25-.063.465.457.957.892 1.474 1.302 1.864 1.421 3.639 2.292 5.421 2.668Zm4.938-2.259c1.853.175 3.691-.164 5.216-.975 1.57-.833 2.672-2.17 3.089-3.728a9.65 9.65 0 0 1-2.17 1.19c-2.195.864-4.706.98-7.07.328a12.767 12.767 0 0 1-6.046-3.542l-.007-.008c-1.708-1.838-2.776-4.003-3.081-6.258a9.067 9.067 0 0 1 .13-3.249c-.048.023-.097.041-.145.063l-.019.008c-1.927.819-3.449 2.244-4.279 4.019a7.053 7.053 0 0 0-.245 5.488c.309.845.77 1.596 1.336 2.177.606.625 1.306 1.03 2.083 1.205l.012.004c.933.223 1.942.171 3.01.115.867-.044 1.764-.089 2.656.015l.02.004c1.063.149 4.397.8 5.51 3.144Zm-5.764-7.877a11.07 11.07 0 0 0 5.258 3.073l.01.004c2.021.558 4.16.461 6.021-.272a7.848 7.848 0 0 0 2.936-2.009c-.138-1.176-.573-2.389-1.291-3.557a6.289 6.289 0 0 1-2.422 1.332 6.288 6.288 0 0 1-3.29.06l-.015-.004c-2.28-.633-4.264-2.728-3.639-5.146.235-.915.804-1.548 1.336-2.102a16.197 16.197 0 0 0-3.092-.614c-1.44-.12-2.79-.041-4.037.238a7.268 7.268 0 0 0-.417 3.646v.004c.257 1.92 1.172 3.766 2.642 5.347Zm14.065-4.093a11.56 11.56 0 0 1 1.436 2.92.053.053 0 0 0 .008-.022c.748-1.853.766-4.007.06-6.065-.138-.38-.283-.751-.443-1.112.089 1.551-.28 3.043-1.06 4.279Zm-6.422 1.105a4.623 4.623 0 0 0 2.404-.045 4.621 4.621 0 0 0 1.893-1.079c-1.406-1.648-3.244-2.976-5.324-3.877-.13.145-.264.283-.395.417-.48.495-.893.923-1.034 1.477-.171.659 0 1.291.502 1.89.473.55 1.202 1.009 1.954 1.217Zm-18.434-.238c.004.04.008.082.015.126.142-.64.354-1.272.644-1.882 1.008-2.144 2.828-3.867 5.131-4.845a12.19 12.19 0 0 1 1.582-.588c.264-.499.584-.964.948-1.388 1.611-1.872 4.045-2.81 6.348-2.437 1.217.193 2.772.956 3.505 2.229.462.8.529 1.678.198 2.541l-.023.06c.417.186.823.39 1.217.61a16.085 16.085 0 0 1 4.168 3.286c.565-1.191.684-2.631.305-4.075-.29-1.057-1.143-2.44-2.281-3.702-1.083-1.198-2.274-2.088-3.286-2.52-.234-.096-.454-.2-.692-.282a13.712 13.712 0 0 0-6.94-.748 13.322 13.322 0 0 0-6.057 2.567 12.368 12.368 0 0 0-3.766 4.696c-.893 1.961-1.231 4.097-1.016 6.352Zm11.33-7.736c.466 0 .938.019 1.418.06h.011a17.95 17.95 0 0 1 4.03.874c.004-.015.011-.026.015-.04v-.005a1.206 1.206 0 0 0-.082-1.108c-.327-.57-1.231-1.24-2.318-1.41-1.667-.269-3.43.383-4.666 1.707a17.16 17.16 0 0 1 1.593-.078Z"/><defs><linearGradient id="a" x1="3.349" x2="28.527" y1="6.895" y2="24.525" gradientUnits="userSpaceOnUse"><stop stop-color="#269EFF"/><stop offset="1" stop-color="#6200EA"/></linearGradient></defs></svg>