<svg height="135" viewBox="0 0 501 135" width="500" xmlns="http://www.w3.org/2000/svg"><path d="m206.96875 77.632812c0 4.390626-.515625 8.523438-1.546875 12.398438-.949219 3.878906-2.667969 7.277344-5.164063 10.207031-2.410156 2.84375-5.722656 5.125-9.9375 6.847657-4.132812 1.636718-9.382812 2.453124-15.75 2.453124-5.851562 0-10.882812-.6875-15.101562-2.066406-4.214844-1.464844-7.703125-3.144531-10.453125-5.039062l6.710937-15.628906c2.496094 1.460937 5.164063 2.753906 8.003907 3.875 2.835937 1.117187 5.9375 1.679687 9.292969 1.679687 4.902343 0 8.433593-1.207031 10.582031-3.617187 2.152343-2.414063 3.226562-6.460938 3.226562-12.144532v-58.394531h20.136719zm0 0" fill="#535353"/><path d="m288.585938 73.625c0 5.339844-.773438 10.25-2.324219 14.726562-1.546875 4.394532-3.785157 8.183594-6.710938 11.371094-2.925781 3.101563-6.453125 5.511719-10.585937 7.234375-4.042969 1.722657-8.605469 2.582031-13.679688 2.582031-4.992187 0-9.554687-.859374-13.683594-2.582031-4.046874-1.722656-7.53125-4.132812-10.457031-7.234375-2.925781-3.1875-5.203125-6.976562-6.839843-11.371094-1.636719-4.476562-2.453126-9.386718-2.453126-14.726562s.816407-10.207031 2.453126-14.597656c1.722656-4.390625 4.042968-8.140625 6.96875-11.238282 3.011718-3.101562 6.542968-5.511718 10.585937-7.234374 4.128906-1.722657 8.605469-2.585938 13.425781-2.585938 4.902344 0 9.378906.863281 13.421875 2.585938 4.132813 1.722656 7.660157 4.132812 10.585938 7.234374 2.925781 3.097657 5.207031 6.847657 6.839843 11.238282 1.636719 4.390625 2.453126 9.257812 2.453126 14.597656zm-19.621094 0c0-5.941406-1.203125-10.59375-3.613282-13.953125-2.324218-3.441406-5.679687-5.164063-10.066406-5.164063-4.390625 0-7.789062 1.722657-10.199218 5.164063-2.410157 3.359375-3.613282 8.011719-3.613282 13.953125 0 5.945312 1.203125 10.679688 3.613282 14.210938 2.410156 3.445312 5.808593 5.167968 10.199218 5.167968 4.386719 0 7.742188-1.722656 10.066406-5.167968 2.410157-3.53125 3.613282-8.265626 3.613282-14.210938zm0 0" fill="#535353"/><path d="m319.878906 71.558594c0 10.765625 4.34375 16.148437 13.035156 16.148437 1.980469 0 3.828126-.257812 5.550782-.773437 1.71875-.519532 3.183594-1.121094 4.386718-1.808594v-30.75c-.945312-.171875-2.0625-.300781-3.355468-.386719-1.289063-.171875-2.796875-.257812-4.515625-.257812-5.078125 0-8.863281 1.679687-11.359375 5.039062s-3.742188 7.621094-3.742188 12.789063zm42.207032 27.648437c0 11.109375-2.839844 19.332031-8.519532 24.671875-5.59375 5.425782-14.285156 8.140625-26.074218 8.140625-4.128907 0-8.261719-.386719-12.390626-1.164062-4.128906-.6875-7.960937-1.636719-11.488281-2.839844l3.355469-16.148437c3.011719 1.203124 6.152344 2.152343 9.421875 2.839843 3.359375.691407 7.144531 1.035157 11.359375 1.035157 5.507812 0 9.378906-1.207032 11.617188-3.617188 2.324218-2.414062 3.484374-5.511719 3.484374-9.300781v-2.457031c-2.0625.949218-4.214843 1.679687-6.453124 2.195312-2.152344.433594-4.515626.648438-7.097657.648438-9.378906 0-16.566406-2.757813-21.558593-8.269532-4.988282-5.597656-7.484376-13.390625-7.484376-23.382812 0-4.996094.773438-9.515625 2.324219-13.566406 1.546875-4.132813 3.785157-7.664063 6.710938-10.589844 3.011719-2.929688 6.667969-5.167969 10.972656-6.71875 4.300781-1.636719 9.164063-2.457032 14.585937-2.457032 2.320313 0 4.6875.128907 7.097657.390626 2.496093.171874 4.949219.429687 7.359375.773437 2.40625.34375 4.6875.777344 6.839844 1.292969 2.238281.429687 4.214843.902344 5.9375 1.421875zm0 0" fill="#535353"/><path d="m396.515625 71.558594c0 10.765625 4.347656 16.148437 13.039063 16.148437 1.980468 0 3.828124-.257812 5.550781-.773437 1.71875-.519532 3.183593-1.121094 4.386719-1.808594v-30.75c-.945313-.171875-2.0625-.300781-3.355469-.386719-1.289063-.171875-2.796875-.257812-4.515625-.257812-5.078125 0-8.863282 1.679687-11.359375 5.039062-2.496094 3.359375-3.746094 7.621094-3.746094 12.789063zm42.210937 27.648437c0 11.109375-2.839843 19.332031-8.519531 24.671875-5.59375 5.425782-14.285156 8.140625-26.074219 8.140625-4.128906 0-8.261718-.386719-12.390624-1.164062-4.132813-.6875-7.960938-1.636719-11.488282-2.839844l3.355469-16.148437c3.011719 1.203124 6.152344 2.152343 9.421875 2.839843 3.355469.691407 7.144531 1.035157 11.359375 1.035157 5.507813 0 9.378906-1.207032 11.617187-3.617188 2.324219-2.414062 3.484376-5.511719 3.484376-9.300781v-2.457031c-2.0625.949218-4.214844 1.679687-6.453126 2.195312-2.152343.433594-4.515624.648438-7.097656.648438-9.382812 0-16.566406-2.757813-21.558594-8.269532-4.988281-5.597656-7.484374-13.390625-7.484374-23.382812 0-4.996094.773437-9.515625 2.324218-13.566406 1.546875-4.132813 3.785156-7.664063 6.710938-10.589844 3.011718-2.929688 6.667968-5.167969 10.972656-6.71875 4.300781-1.636719 9.164062-2.457032 14.585938-2.457032 2.320312 0 4.6875.128907 7.097656.390626 2.496094.171874 4.949218.429687 7.355468.773437 2.410157.34375 4.691407.777344 6.84375 1.292969 2.238282.429687 4.214844.902344 5.9375 1.421875zm0 0" fill="#535353"/><path d="m497.683594 56.832031c-1.722656-.429687-3.746094-.863281-6.066406-1.292969-2.324219-.515624-4.820313-.773437-7.488282-.773437-1.203125 0-2.667968.128906-4.386718.386719-1.636719.171875-2.882813.386718-3.746094.644531v51.933594h-19.230469v-64.335938c3.441406-1.203125 7.484375-2.324219 12.132813-3.359375 4.730468-1.117187 9.980468-1.679687 15.746093-1.679687 1.035157 0 2.28125.089843 3.742188.261719 1.464843.085937 2.929687.257812 4.390625.515624 1.464844.171876 2.925781.429688 4.386718.773438 1.464844.261719 2.714844.605469 3.746094 1.035156zm0 0" fill="#535353"/><path d="m129.078125 69.980469c0 35.675781-28.894531 64.59375-64.539063 64.59375-35.644531 0-64.539062-28.917969-64.539062-64.59375s28.894531-64.59375 64.539062-64.59375c35.644532 0 64.539063 28.917969 64.539063 64.59375zm0 0" fill="#7267ef"/><g fill="#ededed"><path d="m34.960938 104.753906c0 2.738282-2.214844 4.953125-4.949219 4.953125s-4.949219-2.214843-4.949219-4.953125c0-2.734375 2.214844-4.953125 4.949219-4.953125s4.949219 2.21875 4.949219 4.953125zm0 0"/><path d="m71.101562 105.722656c0 2.738282-2.214843 4.953125-4.949218 4.953125-2.730469 0-4.949219-2.214843-4.949219-4.953125 0-2.734375 2.21875-4.953125 4.949219-4.953125 2.734375 0 4.949218 2.21875 4.949218 4.953125zm0 0"/><path d="m69.667969 91.515625 3.675781-4.777344c1.855469-2.417969 5.320312-2.867187 7.738281-1.007812 2.414063 1.859375 2.863281 5.328125 1.003907 7.746093l-3.675782 4.777344c-1.855468 2.417969-5.320312 2.867188-7.738281 1.007813-2.414063-1.863281-2.863281-5.328125-1.003906-7.746094zm0 0"/><path d="m64.554688 71.785156 15.875 13.332032c2.914062 2.445312 3.292968 6.792968.847656 9.707031l-2.667969 3.183593-21.148437-17.761718zm0 0"/><path d="m64.617188 71.859375-21.871094 26.085937c-1.960938 2.339844-5.441406 2.644532-7.773438.683594-2.335937-1.960937-2.640625-5.445312-.679687-7.78125l17.445312-20.808594c2.445313-2.917968 6.785157-3.296874 9.699219-.851562zm0 0"/><path d="m104.933594 40.589844c2.285156 2.015625 2.503906 5.503906.488281 7.792968l-17.945313 20.378907c-2.511718 2.855469-6.863281 3.128906-9.714843.613281l-3.113281-2.746094 22.496093-25.550781c2.015625-2.285156 5.5-2.507813 7.789063-.488281zm0 0"/><path d="m60.902344 41.535156 29.117187 24.453125-2.671875 3.183594c-2.441406 2.917969-6.785156 3.296875-9.695312.851563l-23.847656-20.027344zm0 0"/><path d="m62.378906 42.738281-21.871094 26.085938c-1.960937 2.335937-5.441406 2.640625-7.777343.679687-2.332031-1.957031-2.636719-5.441406-.679688-7.777344l17.449219-20.8125c2.441406-2.914062 6.785156-3.292968 9.695312-.847656zm0 0"/><path d="m87.359375 30.980469c0 5.277343-4.273437 9.550781-9.546875 9.550781-5.269531 0-9.542969-4.273438-9.542969-9.550781 0-5.277344 4.273438-9.554688 9.542969-9.554688 5.273438 0 9.546875 4.277344 9.546875 9.554688zm0 0"/></g></svg>