<svg xmlns="http://www.w3.org/2000/svg" xmlns:xlink="http://www.w3.org/1999/xlink" width="232" height="53" viewBox="0 0 231.29 52.99"><defs><linearGradient id="linear-gradient" x1="2.44" y1="-6.71" x2="217.71" y2="71.64" gradientUnits="userSpaceOnUse"><stop offset="0" stop-color="#ff9000"/><stop offset="1" stop-color="#ff0030"/></linearGradient></defs><g id="Layer_2" data-name="Layer 2"><g id="Layer_1-2" data-name="Layer 1"><path d="M0,51.84V0H9.79V23.9L29.52,0h12L19.8,25.56l23,26.28H30.46L9.79,28.22V51.84Z" style="fill:url(#linear-gradient)"/><path d="M63.07,52.92a21.11,21.11,0,0,1-10.53-2.57,18.63,18.63,0,0,1-7.13-7.1A20.59,20.59,0,0,1,42.84,32.9a23.17,23.17,0,0,1,2.52-11.08,18.33,18.33,0,0,1,7-7.33A19.69,19.69,0,0,1,62.5,11.88a18.21,18.21,0,0,1,10.4,2.88,16.91,16.91,0,0,1,6.34,8.1,27.2,27.2,0,0,1,1.44,12.28H71v-3.6Q71,25.6,69.1,23t-6.17-2.61q-5,0-7.36,3c-1.58,2-2.36,5-2.36,9,0,3.62.78,6.43,2.36,8.41a8.31,8.31,0,0,0,6.93,3,9.24,9.24,0,0,0,4.93-1.26,8.06,8.06,0,0,0,3.13-3.64l9.79,2.81A17.2,17.2,0,0,1,73.42,50,19.14,19.14,0,0,1,63.07,52.92ZM50.18,35.14V27.86H76v7.28Z" style="fill:url(#linear-gradient)"/><path d="M84.46,20.52V13H112.1v7.56ZM112.1,51.84a38.28,38.28,0,0,1-7.9.67,18.89,18.89,0,0,1-6.91-1.37A9.27,9.27,0,0,1,92.66,47a12,12,0,0,1-1.51-5.42q-.08-2.76-.07-6.25V2.16h9.79V34.78c0,1.51,0,2.87,0,4.08a5.81,5.81,0,0,0,.74,2.9A4.94,4.94,0,0,0,105.8,44a31.48,31.48,0,0,0,6.3-.29Z" style="fill:url(#linear-gradient)"/><path d="M135.21,53a15.61,15.61,0,0,1-7.45-1.55,12.3,12.3,0,0,1-4.48-3.92,16.3,16.3,0,0,1-2.29-5,25,25,0,0,1-.82-4.7c-.1-1.41-.15-2.45-.15-3.09V13H130V31.32c0,.89,0,2,.14,3.4a15.6,15.6,0,0,0,.9,4.16,8,8,0,0,0,2.47,3.49,7.41,7.41,0,0,0,4.84,1.41,10.39,10.39,0,0,0,2.7-.4,6.58,6.58,0,0,0,2.7-1.53,8.22,8.22,0,0,0,2.07-3.35,17.22,17.22,0,0,0,.81-5.81l5.62,2.66A20.26,20.26,0,0,1,150.33,44a15.44,15.44,0,0,1-5.63,6.52A16.93,16.93,0,0,1,135.21,53Zm12.6-1.15V39h-1.22V13h9.86V51.84Z" style="fill:url(#linear-gradient)"/><path d="M166.53,51.84V13h8.64v9.5l-.93-1.22a14.19,14.19,0,0,1,2-3.67,10.47,10.47,0,0,1,3.1-2.74,12.81,12.81,0,0,1,3.06-1.35,16.12,16.12,0,0,1,3.42-.61,19,19,0,0,1,3.53.09V22.1a10.22,10.22,0,0,0-3.77-.34,10.92,10.92,0,0,0-3.87,1,8.8,8.8,0,0,0-2.91,2.11A8.89,8.89,0,0,0,177,28a12.3,12.3,0,0,0-.61,4V51.84Z" style="fill:url(#linear-gradient)"/><path d="M213.55,52.92A21.06,21.06,0,0,1,203,50.35a18.56,18.56,0,0,1-7.13-7.1,20.48,20.48,0,0,1-2.57-10.35,23.17,23.17,0,0,1,2.52-11.08,18.31,18.31,0,0,1,6.94-7.33A19.71,19.71,0,0,1,213,11.88a18.24,18.24,0,0,1,10.41,2.88,17,17,0,0,1,6.33,8.1,26.92,26.92,0,0,1,1.44,12.28h-9.68v-3.6q0-5.94-1.89-8.55t-6.18-2.61c-3.33,0-5.79,1-7.36,3s-2.36,5-2.36,9c0,3.62.79,6.43,2.36,8.41a8.31,8.31,0,0,0,6.93,3,9.22,9.22,0,0,0,4.93-1.26A8.08,8.08,0,0,0,221,38.88l9.79,2.81A17.31,17.31,0,0,1,223.9,50,19.19,19.19,0,0,1,213.55,52.92ZM200.66,35.14V27.86h25.78v7.28Z" style="fill:url(#linear-gradient)"/></g></g></svg>