<svg width="35" height="27" viewBox="0 0 325.77 325.77" xmlns="http://www.w3.org/2000/svg"><symbol id="nw-logo"><path d="m108.59 217.18h-0.03 0.04-0.04 0.04-0.01" fill="none"/><path d="M107.92.64a10 10 0 0 0-3.51-.64H7.15A7.15 7.15 0 0 0 0 7.15v101.44z" fill="#00ae4d"/><path d="M108.59 217.18h-.03.04-.01" fill="none"/><path d="M2.09 323.67a7.13 7.13 0 0 0 5.06 2.09h94.29a7.15 7.15 0 0 0 7.15-7.15V217.18z" fill="#00ae4d"/><path d="M217.17 108.59v216.29l.65.27 107.94-107.97z" fill="#00682c"/><path d="M108.59 217.18h-.03.03" fill="none"/><path d="M108.59 217.18V.88c-.21-.1-.43-.2-.65-.28L0 108.59v210a7.13 7.13 0 0 0 2.09 5.05zm217.17 0V7.15A7.15 7.15 0 0 0 318.61 0h-94.29a7.15 7.15 0 0 0-7.15 7.14v101.45zm0 0L217.82 325.12a10 10 0 0 0 3.51.64h97.29a7.15 7.15 0 0 0 7.15-7.15V217.18z" fill="#8ccb32"/><path d="m108.6 217.18h-0.01 0.01" fill="#d0d1d3"/><path d="M111.52 2.93a9.94 9.94 0 0 0-2.94-2v216.25l105.66 105.65a10 10 0 0 0 2.94 2V108.59z" fill="#00ae4d"/></symbol><use href="#nw-logo"/></svg><svg width="127" height="29" viewBox="-361.3 271.3 128.3 18.5" xmlns="http://www.w3.org/2000/svg"><path d="M-233.4 279.6h-2.7v5c0 .6.1 1.1.4 1.4.2.3.7.5 1.3.5.2 0 .4 0 .7-.1h.1c.2 0 .4.1.5.4v2.4c0 .2-.1.3-.3.4-.2.1-.5.1-.8.2-.5.1-.9.1-1.4.1-.9 0-1.6-.1-2.2-.3-.6-.2-1.1-.5-1.4-.9-.4-.4-.6-.9-.8-1.5-.2-.6-.2-1.2-.2-1.9v-11.7c0-.2.2-.4.4-.4h3c.3 0 .5.2.5.5l.3 3h2.7c.2 0 .4.2.4.4v2.4c-.1 0-.3.1-.5.1zm-17.7 4.4c0 .4.1.7.3 1 .2.3.4.6.7.8.3.2.6.4 1 .5.4.1.7.2 1.1.2.7 0 1.3-.1 1.7-.4l.9-.6c.2-.2.4-.2.6 0l1.8 1.9c.2.2.2.5 0 .6-.5.4-1 .8-1.6 1.1-1 .5-2.2.7-3.5.7-1 0-1.9-.2-2.8-.5-.9-.3-1.6-.7-2.3-1.3-.7-.6-1.2-1.3-1.5-2.1-.4-.9-.6-1.8-.6-2.9 0-1.1.2-2 .5-2.9.4-.9.9-1.6 1.5-2.2.6-.6 1.4-1.1 2.2-1.4.9-.3 1.8-.5 2.8-.5 1 0 1.8.2 2.6.5s1.5.8 2.1 1.4c.6.6 1 1.3 1.3 2.2.3.9.5 1.9.5 3v1h-9.3v-.1zm4.9-4.4c-.4-.5-1.1-.7-1.9-.7-.4 0-.8.1-1.1.2-.3.1-.7.3-.9.5-.3.2-.5.5-.6.8-.2.3-.2.6-.3 1h5.5c-.1-.7-.3-1.3-.7-1.8zm-10.9 9.7h-3.6c-.2 0-.4-.2-.4-.4v-17.3c0-.2.2-.4.4-.4h3.6c.2 0 .4.2.4.4v17.3c-.1.2-.2.4-.4.4zm-7.2 0h-3.6c-.2 0-.4-.2-.4-.4v-17.3c0-.2.2-.4.4-.4h3.6c.2 0 .4.2.4.4v17.3c0 .2-.2.4-.4.4zm-7.1 0h-2.6c-.2 0-.4-.1-.5-.4l-.3-1c-.4.4-1 .8-1.7 1.1-.6.3-1.3.5-2.1.5h-.7c-1 0-1.8-.2-2.6-.6-.8-.4-1.4-.9-1.9-1.5s-.9-1.4-1.2-2.2c-.3-.8-.4-1.7-.4-2.6 0-.9.1-1.8.4-2.6.3-.8.7-1.5 1.2-2.2.5-.6 1.2-1.1 1.9-1.5.8-.4 1.6-.5 2.5-.5 1.1 0 2 .2 2.7.5.6.3 1 .6 1.4.9l.3-1.2c.1-.2.3-.4.5-.4h3c.2 0 .4.2.4.4v12.7c.1.4-.1.6-.3.6zm-3.9-7.7c-.1-.4-.4-.8-.6-1.1-.3-.3-.6-.6-1-.8-.4-.2-.8-.3-1.3-.3s-.9.1-1.3.3c-.4.2-.7.4-1 .7-.3.3-.5.7-.6 1.1-.1.4-.2.8-.2 1.2 0 .4.1.8.2 1.2.1.4.3.8.6 1.1.3.3.6.6 1 .8.4.2.8.3 1.3.3s.9-.1 1.3-.3c.4-.2.7-.4 1-.8.3-.3.5-.7.6-1.1.1-.4.2-.8.2-1.2 0-.3-.1-.7-.2-1.1zm-14.4 7.4c-.1.2-.2.3-.4.3h-3.8c-.2 0-.3-.1-.4-.3l-2.5-7.8h-.1l-2.4 7.8c0 .2-.2.3-.4.3h-3.8c-.2 0-.3-.1-.4-.3l-4.2-12.2c-.1-.2.1-.5.4-.5h3.8c.2 0 .3.1.4.3l2.2 7.9h.1l2.2-7.9c0-.2.2-.3.4-.3h3.7c.2 0 .3.1.4.3l2.3 7.9h.1l2.2-7.9c0-.2.2-.3.4-.3h3.6c.3 0 .4.3.4.5l-4.2 12.2zm-19.5.3h-2.6c-.2 0-.4-.1-.5-.4l-.3-.8c-.4.4-.9.7-1.5 1-.7.4-1.6.5-2.6.6h-.3c-1 0-1.8-.2-2.6-.6-.8-.4-1.4-.9-1.9-1.5s-.9-1.4-1.2-2.2c-.3-.8-.4-1.7-.4-2.6 0-.9.1-1.8.4-2.6.3-.8.7-1.5 1.2-2.2.5-.6 1.2-1.1 1.9-1.5.8-.4 1.6-.5 2.5-.5 1 0 1.8.2 2.4.5.7.4 1.2.8 1.5 1.2h.1v-6.1c0-.2.2-.4.4-.4h3.5c.2 0 .4.2.4.4v17.3c-.1.2-.2.4-.4.4zm-4-7.7c-.1-.4-.4-.8-.6-1.1-.3-.3-.6-.6-1-.8-.4-.2-.8-.3-1.3-.3s-.9.1-1.3.3c-.4.2-.7.4-1 .7-.3.3-.5.7-.6 1.1-.1.4-.2.8-.2 1.2 0 .4.1.8.2 1.2.1.4.3.8.6 1.1.3.3.6.6 1 .8.4.2.8.3 1.3.3s.9-.1 1.3-.3c.4-.2.7-.4 1-.8.3-.3.5-.7.6-1.1.1-.4.2-.8.2-1.2 0-.3 0-.7-.2-1.1zm-10.2-5.2l-.1 3c0 .2-.2.4-.4.3h-.7c-.6 0-1.1.1-1.4.3-.4.2-.7.5-.9.8-.2.3-.4.6-.5 1-.1.3-.2.6-.2.9v6.3c0 .2-.2.4-.4.4h-3.5c-.2 0-.4-.2-.4-.4v-12.2c0-.2.2-.4.4-.4h2.8c.2 0 .4.2.5.4l.3.9a5 5 0 0 1 1.6-1.1c.2-.1.4-.2.6-.2.5-.2 1-.3 1.5-.3h.6c.1-.1.2.1.2.3zm-19.5 7.6c0 .4.1.7.3 1 .2.3.4.6.7.8.3.2.6.4 1 .5.4.1.7.2 1.1.2.7 0 1.3-.1 1.7-.4l.9-.6c.2-.2.4-.2.6 0l1.8 1.9c.2.2.2.5 0 .6-.5.4-1 .8-1.6 1.1-1 .5-2.2.7-3.5.7-1 0-1.9-.2-2.8-.5-.9-.3-1.6-.7-2.3-1.3-.7-.6-1.2-1.3-1.5-2.1-.4-.9-.6-1.8-.6-2.9 0-1.1.2-2 .5-2.9.4-.9.9-1.6 1.5-2.2.6-.6 1.4-1.1 2.2-1.4.9-.3 1.8-.5 2.8-.5 1 0 1.8.2 2.6.5s1.5.8 2.1 1.4c.6.6 1 1.3 1.3 2.2.3.9.5 1.9.5 3v1h-9.3v-.1zm4.8-4.4c-.4-.5-1.1-.7-1.9-.7-.4 0-.8.1-1.1.2-.3.1-.7.3-.9.5-.3.2-.5.5-.6.8-.2.3-.2.6-.3 1h5.5c0-.7-.2-1.3-.7-1.8zm-10.7 9.7h-3.6c-.2 0-.4-.2-.4-.4v-6.7c0-.4 0-.7-.1-1l-.3-.9c-.1-.3-.3-.5-.6-.6-.3-.1-.6-.2-1-.2s-.7.1-1 .2c-.3.1-.5.4-.7.6-.2.3-.3.6-.4.9-.1.3-.1.7-.1 1.1v6.7c0 .2-.2.4-.4.4h-3.6c-.2 0-.4-.2-.4-.4v-12.2c0-.2.2-.4.4-.4h2.8c.2 0 .4.1.5.4l.3.8c.4-.4.9-.7 1.5-1 .7-.3 1.5-.5 2.5-.5h.1c.8 0 1.6.2 2.1.5.6.3 1.1.7 1.5 1.2.4.5.6 1.1.8 1.7.2.6.2 1.3.2 1.9v7.6c.2.1.1.3-.1.3z" fill="#8DC63F"/></svg>
