<svg xmlns="http://www.w3.org/2000/svg" preserveAspectRatio="xMidYMid" viewBox="0 0 827 134" width="827" heigth="134"><defs><style>.cls-1{fill:#8dc63f;fill-rule:evenodd}</style></defs><path d="M825.12 62.641h-13.502v25.016c0 3.072.592 5.375 1.776 6.911 1.183 1.538 3.309 2.305 6.377 2.305a22.809 22.809 0 0 0 4.085-.387c1.162-.223 2.251.62 2.271 1.8l.198 11.87a1.87 1.87 0 0 1-1.351 1.839c-1.226.348-2.654.663-4.281.944-2.282.393-4.56.59-6.84.59-4.386 0-8.068-.55-11.048-1.644-2.979-1.093-5.37-2.671-7.165-4.734-1.799-2.059-3.091-4.514-3.881-7.362-.79-2.849-1.182-6.028-1.182-9.533V62.641l-.133-16.001V31.339c0-1.039.844-1.88 1.885-1.88l15.035.003a2.579 2.579 0 0 1 2.564 2.285l1.69 14.893h13.502c1.041 0 1.885.842 1.885 1.881v12.24c0 1.038-.844 1.88-1.885 1.88zM735.945 84.57c.176 1.836.725 3.498 1.645 4.983a14.15 14.15 0 0 0 3.551 3.869 17.16 17.16 0 0 0 4.866 2.558 17.22 17.22 0 0 0 5.59.918c3.418 0 6.311-.633 8.679-1.902 1.678-.898 3.135-1.983 4.372-3.255.842-.865 2.248-.828 3.1.026l9.316 9.336a2.205 2.205 0 0 1-.031 3.149c-2.346 2.239-5.061 4.094-8.144 5.564-5.041 2.405-10.892 3.607-17.555 3.607-4.911 0-9.558-.766-13.941-2.295-4.386-1.529-8.221-3.758-11.507-6.689-3.287-2.929-5.874-6.535-7.76-10.82-1.885-4.282-2.827-9.18-2.827-14.689 0-5.332.919-10.164 2.762-14.493 1.84-4.328 4.338-8 7.495-11.017 3.157-3.016 6.882-5.354 11.179-7.016 4.296-1.66 8.944-2.492 13.941-2.492 4.82 0 9.249.809 13.283 2.426 4.03 1.62 7.495 3.958 10.389 7.017 2.894 3.062 5.148 6.776 6.773 11.148 1.621 4.373 2.432 9.357 2.432 14.952v2.622c0 .876-.045 1.705-.13 2.493h-47.478zm24.528-22.166c-2.149-2.446-5.371-3.672-9.666-3.672-2.104 0-4.033.328-5.787.984-1.754.655-3.286 1.553-4.602 2.688a13.363 13.363 0 0 0-3.157 4c-.788 1.531-1.229 3.128-1.316 4.787h27.751c0-3.409-1.075-6.338-3.223-8.787zm-55.231 48.921h-18.193a1.883 1.883 0 0 1-1.885-1.88V22.35c0-1.039.845-1.88 1.885-1.88h18.193c1.041 0 1.885.841 1.885 1.88v87.095c0 1.038-.844 1.88-1.885 1.88zm-36.025 0h-18.192a1.883 1.883 0 0 1-1.885-1.88V22.35c0-1.039.844-1.88 1.885-1.88h18.192c1.041 0 1.885.841 1.885 1.88v87.095c0 1.038-.844 1.88-1.885 1.88zm-35.805 0-13.324-.002a2.58 2.58 0 0 1-2.455-1.779l-1.632-5.018c-2.081 2.066-4.88 3.98-8.414 5.737-2.982 1.483-6.488 2.384-10.504 2.716-1.099.12-2.213.182-3.344.182-4.911 0-9.293-.963-13.152-2.885-3.858-1.922-7.123-4.48-9.796-7.673-2.677-3.191-4.714-6.886-6.117-11.082-1.403-4.197-2.104-8.568-2.104-13.115 0-4.546.724-8.897 2.171-13.051 1.447-4.151 3.505-7.804 6.181-10.951 2.672-3.148 5.918-5.639 9.73-7.476 3.816-1.836 8.091-2.754 12.824-2.754h.005c5.343 0 9.861.918 13.554 2.754 2.875 1.43 5.242 2.968 7.116 4.61l1.756-5.92a2.582 2.582 0 0 1 2.476-1.844l15.029.003c1.041 0 1.885.842 1.885 1.88v63.788c0 1.038-.844 1.88-1.885 1.88zm-19.879-38.953a17.493 17.493 0 0 0-3.157-5.377c-1.362-1.574-3.006-2.84-4.932-3.804-1.93-.961-4.121-1.442-6.575-1.442-2.545 0-4.782.481-6.708 1.442-1.931.964-3.552 2.209-4.866 3.738-1.315 1.531-2.302 3.302-2.961 5.312a19.817 19.817 0 0 0-.984 6.165c0 2.098.33 4.176.984 6.229.659 2.055 1.646 3.869 2.961 5.443 1.314 1.574 2.935 2.842 4.866 3.803 1.926.964 4.163 1.443 6.708 1.443 2.454 0 4.645-.479 6.575-1.443 1.926-.961 3.57-2.229 4.932-3.803a17.47 17.47 0 0 0 3.157-5.377 17.638 17.638 0 0 0 1.118-6.164c0-2.099-.374-4.153-1.118-6.165zm-72.556 37.69a1.886 1.886 0 0 1-1.781 1.263h-18.977c-.823 0-1.55-.531-1.798-1.314L505.95 70.667h-.263l-12.215 39.334a1.886 1.886 0 0 1-1.801 1.324h-18.967a1.885 1.885 0 0 1-1.781-1.266l-21.318-61.555a1.881 1.881 0 0 1 1.782-2.494h19.192c.85 0 1.595.568 1.818 1.385l10.932 39.929h.394l11.317-39.945c.229-.81.97-1.369 1.814-1.369h18.86c.838 0 1.575.552 1.809 1.353l11.703 39.961h.263l11.06-39.934a1.885 1.885 0 0 1 1.817-1.38h18.271a1.881 1.881 0 0 1 1.781 2.497l-21.441 61.555zm-98.421 1.263h-13.324a2.58 2.58 0 0 1-2.455-1.78l-1.392-4.281c-1.985 1.784-4.522 3.453-7.631 4.999-3.61 1.795-7.986 2.736-13.108 2.846a31.22 31.22 0 0 1-1.763.052c-4.911 0-9.294-.963-13.152-2.885s-7.123-4.48-9.797-7.673c-2.675-3.191-4.713-6.886-6.116-11.082-1.402-4.197-2.104-8.568-2.104-13.115 0-4.546.723-8.897 2.171-13.051 1.447-4.151 3.505-7.804 6.181-10.951 2.672-3.148 5.918-5.639 9.73-7.476 3.816-1.836 8.091-2.754 12.824-2.754 4.821 0 8.898.918 12.231 2.754 3.331 1.837 5.917 3.848 7.759 6.034h.263V22.35c0-1.039.844-1.88 1.885-1.88h17.798c1.041 0 1.885.841 1.885 1.88v87.095c0 1.038-.844 1.88-1.885 1.88zm-19.879-38.953a17.493 17.493 0 0 0-3.157-5.377c-1.363-1.574-3.006-2.84-4.932-3.804-1.93-.961-4.121-1.442-6.575-1.442-2.545 0-4.782.481-6.709 1.442-1.93.964-3.551 2.209-4.865 3.738-1.315 1.531-2.302 3.302-2.96 5.312a19.76 19.76 0 0 0-.985 6.165c0 2.098.329 4.176.985 6.229.658 2.055 1.645 3.869 2.96 5.443 1.314 1.574 2.935 2.842 4.865 3.803 1.927.964 4.164 1.443 6.709 1.443 2.454 0 4.645-.479 6.575-1.443a15.746 15.746 0 0 0 4.932-3.803 17.47 17.47 0 0 0 3.157-5.377 17.637 17.637 0 0 0 1.117-6.164c0-2.099-.373-4.153-1.117-6.165zm-51.604-25.94-.723 15.179a1.884 1.884 0 0 1-2.06 1.688l-.867-.108a29.02 29.02 0 0 0-2.696-.131c-2.894 0-5.326.525-7.299 1.57-1.972 1.047-3.551 2.311-4.733 3.793-1.185 1.484-2.04 3.097-2.565 4.841-.526 1.743-.791 3.268-.791 4.576v31.605c0 1.038-.844 1.88-1.885 1.88h-17.797a1.883 1.883 0 0 1-1.886-1.88V47.968c0-1.039.844-1.88 1.886-1.88l14.249.002a2.58 2.58 0 0 1 2.482 1.868l1.322 4.628c2.013-2.039 4.749-3.927 8.227-5.658a22.89 22.89 0 0 1 2.836-1.171c2.36-1.047 4.955-1.583 7.795-1.583.446 0 .886.012 1.321.035a44.144 44.144 0 0 1 1.602-.035l-.245.153.158.031a1.882 1.882 0 0 1 1.669 2.074zM272.631 84.57c.176 1.836.726 3.498 1.646 4.983a14.104 14.104 0 0 0 3.551 3.869 17.127 17.127 0 0 0 4.865 2.558 17.22 17.22 0 0 0 5.59.918c3.418 0 6.311-.633 8.679-1.902 1.678-.898 3.134-1.983 4.372-3.255.841-.865 2.248-.828 3.1.026l9.316 9.336a2.204 2.204 0 0 1-.032 3.149c-2.345 2.239-5.06 4.094-8.143 5.564-5.041 2.405-10.893 3.607-17.555 3.607-4.911 0-9.558-.766-13.942-2.295-4.386-1.529-8.22-3.758-11.507-6.689-3.286-2.929-5.873-6.535-7.759-10.82-1.886-4.282-2.828-9.18-2.828-14.689 0-5.332.92-10.164 2.764-14.493 1.839-4.328 4.337-8 7.494-11.017 3.157-3.016 6.882-5.354 11.179-7.016 4.295-1.66 8.944-2.492 13.94-2.492 4.821 0 9.25.809 13.284 2.426 4.03 1.62 7.494 3.958 10.389 7.017 2.894 3.062 5.148 6.776 6.773 11.148 1.621 4.373 2.432 9.357 2.432 14.952v2.622c0 .876-.045 1.705-.13 2.493h-47.478zm24.527-22.166c-2.148-2.446-5.37-3.672-9.665-3.672-2.104 0-4.032.328-5.787.984-1.754.655-3.286 1.553-4.602 2.688a13.347 13.347 0 0 0-3.157 4c-.789 1.531-1.229 3.128-1.316 4.787h27.751c0-3.409-1.075-6.338-3.224-8.787zm-54.25 48.921h-17.929a1.883 1.883 0 0 1-1.885-1.88V75.651a28.86 28.86 0 0 0-.461-5.247c-.307-1.659-.811-3.124-1.512-4.393a7.886 7.886 0 0 0-2.959-3.017c-1.273-.741-2.872-1.114-4.8-1.114-1.929 0-3.616.373-5.064 1.114a10.226 10.226 0 0 0-3.616 3.083c-.966 1.311-1.689 2.82-2.17 4.525a19.384 19.384 0 0 0-.724 5.311v33.531a1.883 1.883 0 0 1-1.885 1.881h-17.929a1.883 1.883 0 0 1-1.885-1.88V47.89c0-1.038.844-1.88 1.885-1.88l14.351.001a2.58 2.58 0 0 1 2.47 1.824l1.27 4.163c1.946-1.816 4.485-3.507 7.627-5.07 3.44-1.71 7.604-2.613 12.474-2.73.231-.007.458-.024.692-.024.064 0 .125.004.189.005.068-.001.131-.005.199-.005l-.014.009c4.22.044 7.822.824 10.805 2.352 3.068 1.574 5.545 3.607 7.43 6.098 1.884 2.492 3.243 5.358 4.077 8.591a38.802 38.802 0 0 1 1.249 9.706v38.515c0 1.038-.844 1.88-1.885 1.88zM131.42 134l-40.128.001c-.499 0-.988-.094-1.446-.265l44.522-44.403.001 41.727a2.945 2.945 0 0 1-2.949 2.94zM89.579 44.665V2.932a2.945 2.945 0 0 1 2.949-2.936h38.892a2.945 2.945 0 0 1 2.949 2.94v41.729l-.001 44.668-44.789-44.668zm0-.002v.001-.001zM44.79 89.334.863 133.14A2.929 2.929 0 0 1 0 131.06V44.665L44.523.261c.091.034.178.075.267.115v88.956h.005l-.005.001v.001z" class="cls-1"/><path d="M89.579 133.63a4.137 4.137 0 0 1-1.211-.833L44.79 89.338v-.001h-.001l-.012-.001H44.79V.38a4.13 4.13 0 0 1 1.211.827l43.578 43.461v-.001 88.963zm-47.738.374-38.892.001a2.946 2.946 0 0 1-2.086-.861L44.79 89.338l-.001 41.726c0 1.624-1.32 2.94-2.948 2.94zM0 2.944C0 1.32 1.32.004 2.949.004h40.128c.499 0 .987.094 1.446.265L0 44.673V2.944z" style="fill:#00ae4d;fill-rule:evenodd"/><path d="M89.846 133.74a4.822 4.822 0 0 1-.267-.11V44.669l44.789 44.668-44.522 44.403zm-.267-89.073v.001-.001z" style="fill:#00682c;fill-rule:evenodd"/></svg>
