<svg xmlns="http://www.w3.org/2000/svg" width="1284.52" height="271.97" viewBox="0 0 1284.52 271.97">
  <path fill="#00AB55" d="m549.08,106.37l-18.25,18.25v-18.25h-14.76v145.57h15.17v-58.23l16.81,14.76h39.37l18.86-18.86v-64.38l-18.86-18.86h-38.34Zm42.03,78.53l-10.25,10.05h-29.94l-19.68-17.84v-35.27l21.94-21.94h27.68l10.25,10.05v54.95Z"></path>
  <rect fill="#00AB55" x="636.01" y="62.08" width="15.17" height="146.39"></rect>
  <path fill="#00AB55" d="m699.57,106.37l-18.86,18.86v12.71h15.17v-8.41l10.25-10.05h34.86l10.25,10.05v19.48h-54.54l-16.81,16.61v26.04l16.81,16.81h36.09l18.86-18.04v18.04h14.56v-83.24l-18.86-18.86h-47.77Zm51.67,68.28l-21.53,20.71h-26.45l-8.2-8v-17.22l8.2-8h47.98v12.51Z"></path>
  <polygon fill="#00AB55" points="818.28 73.15 803.52 73.15 803.52 106.37 784.65 106.37 784.65 119.69 803.11 119.69 803.11 189.61 821.97 208.47 850.27 208.47 850.27 195.14 828.53 195.14 818.28 184.89 818.28 119.69 850.27 119.69 850.27 106.37 818.28 106.37 818.28 73.15"></polygon>
  <polygon fill="#00AB55" points="883.07 83.61 883.07 106.37 864.62 106.37 864.62 119.69 883.07 119.69 883.07 208.47 898.24 208.47 898.24 119.69 930.43 119.69 930.43 106.37 898.24 106.37 898.24 87.91 907.47 78.89 930.43 78.89 930.43 65.77 900.91 65.77 883.07 83.61"></polygon>
  <path fill="#00AB55" d="m963.65,106.37l-18.86,18.86v64.38l18.86,18.86h52.49l18.86-18.86v-64.38l-18.86-18.86h-52.49Zm56.18,78.53l-10.25,10.05h-39.37l-10.25-10.05v-54.95l10.25-10.05h39.37l10.25,10.05v54.95Z"></path>
  <polygon fill="#00AB55" points="1078.46 124.61 1078.46 106.37 1063.7 106.37 1063.7 208.47 1078.87 208.47 1078.87 141.63 1100.61 119.9 1123.16 119.9 1123.16 106.37 1096.71 106.37 1078.46 124.61"></polygon>
  <polygon fill="#00AB55" points="1265.66 106.37 1233.47 106.37 1217.48 122.36 1201.48 106.37 1177.08 106.37 1157.4 126.05 1157.4 106.37 1142.64 106.37 1142.64 208.47 1157.81 208.47 1157.81 142.04 1179.95 119.9 1197.18 119.9 1207.43 129.94 1207.43 208.47 1222.19 208.47 1222.19 134.25 1236.54 119.9 1259.1 119.9 1269.35 129.94 1269.35 208.47 1284.52 208.47 1284.52 125.23 1265.66 106.37"></polygon>
  <path fill="#00AB55" d="m526.22,0l-90.11,163.23v-.08c-10.05,1.85-12.51-.82-12.51-21.94V58.36l-46.34-.2v113.2c0,18.04,5.95,36.29,33.01,36.29h1.32l-35.52,64.33h30.26L556.48,0h-30.26Z"></path>
  <path fill="#00AB55" d="m110.74,89.95s-.02,0-.03,0h-25.41c-28.46,0-39.08,19.1-41.85,25.53-.17.4-.76.26-.75-.17l.5-24.1c0-.22-.17-.4-.4-.4l-42.42.16c-.22,0-.39.18-.39.39v115.89c0,.22.18.39.39.39h42.89c.22,0,.39-.18.39-.39v-59.68c0-14.21,19.88-12.94,20.29-12.92,0,0,.01,0,.02,0h23.36c18.04,0,17.84,13.94,17.84,13.94v58.66c0,.22.18.39.39.39h41.25c.22,0,.39-.18.39-.39v-88.39c0-24.19-23.97-28.09-36.48-28.91Z"></path>
  <path fill="#00AB55" d="m259.35,150.81c0,14.35-20.3,12.92-20.3,12.92h-23.38c-18.04,0-17.84-13.94-17.84-13.94v-59.05h-42.03v88.78c0,24.2,23.99,28.09,36.5,28.91h25.43c28.46,0,39.08-19.1,41.85-25.53.17-.4.76-.26.75.17l.06,24.2,42.64.14v-116.67h-43.68v60.08Z"></path>
  <path fill="#00AB55" d="m357.78,141.2V58.36l-46.34-.2v113.2c0,18.04,5.95,36.29,33.01,36.29h25.84v-44.49c-10.05,1.85-12.51-.82-12.51-21.94Z"></path>
</svg>