<?xml version="1.0" encoding="UTF-8"?>
<svg id="katman_1" data-name="katman 1" xmlns="http://www.w3.org/2000/svg" version="1.1" xmlns:xlink="http://www.w3.org/1999/xlink" viewBox="0 0 287.2 102.2">
  <defs>
    <style>
      .cls-1 {
        fill: #d9d6d4;
      }

      .cls-1, .cls-2, .cls-3, .cls-4, .cls-5, .cls-6, .cls-7, .cls-8, .cls-9, .cls-10, .cls-11, .cls-12 {
        stroke-width: 0px;
      }

      .cls-2 {
        fill: #bb1c1e;
      }

      .cls-3 {
        fill: none;
      }

      .cls-4 {
        fill: #ba1c1e;
      }

      .cls-5 {
        fill: #b81d1f;
      }

      .cls-6 {
        fill: #b91c1f;
      }

      .cls-13 {
        clip-path: url(#clippath);
      }

      .cls-7 {
        fill: #c6c6c5;
      }

      .cls-8 {
        fill: #fff;
      }

      .cls-9 {
        fill: #c51a1d;
      }

      .cls-10 {
        fill: #bd1c1e;
      }

      .cls-11 {
        fill: #bc1c1e;
      }

      .cls-12 {
        fill: #383836;
      }
    </style>
    <clipPath id="clippath">
      <path class="cls-3" d="M36,62.6c-2.1-2.9-3.3-6.5-3.3-10.4s0-.6,0-.9l-6.7-23.6c-1.6,1.7-3.1,3.5-4.4,5.5-1.1,21.6,14.3,29.4,14.3,29.4h0Z"/>
    </clipPath>
  </defs>
  <circle class="cls-9" cx="51.1" cy="51.1" r="51.1"/>
  <g>
    <g class="cls-13">
      <g>
        <polygon class="cls-10" points="36 32.2 20.6 32.4 20.6 27.7 36 27.7 36 32.2"/>
        <polygon class="cls-11" points="36 38.5 20.6 38.8 20.6 32.4 36 32.2 36 38.5"/>
        <polygon class="cls-2" points="36 45 20.6 45.1 20.6 38.8 36 38.5 36 45"/>
        <polygon class="cls-4" points="36 51.3 20.6 51.5 20.6 45.1 36 45 36 51.3"/>
        <polygon class="cls-6" points="36 57.7 20.6 57.9 20.6 51.5 36 51.3 36 57.7"/>
        <polygon class="cls-5" points="20.6 57.9 36 57.7 36 62.6 20.6 62.6 20.6 57.9"/>
      </g>
    </g>
    <path class="cls-8" d="M80.3,32.8c1.2,20-11.8,28.3-14,29.6v.2h0v-.2l-15-16.5-15.1,16.7s-15.4-7.9-14.3-29.4c-3.6,5.5-5.6,12-5.6,19s3.3,16.7,8.6,22.9c3.2,3.6,7.1,6.7,11.6,8.8l12.3-13.6,2.5-2.8,2.5,2.8,12.3,13.6c4.4-2.1,8.4-5.1,11.6-8.8,5.3-6.1,8.6-14.1,8.6-22.9s-2.1-13.8-5.8-19.4h-.2Z"/>
    <path class="cls-7" d="M24.1,29.9c-.9,1-1.7,2.1-2.4,3.3-1.1,21.6,14.3,29.4,14.3,29.4-.9-1.2-1.5-2.5-2.1-4-3.9-4-11.7-14-9.8-28.7h0Z"/>
    <path class="cls-7" d="M80.3,32.8c-.6-.9-1.2-1.7-1.8-2.5,1.7,15.2-6.9,25.4-10.5,28.9-.5,1.2-1.1,2.3-1.8,3.3,2.1-1.3,15.2-9.7,14.1-29.8h0Z"/>
    <path class="cls-1" d="M78.5,30.4c-.8-1-1.6-1.9-2.5-2.8-6.3-6.4-15.2-10.4-24.9-10.4s-18.7,4-25.1,10.6c-.6.7-1.3,1.4-1.9,2.1-1.9,14.7,6,24.8,9.8,28.7-.8-2-1.2-4.2-1.2-6.4s0-.6,0-.9c.5-9.8,8.5-17.5,18.3-17.5s17.5,7.5,18.2,16.9v1.4c0,2.5-.6,4.8-1.4,7.1,3.6-3.5,12.2-13.7,10.5-28.9,0,0,0,0,0,0Z"/>
  </g>
  <g>
    <path class="cls-12" d="M121.2,50.8c0-16.5,13.4-29.4,29.4-29.4s29.4,13.4,29.4,29.4-13.4,29.4-29.4,29.4-29.4-13.4-29.4-29.4ZM170.3,50.8c0-10.8-8.7-19.7-19.7-19.7s-19.7,8.7-19.7,19.7,8.7,19.7,19.7,19.7,19.7-8.7,19.7-19.7Z"/>
    <path class="cls-12" d="M198,62.8v16.6h-9.6v-37.5h9.6v5.2c2.2-3.8,5.4-6,10.2-6s.9,0,1.3,0v9.4c-5.7-1.1-11.4,1.2-11.4,12.1h0Z"/>
    <path class="cls-12" d="M255.2,80.8l-11.9-26.3-12,26.3-17.9-39h10.5l8.1,19.5,7.5-19.5h7.4l7.5,19.5,8.1-19.5h10.5l-17.9,39h0Z"/>
    <path class="cls-12" d="M277.4,29.2c0-2.8,2.3-5.1,5.2-5.1s5.1,2.3,5.1,5.1-2.3,5.2-5.1,5.2-5.2-2.3-5.2-5.2ZM277.6,41.9h9.5v37.5h-9.5v-37.5Z"/>
  </g>
</svg>