<?xml version="1.0" encoding="UTF-8"?>
<svg id="katman_1" data-name="katman 1" xmlns="http://www.w3.org/2000/svg" xmlns:xlink="http://www.w3.org/1999/xlink" viewBox="0 0 400 400">
  <defs>
    <style>
      .cls-1 {
        fill: #d9d6d4;
      }

      .cls-1, .cls-2, .cls-3, .cls-4, .cls-5, .cls-6, .cls-7, .cls-8, .cls-9, .cls-10, .cls-11, .cls-12 {
        stroke-width: 0px;
      }

      .cls-2 {
        fill: #bb1c1e;
      }

      .cls-3 {
        fill: none;
      }

      .cls-4 {
        fill: #ba1c1e;
      }

      .cls-5 {
        fill: #b81d1f;
      }

      .cls-6 {
        fill: #b91c1f;
      }

      .cls-13 {
        clip-path: url(#clippath);
      }

      .cls-7 {
        fill: #c6c6c5;
      }

      .cls-8 {
        fill: #fff;
      }

      .cls-9 {
        fill: #c51a1d;
      }

      .cls-10 {
        fill: #bd1c1e;
      }

      .cls-11 {
        fill: #bc1c1e;
      }

      .cls-12 {
        fill: #383836;
      }
    </style>
    <clipPath id="clippath">
      <path class="cls-3" d="M64.2,214.48c-2.57-3.73-4.08-8.24-4.08-13.11,0-.36.01-.73.03-1.09l-8.48-29.73c-2.04,2.09-3.88,4.39-5.48,6.85-1.39,27.2,18.01,37.07,18.01,37.07Z"/>
    </clipPath>
  </defs>
  <circle class="cls-9" cx="83.24" cy="200" r="64.44"/>
  <g>
    <g class="cls-13">
      <polygon class="cls-10" points="64.2 176.15 44.8 176.37 44.8 170.56 64.2 170.56 64.2 176.15"/>
      <polygon class="cls-11" points="64.2 184.19 44.8 184.41 44.8 176.37 64.2 176.15 64.2 184.19"/>
      <polygon class="cls-2" points="64.2 192.23 44.8 192.45 44.8 184.41 64.2 184.19 64.2 192.23"/>
      <polygon class="cls-4" points="64.2 200.27 44.8 200.49 44.8 192.45 64.2 192.23 64.2 200.27"/>
      <polygon class="cls-6" points="64.2 208.31 44.8 208.53 44.8 200.49 64.2 200.27 64.2 208.31"/>
      <polygon class="cls-5" points="44.8 208.53 64.2 208.31 64.2 214.48 44.8 214.48 44.8 208.53"/>
    </g>
    <path class="cls-8" d="M120.02,177.01c1.47,25.23-14.89,35.7-17.61,37.26-.05.07-.09.14-.14.21l-.08-.09-.11-.12-18.85-20.76-19.03,20.96s-19.41-9.87-18.01-37.07c-4.47,6.9-7.07,15.13-7.07,23.96,0,11.04,4.06,21.14,10.76,28.88,4.03,4.65,9.01,8.44,14.64,11.08l15.5-17.07,3.22-3.54,3.22,3.54,15.5,17.07c5.63-2.64,10.61-6.43,14.64-11.08,6.71-7.74,10.76-17.83,10.76-28.88,0-9.01-2.7-17.38-7.33-24.36Z"/>
    <path class="cls-7" d="M49.24,173.28c-1.09,1.32-2.11,2.69-3.05,4.13-1.39,27.2,18.01,37.07,18.01,37.07-1.06-1.53-1.93-3.2-2.6-4.97-4.89-5.04-14.75-17.74-12.37-36.23Z"/>
    <path class="cls-7" d="M120.02,177.01c-.73-1.09-1.5-2.15-2.32-3.17,2.22,19.13-8.65,31.96-13.16,36.39-.63,1.51-1.39,2.94-2.27,4.25,2.72-1.56,19.22-12.24,17.75-37.47Z"/>
    <path class="cls-1" d="M117.7,173.84c-.97-1.21-1.99-2.38-3.08-3.48-8-8.09-19.1-13.11-31.38-13.11s-23.56,5.1-31.57,13.3c-.85.87-1.66,1.79-2.43,2.73-2.38,18.48,7.48,31.19,12.37,36.23-.95-2.53-1.48-5.27-1.48-8.14,0-.36.01-.73.03-1.09.57-12.26,10.69-22.02,23.09-22.02s22.13,9.4,23.04,21.34c.04.59.07,1.18.07,1.78,0,3.08-.67,6.11-1.8,8.86,4.51-4.42,15.38-17.26,13.16-36.39Z"/>
  </g>
  <g>
    <path class="cls-12" d="M171.52,199.53c0-20.81,16.87-37.02,37.02-37.02s37.03,16.87,37.03,37.02-16.87,37.02-37.03,37.02-37.02-16.87-37.02-37.02ZM233.38,199.53c0-13.59-10.97-24.84-24.84-24.84s-24.84,10.97-24.84,24.84,10.97,24.84,24.84,24.84,24.84-10.97,24.84-24.84Z"/>
    <path class="cls-12" d="M268.25,214.72v20.9h-12.09v-47.24h12.09v6.65c2.81-4.78,6.75-7.59,12.75-7.59.56,0,1.12,0,1.69.09v11.91c-7.22-1.41-14.43,1.5-14.43,15.28Z"/>
    <path class="cls-12" d="M340.43,237.49l-15-33.18-15.09,33.18-22.5-49.11h13.22l10.22,24.65,9.47-24.65h9.28l9.47,24.65,10.22-24.65h13.22l-22.5,49.11Z"/>
    <path class="cls-12" d="M368.36,172.35c0-3.47,2.91-6.38,6.47-6.38s6.37,2.91,6.37,6.38-2.91,6.47-6.37,6.47-6.47-2.9-6.47-6.47ZM368.74,188.38h12v47.24h-12v-47.24Z"/>
  </g>
</svg>