<svg xmlns="http://www.w3.org/2000/svg" width="520" height="151" fill="none"><path fill="url(#a)" d="m132.958 119.997 8.894-94.257h32.702c6.63 0 12.255 1.12 16.877 3.362 4.622 2.24 8.03 5.672 10.224 10.294 2.241 4.575 3.034 10.364 2.381 17.366-.934 10.317-4.622 18.137-11.065 23.46-6.395 5.275-14.472 7.912-24.229 7.912h-11.834l-2.942 31.863h-21.008Zm25.98-52.17h11.695c3.548 0 6.349-1.098 8.403-3.292 2.054-2.24 3.175-4.832 3.361-7.773.327-2.94-.303-5.508-1.89-7.703-1.541-2.24-4.179-3.361-7.913-3.361h-11.625l-2.031 22.128Z"/><path fill="url(#b)" d="M220.598 42.477c-3.968 0-6.933-1.12-8.893-3.361-1.914-2.288-2.755-5.51-2.521-9.664.373-4.062 1.797-7.213 4.271-9.454 2.475-2.287 5.602-3.431 9.384-3.431 3.875 0 6.793 1.144 8.753 3.431 1.961 2.288 2.825 5.439 2.591 9.454-.373 4.108-1.774 7.306-4.201 9.593-2.428 2.288-5.556 3.432-9.384 3.432Zm-17.507 77.52 6.653-69.537h20.728l-6.653 69.537h-20.728Z"/><path fill="url(#c)" d="M262.008 122.447c-5.275 0-10.107-1.54-14.496-4.621-4.341-3.128-7.679-7.47-10.013-13.025-2.335-5.556-3.152-11.998-2.451-19.328.7-8.076 2.731-14.845 6.092-20.308 3.408-5.462 7.586-9.593 12.535-12.394 4.948-2.801 10.107-4.202 15.476-4.202 4.668 0 8.636.887 11.904 2.661 3.315 1.774 5.976 4.108 7.983 7.003a25.94 25.94 0 0 1 4.272 9.383c.84 3.408 1.12 6.723.84 9.944l-21.148-.21a13.984 13.984 0 0 0-1.33-5.322c-.794-1.68-2.358-2.52-4.692-2.52-1.494 0-3.035.466-4.622 1.4-1.587.933-2.988 2.567-4.201 4.902-1.168 2.287-1.961 5.508-2.381 9.663-.374 4.062-.21 7.236.49 9.524.747 2.287 1.797 3.898 3.151 4.832 1.354.933 2.731 1.4 4.132 1.4 3.034 0 5.088-.723 6.162-2.17 1.074-1.448 1.797-3.222 2.171-5.323h20.658a37.211 37.211 0 0 1-4.342 14.076c-2.381 4.342-5.742 7.866-10.084 10.574-4.341 2.708-9.71 4.061-16.106 4.061Z"/><path fill="url(#d)" d="m295.711 119.997 8.893-94.257h32.703c6.629 0 12.254 1.12 16.876 3.362 4.622 2.24 8.03 5.672 10.224 10.294 2.241 4.575 3.035 10.364 2.381 17.366-.934 10.317-4.622 18.137-11.064 23.46-6.396 5.275-14.473 7.912-24.23 7.912H319.66l-2.941 31.863h-21.008Zm25.98-52.17h11.694c3.548 0 6.349-1.098 8.403-3.292 2.054-2.24 3.175-4.832 3.362-7.773.326-2.94-.304-5.508-1.891-7.703-1.541-2.24-4.178-3.361-7.913-3.361h-11.625l-2.03 22.128Z"/><path fill="url(#e)" d="M388.953 122.447c-5.322 0-10.154-1.587-14.496-4.761-4.342-3.222-7.703-7.633-10.084-13.235-2.334-5.65-3.151-12.092-2.451-19.328.7-7.656 2.731-14.192 6.093-19.607 3.407-5.463 7.562-9.64 12.464-12.535 4.902-2.941 10.037-4.412 15.406-4.412 5.136 0 9.43 1.097 12.885 3.291 3.455 2.148 6.163 5.042 8.123 8.684 1.961 3.641 3.245 7.726 3.852 12.254.607 4.482.583 9.057-.07 13.726-.234.98-.467 1.82-.701 2.52-.186.7-.373 1.471-.56 2.312h-40.825l3.431-2.942c-.56 3.082-.607 5.79-.14 8.123.513 2.335 1.494 4.155 2.941 5.463 1.494 1.307 3.431 1.96 5.812 1.96a8.44 8.44 0 0 0 4.342-1.19c1.4-.84 2.451-2.148 3.151-3.922h20.728c-.98 4.295-2.871 8.24-5.672 11.835-2.755 3.548-6.209 6.396-10.364 8.543-4.108 2.148-8.73 3.221-13.865 3.221Zm-6.093-41.946-2.941-3.01h25.28l-3.432 3.01c.327-2.1.374-4.178.141-6.232-.187-2.1-.887-3.828-2.101-5.182-1.167-1.4-3.035-2.1-5.602-2.1-2.055 0-3.899.536-5.533 1.61-1.634 1.074-2.964 2.638-3.991 4.692-.98 2.007-1.587 4.411-1.821 7.212Z"/><path fill="url(#f)" d="m423.355 119.997 6.583-69.537h20.728l-1.261 14.285c2.475-5.182 5.369-9.033 8.684-11.554 3.314-2.568 6.19-3.572 9.411-3.572.747 0 4.986.654 5.5.84-.56-.093 2.5.043 0 0l-3.637 22.9a32.5 32.5 0 0 0-3.081-.14h-2.871c-2.801 0-5.369.56-7.703 1.68-2.288 1.074-4.202 2.895-5.742 5.462-1.541 2.521-2.521 5.953-2.941 10.294l-2.942 29.342h-20.728Z"/><path fill="url(#g)" d="M472.069 65.5 473 50.46l8.377.14.7-5.322c.514-5.556 1.891-10.037 4.132-13.445 2.287-3.408 5.042-5.906 8.263-7.493 3.268-1.587 6.629-2.381 10.084-2.381 2.427 0 4.972.163 7.633.49 2.708.327 5.228.677 7.563 1.05l-5.742 17.577a54.861 54.861 0 0 0-2.661-.63 12.245 12.245 0 0 0-2.661-.28c-.934 0-1.821.21-2.662.63-.84.374-1.54.957-2.1 1.75-.561.748-.934 1.705-1.121 2.872l-.42 5.182h10.014l-1.611 15.266h-10.014l-4.691 54.131h-21.148l5.111-54.131-7.977-.366Z"/><path fill="url(#h)" fill-rule="evenodd" d="M65.55.219a3.867 3.867 0 0 1 2.569 4.017l-5.35 55.923 53.233-9.186a3.867 3.867 0 0 1 3.893 5.93l-60.402 92.182a3.867 3.867 0 0 1-7.084-2.487l5.35-55.923L4.525 99.86a3.868 3.868 0 0 1-3.892-5.93L61.034 1.747A3.867 3.867 0 0 1 65.55.218ZM11.98 90.726l49.453-8.534a3.867 3.867 0 0 1 4.507 4.18l-4.343 45.389 46.951-71.653-49.454 8.534a3.867 3.867 0 0 1-4.507-4.18l4.343-45.39-46.95 71.654Z" clip-rule="evenodd"/><defs><linearGradient id="a" x1="322.499" x2="1020.36" y1="20.515" y2="308.002" gradientUnits="userSpaceOnUse"><stop stop-color="#0369A1"/><stop offset="1" stop-color="#0EA5E9" stop-opacity="0"/></linearGradient><linearGradient id="b" x1="322.499" x2="1020.36" y1="20.515" y2="308.002" gradientUnits="userSpaceOnUse"><stop stop-color="#0369A1"/><stop offset="1" stop-color="#0EA5E9" stop-opacity="0"/></linearGradient><linearGradient id="c" x1="322.499" x2="1020.36" y1="20.515" y2="308.002" gradientUnits="userSpaceOnUse"><stop stop-color="#0369A1"/><stop offset="1" stop-color="#0EA5E9" stop-opacity="0"/></linearGradient><linearGradient id="d" x1="322.499" x2="1020.36" y1="20.515" y2="308.002" gradientUnits="userSpaceOnUse"><stop stop-color="#0369A1"/><stop offset="1" stop-color="#0EA5E9" stop-opacity="0"/></linearGradient><linearGradient id="e" x1="322.499" x2="1020.36" y1="20.515" y2="308.002" gradientUnits="userSpaceOnUse"><stop stop-color="#0369A1"/><stop offset="1" stop-color="#0EA5E9" stop-opacity="0"/></linearGradient><linearGradient id="f" x1="322.499" x2="1020.36" y1="20.515" y2="308.002" gradientUnits="userSpaceOnUse"><stop stop-color="#0369A1"/><stop offset="1" stop-color="#0EA5E9" stop-opacity="0"/></linearGradient><linearGradient id="g" x1="322.499" x2="1020.36" y1="20.515" y2="308.002" gradientUnits="userSpaceOnUse"><stop stop-color="#0369A1"/><stop offset="1" stop-color="#0EA5E9" stop-opacity="0"/></linearGradient><linearGradient id="h" x1="36.718" x2="409.124" y1="-3.439" y2="569.493" gradientUnits="userSpaceOnUse"><stop stop-color="#1F2937"/><stop offset="0" stop-color="#0369A1"/><stop offset="1" stop-color="#0EA5E9" stop-opacity="0"/></linearGradient></defs></svg>
