<svg xmlns="http://www.w3.org/2000/svg" class="Nav2__logo native-color" width="238.46" height="49.268"><g color="#191923" fill="#2e5bff"><path d="M43.372 36.921c.47511-.82291.73558-1.7695.73546-2.7509l.003558-19.113c.000003-1.9628-1.0518-3.783-2.7517-4.7643l-16.553-9.5565c-1.6999-.9814-3.799-.98061-5.4989.000827l-16.553 9.5577c-1.6999.98147-2.7502 2.8005-2.7502 4.7634l-.000518 19.115c.000063 1.9629 1.0489 3.7811 2.7488 4.7625l16.553 9.5565c1.6999.98141 3.8018.98235 5.5018.000856l16.551-9.5597c.84994-.4907 1.5395-1.1895 2.0146-2.0124zm-2.9889-3.2035c-.00002.91645-.48621 1.7586-1.2799 2.2168l-15.768 9.1024c-.7936.45813-1.765.45882-2.5586.000654l-15.769-9.1044c-.79358-.45815-1.2788-1.2997-1.2788-2.2161l-.001301-18.207c.00001-.91637.48621-1.7586 1.2799-2.2168l15.768-9.1024c.79362-.45815 1.765-.45882 2.5586-.000654l15.769 9.1044c.79354.45814 1.2787 1.2997 1.2787 2.2161z" style="font-feature-settings:normal;font-variant:normal;font-variation-settings:normal;inline-size:0;isolation:auto;mix-blend-mode:normal;shape-margin:0;text-decoration-color:#191923;text-decoration-line:none;text-decoration-style:solid;text-indent:0;text-orientation:mixed;text-transform:none;white-space:normal"/><path d="M22.202 49.265a1.5846 1.5846 0 0 0 1.5839-1.5873l-.000042-22.91a1.5846 1.5846 0 0 0-1.5839-1.5839l-.27739-.000068a1.5846 1.5846 0 0 0-1.5873 1.5839l.000042 22.91a1.5846 1.5846 0 0 0 1.5873 1.5873z" style="font-feature-settings:normal;font-variant:normal;font-variation-settings:normal;inline-size:0;isolation:auto;mix-blend-mode:normal;shape-margin:0;text-decoration-color:#191923;text-decoration-line:none;text-decoration-style:solid;text-indent:0;text-orientation:mixed;text-transform:none;white-space:normal"/><path d="M.63716 12.408a1.5846 1.5846 0 0 0 .57811 2.1666l19.844 11.457a1.5846 1.5846 0 0 0 2.1654-.58269l.13864-.24026a1.5846 1.5846 0 0 0-.57976-2.1637l-19.844-11.457a1.5846 1.5846 0 0 0-2.1637.57978z" style="font-feature-settings:normal;font-variant:normal;font-variation-settings:normal;inline-size:0;isolation:auto;mix-blend-mode:normal;shape-margin:0;text-decoration-color:#191923;text-decoration-line:none;text-decoration-style:solid;text-indent:0;text-orientation:mixed;text-transform:none;white-space:normal"/><path d="M43.341 12.17a1.5846 1.5846 0 0 0-2.1665-.57805l-19.84 11.455a1.5846 1.5846 0 0 0-.57973 2.1636l.14034.24307a1.5846 1.5846 0 0 0 2.1636.57973l19.84-11.455a1.5846 1.5846 0 0 0 .58265-2.1653z" style="font-feature-settings:normal;font-variant:normal;font-variation-settings:normal;inline-size:0;isolation:auto;mix-blend-mode:normal;shape-margin:0;text-decoration-color:#191923;text-decoration-line:none;text-decoration-style:solid;text-indent:0;text-orientation:mixed;text-transform:none;white-space:normal"/></g><path d="M77.359054 29.957168c0 2.27572-.843802 4.257319-2.531407 5.944923-1.662023 1.662023-3.694912 2.493099-6.098412 2.493099h-3.835417c-2.4035 0-4.449116-.831037-6.13672-2.493099-1.662023-1.662023-2.493099-3.899435-2.493099-6.71198h5.753127c0 1.380755.294045 2.36519.882148 2.953307.588104.588103 1.252913.882149 1.994454.882149h3.835417c.741515 0 1.406337-.294046 1.994454-.88215.588103-.588103.882148-1.316865.882148-2.186249s-.294045-1.598134-.882148-2.18625-1.252913-.882149-1.994454-.882149h-3.835417c-2.4035 0-4.449116-.831037-6.13672-2.493098-1.662023-1.687605-2.493099-3.669203-2.493099-5.944924s.831037-4.244592 2.493099-5.906615c1.687604-1.687604 3.73322-2.531407 6.13672-2.531407h3.835417c2.4035 0 4.43639.843803 6.098412 2.531407 1.687605 1.662023 2.531407 3.88658 2.531407 6.673673h-5.753127c0-1.380755-.294045-2.365191-.882148-2.953307s-1.252913-.882123-1.994454-.882149h-3.835417c-.741515 0-1.406337.294045-1.994454.882149s-.882161 1.316866-.882148 2.18625c0 .869345.294045 1.598133.882148 2.18625s1.252913.882212 1.994454.882148h3.835417c2.4035 0 4.43639.843802 6.098412 2.531407 1.687605 1.662023 2.531407 3.630894 2.531407 5.906615zm23.011736 8.438022h-5.25461L85.02899 28.308v10.08719h-5.753127V10.012636h5.753127v10.08719l10.08719-10.08719h5.25461v2.454662L88.634303 24.203784l11.736487 11.69805zm23.011735-8.438022c0 2.301302-.843802 4.2829-2.531407 5.944923-1.662023 1.662023-3.694912 2.493099-6.098412 2.493099h-3.835417c-2.4035 0-4.449116-.831037-6.13672-2.493099-1.662023-1.662023-2.493099-3.64375-2.493099-5.944923V10.012636h5.753127v19.944532c0 .869345.294058 1.598134.882161 2.18625.588104.588103 1.252913.882149 1.994453.882149h3.835418c.741515 0 1.406337-.294046 1.994454-.88215.588103-.588103.882148-1.316865.882148-2.186249V10.012636h5.753127zm23.01045 0c0 2.27572-.843802 4.257319-2.531407 5.944923-1.662023 1.662023-3.694912 2.493099-6.098412 2.493099h-3.835417c-2.4035 0-4.449116-.831037-6.13672-2.493099-1.662023-1.662023-2.493099-3.899435-2.493099-6.71198h5.753127c0 1.380755.294045 2.36519.882148 2.953307.588104.588103 1.252926.882149 1.994454.882149h3.835417c.741515 0 1.406337-.294046 1.994454-.88215.588103-.588103.882148-1.316865.882148-2.186249s-.294045-1.598134-.882148-2.18625-1.252913-.882149-1.994454-.882149h-3.835417c-2.4035 0-4.449116-.831037-6.13672-2.493098-1.662023-1.687605-2.493099-3.669203-2.493099-5.944924s.831037-4.244592 2.493099-5.906615c1.687604-1.687604 3.73322-2.531407 6.13672-2.531407h3.835417c2.4035 0 4.43639.843803 6.098412 2.531407 1.687605 1.662023 2.531407 3.88658 2.531407 6.673673h-5.753127c0-1.380755-.294045-2.365191-.882148-2.953307s-1.252913-.882123-1.994454-.882149h-3.835417c-.741515 0-1.406337.294045-1.994454.882149-.588103.588103-.882148 1.316866-.882148 2.18625 0 .869345.294045 1.598133.882148 2.18625.588104.588103 1.252926.882148 1.994454.882148h3.835417c2.4035 0 4.43639.843802 6.098412 2.531407 1.687605 1.662023 2.531407 3.630894 2.531407 5.906615zm23.009165-8.546133.00122 16.984026h-5.753126v-3.835417l-.652018.652031c-2.122232 2.122232-4.142267 3.183412-6.059976 3.183412-2.42908 0-4.474697-.831011-6.13672-2.493099-1.662023-1.662022-2.493099-3.64362-2.493099-5.944923v-3.835418c0-2.301302.831012-4.2829 2.4931-5.944923s3.707638-2.493099 6.136719-2.493099h8.64653zm-12.463951 1.642355c-.741515 0-1.406337.294046-1.994454.882149s-.882148 1.316866-.882148 2.18625v3.835418c0 .86937.294045 1.598133.882148 2.18625.588104.588103 1.252913.882148 1.994454.882148.971645 0 2.020034-.562535 3.145104-1.687604l3.567005-3.567006.002571-4.717528zm35.488798-.613826-7.977684 15.955626h-5.13943l-7.977684-15.955626V17.6836h5.753127v3.49026l4.794272 9.588545 4.794272-9.588544V17.6836h5.753127zm23.01045 0-7.977684 15.955626h-5.13943l-7.977684-15.955626V17.6836h5.753127v3.49026l4.794272 9.588545 4.794272-9.588544V17.6836h5.753127zm23.01045 15.188183c0 2.250139-.843802 4.206156-2.531407 5.868178-1.662022 1.687605-3.694912 2.531407-6.098412 2.531407h-8.62969V40.65767h8.62969c.741515 0 1.406337-.294045 1.994454-.882149.588103-.588103.882161-1.04835.882161-1.380755h-6.71198c-2.4035 0-4.449116-.831037-6.13672-2.493099-1.662024-1.687604-2.4931-3.669203-2.4931-5.944923v-12.27344h5.753127v12.27344c0 .869345.294045 1.598133.882149 2.18625.588103.588103 1.252912.882148 1.994453.882148h6.711981V17.683985h5.753127z" fill="#191923" aria-label="SKUSavvy"/></svg>
