<svg width="1842" height="651" version="1.1" xmlns="http://www.w3.org/2000/svg" x="0" y="0" viewBox="0 0 1842.1 651.2" style="enable-background:new 0 0 1842.1 651.2" xml:space="preserve"><style>.st0{fill:none}.st1{fill:#5d21d2}</style><path class="st0" d="M.5.5h1841.1v650.2H.5z"/><path class="st0" d="M.5.5h1841.1v650.2H.5z"/><path class="st1" d="M387.8 307.4c-1.9-1.9-1.9-5.1 0-7l36.3-36.3c1.9-1.9 5.1-1.9 7 0l73.3 73.3c2.4 2.6 4 6 4 9.9s-1.6 7.4-4.1 10l-75.2 75.2c-.9.9-2.2 1.5-3.5 1.5H353c-2.7 0-4.9-2.2-4.9-4.9 0-1.5.6-2.8 1.6-3.7l74.6-74.6c1-.9 1.4-2.2 1.4-3.5s-.5-2.5-1.4-3.5l-36.5-36.4zM337.8 343.8c1.9 1.9 1.9 5.1 0 7l-36.3 36.3c-1.9 1.9-5.1 1.9-7 0l-73.3-73.3c-2.5-2.6-4-6-4-9.9s1.6-7.4 4.1-10l75.2-75.2c.9-.9 2.2-1.5 3.5-1.5h72.6c2.7 0 4.9 2.2 4.9 4.9 0 1.5-.6 2.7-1.6 3.7l-74.6 74.6c-.9 1-1.4 2.2-1.5 3.5 0 1.3.5 2.5 1.5 3.5.2 0 36.5 36.4 36.5 36.4z"/><g><path class="st1" d="M681.4 272.4c-12.3-4.3-31.4-8-47.7-8-29.5 0-48.1 14-48.1 37.3 0 20.6 12.3 29.2 38.7 34.7 14.9 3.1 28.3 4.7 28.3 14.2 0 6.8-6.6 10.2-19.1 10.1-10.4-.2-25.9-3-44.8-10.1l-6.6 25.9c18.4 6.9 37.5 10.2 52.6 10.2 29.7 0 49.3-12.8 49.3-38 0-22.7-16.1-30.4-40.4-35.6-16.7-3.5-26.2-4.9-26.2-12.8 0-7.3 6.2-10.4 16.5-10.4 10.1 0 24.8 2.8 41.3 7.8l6.2-25.3zM763.6 266.3c-16.1 0-31.6.7-45.5 1.4v116h29.1v-31.5h16.3c31.2 0 51.4-17 51.4-43.9 0-27.6-20.1-42-51.3-42zm-16.3 60.4v-36.1c5.9-.2 12-.3 18-.3 12 0 20.5 6.4 20.5 18.2 0 11.5-8.5 18.2-20.5 18.2h-18zM1049.1 267.7v67.1l-54.7-67.1h-26.9v116h29.1v-66.5l54.8 66.5h26.7v-116h-29zM1160.7 266.2c-16.3 0-31.1.7-43.9 1.4v116.2c12.8.7 29.3 1.4 46.8 1.4 35.4 0 61.2-22.9 61.2-60.2.1-37-25.7-58.8-64.1-58.8zm3.7 92.6c-5.9 0-12.3 0-18.4-.3v-65.9c5.4-.3 10.9-.3 16-.3 19.3 0 32.8 11.8 32.8 32.4-.1 21.1-13.6 34.1-30.4 34.1zM1476.6 272.4c-12.3-4.3-31.4-8-47.7-8-29.5 0-48.1 14-48.1 37.3 0 20.6 12.3 29.2 38.7 34.7 14.9 3.1 28.3 4.7 28.3 14.2 0 6.8-6.6 10.2-19.1 10.1-10.4-.2-25.9-3-44.8-10.1l-6.6 25.9c18.4 6.9 37.5 10.2 52.6 10.2 29.7 0 49.3-12.8 49.3-38 0-22.7-16.1-30.4-40.4-35.6-16.7-3.5-26.2-4.9-26.2-12.8 0-7.3 6.2-10.4 16.5-10.4 10.1 0 24.8 2.8 41.3 7.8l6.2-25.3zM1542.5 344.4h18.2l28.5 39.3h35.7l-45.6-62.6 42.9-53.4h-35.4l-38.5 48.2h-5.7v-48.2h-29.2v116h29.1v-39.3zM872.7 313.3v-21h60v-24.7h-89.2v116h89.2v-24.7h-60v-21h50.1v-24.6h-50.1zM1287.3 313.3v-21h60v-24.7h-89.2v116h89.2v-24.7h-60v-21h50.1v-24.6h-50.1z"/></g></svg>