<svg fill="none" height="234" width="480" xmlns="http://www.w3.org/2000/svg"><clipPath id="a"><path d="M0 0h480v233.3H0z"/></clipPath><g clip-path="url(#a)"><g fill="#424449"><path d="M345.5 210.5v21.7h-8.8v-20.3c0-6-3.6-10-9.1-10-5.9 0-10.3 4.5-10.3 11.1v19.2h-8.9V177h8.9v22.1h.4c2.6-3.7 7-6 12.1-6 9.6 0 15.7 6.6 15.7 17.4zM295 208.1c-1.4-3.8-5.1-6.7-10.1-6.7-7 0-11.4 5.2-11.4 11.7 0 6.4 4.4 11.7 11.4 11.7 4.8 0 8.8-2.8 10-7h9.4a19 19 0 0 1-19.5 15.5c-12.3 0-20.2-9-20.2-20.3s8-20.2 20.2-20.2a19 19 0 0 1 19.5 15.3zM231 208.8h21c-1.2-4.7-5.2-7.8-10.6-7.8-5.3 0-9.3 3.1-10.4 7.8zm30.2 7.3h-30.3c.7 5 4.8 8.9 10.8 9 4.4 0 8.1-1.8 9.7-5h9.1c-2.4 8.4-9.9 13.2-18.9 13.2-12.6 0-19.9-9.3-19.9-20.2 0-11.3 8.1-20.3 19.9-20.3 12.7 0 20.7 10.1 19.6 23.3zM219.6 202.5V194H203v-13.4h-8.8V194h-27.6c-6.6 0-11.6 4.5-11.6 11 0 5 3.6 9 9 10.3l15.1 3.3c1.3.3 2 1.2 2 2.5 0 1.6-1 2.7-2.4 2.7h-22.1v8.5h22.2c6.7 0 11.7-4.7 11.7-11.2 0-5.1-3.6-9.2-9.1-10.4l-15.1-3.3c-1.1-.2-2-1-2-2.4 0-1.5 1-2.4 2.5-2.4h27.4v19.3c0 6.6 3.9 10.4 10.5 10.4h14.9v-8.6h-13.1c-2.2 0-3.5-1.3-3.5-3.3v-17.8zM151.8 210.5v21.7h-8.9v-20.3c0-6-3.6-10-9-10-6 0-10.4 4.5-10.4 11.1v19.2h-8.8v-38.3h8.7v5.2h.3c2.7-3.7 7.2-6 12.4-6 9.5 0 15.7 6.6 15.7 17.4zM94.2 194.4l4.5 11.7 4.5-11.7h4l-7 17.5-1.7 3.4c-.8 1-2 1.4-3.7 1.5h-3.7V213h3.7c.5 0 .8 0 1-.2l.6-1 .6-1.5-6.8-16zM78.3 206c1 .9 2.2 1.3 3.6 1.3a5 5 0 0 0 3.5-1.3c1-.8 1.4-2 1.4-3.5s-.5-2.7-1.4-3.6a5 5 0 0 0-3.5-1.3c-1.4 0-2.6.4-3.6 1.2-1 .8-1.5 2-1.5 3.7 0 1.5.5 2.7 1.5 3.5zm-1.4-18.3v9.2a6 6 0 0 1 4.9-2.7h.6c2.5 0 4.5.8 6 2.3a8 8 0 0 1 2.3 6 8 8 0 0 1-2.3 6 8 8 0 0 1-6.7 2.2 6 6 0 0 1-5-3v2.7H73v-22.7zM420 130.8l-16 41.5c-2.1 1.4-4.7 2.1-7.9 2.1h-32v30.7h33c18 0 31-10.2 37-27.7L480 43.1h-31.8z"/></g><path d="m420 130.8-34.8-87.7H351l53 129.2c2-1.6 3.7-4.3 4.9-8.1z" fill="#ff3d03"/><path d="M343.3 68.6V43.1H243.2v30.2h58l-60.3 59.6v25.7h104.7v-30.3h-62.3zM200.2 43.1v115h31.5v-115zM216 0a17.5 17.5 0 1 1 0 35 17.5 17.5 0 0 1 0-35zM165.3 43.1c-13.5 0-23.7 6.7-27.9 18.1h-1.1V43.1h-29.7v115.6H138V101c0-16 10.7-26.7 25.7-26.7h26V43.1zM95 43.1H47.5v-40H16.2v40H0v30.2h16.2v51.5c0 20.9 13.7 33.8 34.8 33.8h44v-30.3H56.8c-5.6 0-9.3-3.3-9.3-8.9V73.3H95z" fill="#424449"/></g></svg>