<svg fill="none" height="267" viewBox="0 0 512 267" width="512" xmlns="http://www.w3.org/2000/svg"><path d="m0 0h512v267h-512z" fill="#fff"/><path d="m237.62 83.7395c0-1.3524.541-2.7047 1.352-3.5161 1.082-1.0818 2.164-1.3523 3.516-1.3523h12.442c1.352 0 2.705.5409 3.516 1.3523 1.082 1.0819 1.352 2.1637 1.352 3.5161v96.5555c0 1.353-.541 2.705-1.352 3.516-1.082 1.082-2.164 1.353-3.516 1.353h-12.171c-1.352 0-2.705-.541-3.516-1.353-1.082-1.081-1.352-2.163-1.352-3.516v-96.5555z" fill="#125c86"/><path d="m205.436 142.16c10.548-5.41 15.687-15.417 15.687-29.751 0-9.467-2.975-17.5805-8.926-24.0717-5.95-6.4911-14.875-9.7367-27.317-9.7367h-34.89c-1.352 0-2.704.5409-3.516 1.3523-1.081 1.0819-1.352 2.1637-1.352 3.516v96.0151c0 1.352.541 2.705 1.352 3.516 1.082 1.082 2.164 1.352 3.516 1.352h12.442c1.352 0 2.704-.541 3.516-1.352 1.082-1.082 1.352-2.164 1.352-3.516v-22.719-36.513-21.0961h17.31c4.327 0 7.573 1.3521 10.007 3.7861 2.434 2.435 3.516 5.951 3.516 10.278s-1.082 7.844-3.516 10.278c-1.352 1.623-3.245 2.704-5.139 3.245-2.704.812-4.598 3.246-4.598 5.951v10.818c0 1.352.271 2.975.812 4.328l11.359 33.537c1.082 2.705 2.975 2.975 5.41 2.975h12.711c1.623-.27 2.976-1.082 3.787-2.434s.811-2.975.27-4.598z" fill="#125c86"/><path d="m51 97.2627v-14.0642c0-2.9751 1.3523-4.3274 4.3274-4.3274h70.0506c2.975 0 4.598 1.3523 4.598 4.3274v14.0642c0 2.9753-1.623 4.5983-4.598 4.5983h-22.178v78.705c0 2.975-1.623 4.327-4.5982 4.327h-16.7688c-2.9751 0-4.5979-1.352-4.5979-4.327v-78.705h-22.1781c-2.4342-.271-4.057-1.623-4.057-4.5983z" fill="#125c86"/><path d="m460.213 83.469-33.267 61.936v35.161c0 3.786-1.893 4.598-4.598 4.598h-16.228c-2.975 0-4.598-1.082-4.598-4.598v-35.161l-34.619-61.936c-.812-1.8933-.541-4.5979 2.704-4.5979h18.662c3.787 0 5.41.5409 7.573 4.8684l18.933 34.6195 18.121-34.6195c2.164-4.3275 3.787-4.8684 7.303-4.8684h17.309c3.246 0 3.516 2.7046 2.705 4.5979z" fill="#125c86"/><path d="m356.084 167.584v13.252c0 2.975-1.082 4.598-4.598 4.598h-70.591c-4.328 0-4.869-.811-4.869-4.598v-12.712c0-3.786 2.164-6.22 2.164-6.22l43.545-60.314h-39.758c-3.787 0-4.598-1.8931-4.598-4.5977v-13.2528c0-2.9751 1.082-4.5979 4.598-4.5979h64.911c3.787 0 4.598 1.8933 4.598 4.5979v12.7118c0 2.1638-.541 4.3277-2.164 6.2207l-43.274 60.043h44.897c4.057 0 5.139 1.893 5.139 4.869z" fill="#125c86"/><g fill="#48485a"><path d="m401.234 224.204v18.974h3.018 3.017v-7.389c0-8.871.076-9.298 2.263-11.484 1.031-1.031 1.685-1.483 2.641-1.734 3.52-.98 6.588.301 7.946 3.317.578 1.307.603 1.533.679 9.298l.075 7.992h3.043 3.017l-.125-8.871c-.126-9.349-.202-10.053-1.434-12.591-1.735-3.619-5.607-5.654-10.159-5.378-2.539.176-4.828 1.131-6.563 2.815-.679.628-1.257 1.156-1.307 1.156-.051 0-.076-3.393-.076-7.539v-7.54h-3.017-3.018z"/><path d="m322.026 212.141v4.624l-10.737.075-10.763.076-1.433.703c-2.64 1.307-4.074 3.619-4.099 6.585 0 2.915 1.383 5.126 4.099 6.508.478.252 3.545 1.031 6.865 1.76 3.998.879 6.16 1.482 6.512 1.784.704.628.654 1.759-.125 2.513l-.604.628h-7.946-7.921v2.915 2.89l8.877-.075 8.851-.075 1.433-.704c2.766-1.357 4.225-3.77 4.225-6.936 0-2.94-1.509-5.152-4.275-6.383-.754-.352-3.923-1.156-6.991-1.81-3.294-.703-5.833-1.382-6.16-1.633-.629-.528-.679-1.86-.076-2.463.378-.377 1.383-.427 10.335-.503l9.933-.075v7.388c0 8.394.151 9.299 1.71 11.033 1.76 1.935 2.313 2.086 9.555 2.161l6.337.101v-2.916-2.89l-5.18-.075-5.18-.075-.604-.704-.603-.704v-6.659-6.635h5.783 5.784v-2.89-2.89h-5.784-5.783v-4.649-4.649h-3.018-3.017z"/><path d="m238.039 220.309v7.791h1.257 1.258v-.93-.93l.704.653c1.307 1.232 2.816 1.609 4.752 1.207 2.59-.553 4.099-2.589 4.099-5.479 0-2.136-.704-3.619-2.238-4.699-.905-.629-1.358-.754-2.892-.83-1.886-.1-2.942.201-3.646 1.056-.201.226-.427.402-.553.402s-.226-1.357-.226-3.016v-3.015h-1.258-1.257zm8.575-.025c.855.854.98 1.106.98 2.136 0 2.186-1.282 3.493-3.394 3.493-2.615 0-4.275-2.337-3.319-4.674.553-1.257 1.709-1.935 3.419-1.935 1.232 0 1.434.075 2.314.98z"/><path d="m351.547 216.413c-3.193.679-6.387 2.915-8.172 5.705-3.546 5.503-2.741 13.646 1.76 18.044 4.275 4.171 11.466 4.95 17.149 1.834 2.213-1.181 5.482-5.252 5.507-6.81 0-.226-.804-.302-3.143-.302-1.861 0-3.143.101-3.143.252 0 .477-1.836 2.06-2.992 2.588-1.786.804-4.979.754-6.84-.101-2.112-1.005-3.621-2.739-4.124-4.825l-.176-.678h10.461 10.46v-2.086c-.025-9.449-7.594-15.606-16.747-13.621zm6.337 5.78c.528.201 1.333.679 1.785 1.031.805.628 2.339 2.94 2.339 3.543 0 .251-1.61.327-7.267.327h-7.267l.276-.88c.528-1.784 2.892-3.895 4.904-4.398 1.257-.326 4.048-.125 5.23.377z"/><path d="m380.917 216.539c-5.054 1.332-8.65 5.102-9.731 10.178-1.685 7.941 2.791 15.254 10.31 16.837 6.538 1.383 12.95-1.482 15.515-6.911.503-1.03.98-2.186 1.056-2.588l.151-.678h-3.244c-3.169 0-3.244.025-3.395.578-.251 1.005-1.886 2.638-3.369 3.367-1.233.603-1.71.704-3.571.704-1.811-.025-2.339-.126-3.42-.679-1.509-.804-2.967-2.337-3.696-3.92-.403-.905-.528-1.684-.528-3.443 0-1.96.075-2.438.679-3.694 1.383-2.84 3.822-4.323 7.091-4.348 1.71 0 2.238.101 3.445.704 1.483.729 3.118 2.362 3.369 3.367.151.553.226.578 3.395.578h3.244l-.151-.703c-.076-.377-.528-1.508-1.006-2.513-.981-2.162-3.244-4.549-5.306-5.655-3.042-1.608-7.342-2.086-10.838-1.181z"/><path d="m278.524 216.74c-2.012.679-2.942 1.207-4.325 2.488l-1.207 1.156v-1.809-1.784h-3.017-3.018v13.193 13.194h2.992 3.018l.075-7.741c.076-7.262.101-7.79.604-8.871 1.257-2.714 3.671-4.322 6.513-4.297 1.986 0 3.444.603 4.601 1.935 1.584 1.81 1.635 2.136 1.735 10.982l.101 7.992h3.017 2.993v-7.992c0-8.268-.151-10.178-1.031-12.515-.956-2.538-3.144-4.75-5.683-5.73-1.811-.678-5.608-.779-7.368-.201z"/><path d="m250.109 217.168c0 .1 1.031 2.588 2.289 5.554 2.137 5.051 2.263 5.428 1.986 6.232-.327 1.03-.603 1.156-2.414 1.156h-1.358v1.257 1.256h1.082c1.684-.025 3.218-.402 3.746-.93.352-.377 6.236-14.073 6.236-14.576 0-.025-.603-.075-1.332-.075h-1.308l-1.483 3.82c-.805 2.111-1.56 3.92-1.635 4.046-.101.1-.855-1.608-1.685-3.77l-1.483-3.97-1.333-.076c-.704-.05-1.308 0-1.308.076z"/></g></svg>