<svg height="62" width="206" viewBox="0 0 205.71 61.8" xmlns="http://www.w3.org/2000/svg"><g fill="#46b4e1"><path d="m24.43 15.23h-4.94c-.86 0-1.24.38-1.24 1.24v23.29c0 1.9-.38 3.8-5.51 3.8-3.52 0-5.51-1.9-5.51-5.32v-21.77c0-.86-.38-1.24-1.24-1.24h-4.75c-.86 0-1.24.38-1.24 1.24v21.86c0 8.08 6.94 9.7 12.64 9.7 4.94 0 8.94-1.05 10.65-2s2.28-2.28 2.28-4.47v-25.1c0-.86-.38-1.24-1.14-1.24z"/><path d="m34.6.02s-1.71 0-1.71 0c-.47-.06-.89.28-.95.75v60.09c-.06.47.28.89.75.95h1.91c.47.06.89-.28.95-.75v-60.09c-.1-.57-.38-.95-.95-.95z"/><path d="m54.57 28.72c-3.61-1.52-6.84-2.95-6.84-6.08 0-2.66 1.62-4.18 4.37-4.18 2.57 0 3.8 1.9 4.66 3.99.45 1.39 1.78 2.29 3.23 2.19 1.51.11 2.83-1.02 2.95-2.53 0-.14 0-.28 0-.42 0-2.85-3.42-6.94-10.74-6.94-6.94 0-11.31 3.52-11.31 9.22 0 5.32 4.75 7.41 8.94 9.32 3.61 1.62 6.94 3.14 6.94 6.37.1 2.37-1.73 4.36-4.1 4.47h-.37c-3.14 0-4.47-2.09-5.42-4.37-.48-1.42-1.83-2.35-3.33-2.28-1.68-.15-3.17 1.08-3.32 2.77 0 .12-.02.25 0 .37 0 2.76 3.52 7.89 11.98 7.89 7.03 0 11.6-3.9 11.6-9.89s-4.85-7.99-9.22-9.89z"/><path d="m91.31 36.16c-.07 0-.16-.02-.24-.02-.82.01-1.56.49-1.9 1.24-1.33 2.47-3.14 5.04-6.75 5.04-6.46 0-8.75-6.75-8.75-12.55 0-7.51 3.42-10.84 6.84-10.84s4.85 2.95 5.32 4.75c.48 1.81 1.62 2.57 3.14 2.57 1.69.2 3.22-1.02 3.41-2.71.03-.21.03-.42 0-.62 0-2.95-3.9-8.18-11.5-8.18-8.65 0-14.07 6.46-14.07 16.83 0 12.45 7.13 16.83 13.78 16.83 7.89 0 11.98-6.94 11.98-10.65.11-.82-.46-1.58-1.27-1.69z"/><path d="m91.06 36.14h.01z"/><path d="m109.52 14.75c-3.22-.05-6.43.57-9.41 1.81-1.7.56-2.8 2.21-2.66 3.99v25.86c0 .86.38 1.24 1.24 1.24h4.85c.86 0 1.24-.38 1.24-1.24v-24.53c0-1.81 1.33-2.95 3.61-2.95 1.27-.04 2.46.67 3.04 1.81.61 1.17 1.82 1.9 3.14 1.9 1.64.1 3.05-1.16 3.15-2.79v-.44c.1-1.43-.76-4.66-8.18-4.66z"/><path d="m143.2 36.23h-.13c-.74 0-1.42.46-1.71 1.14-1.14 1.9-3.61 5.13-7.6 5.13-5.13 0-8.46-3.9-8.94-10.46l17.68-2.95c1.24-.19 2-.57 2-2.09 0-6.08-4.18-12.26-12.17-12.26-6.56 0-14.26 4.37-14.26 16.64 0 10.65 5.32 17.02 14.26 17.02 8.08 0 12.36-6.84 12.36-10.55.04-.86-.63-1.58-1.48-1.62zm-11.64-17.3c4.75 0 5.7 4.37 5.89 7.13l-12.93 2.19c.29-4.56 2.28-9.32 7.03-9.32z"/><path d="m173.62 36.23h-.13c-.74 0-1.42.46-1.71 1.14-1.14 1.9-3.61 5.13-7.6 5.13-5.13 0-8.46-3.9-8.94-10.46l17.68-2.95c1.24-.19 2-.57 2-2.09 0-6.08-4.18-12.26-12.17-12.26-6.56 0-14.26 4.37-14.26 16.64 0 10.65 5.32 17.02 14.26 17.02 8.08 0 12.36-6.84 12.36-10.55.04-.86-.63-1.58-1.48-1.62zm-11.64-17.3c4.75 0 5.7 4.37 5.89 7.13l-12.93 2.19c.29-4.56 2.28-9.32 7.03-9.32z"/><path d="m192.41 14.75c-3.54-.1-7.06.51-10.36 1.81-2 .95-2.57 1.9-2.57 3.99v25.86c0 .86.38 1.24 1.24 1.24h4.85c.86 0 1.24-.38 1.24-1.24v-23.67c0-1.9.38-3.9 5.32-3.9 5.42 0 6.18 3.61 6.18 5.8v21.77c0 .86.38 1.24 1.24 1.24h4.94c.86 0 1.24-.38 1.24-1.24v-22.05c0-8.37-8.27-9.6-13.31-9.6z"/></g></svg>