<svg width="110" height="29" viewBox="0 0 110 29" fill="none" xmlns="http://www.w3.org/2000/svg">
    <path d="M10.137 4.38855H27.3333L27.5782 3.29612C27.936 1.60097 26.6552 0 24.9224 0H8.2158C6.04978 0 4.18512 1.50679 3.71424 3.61631L0.0602604 20.4924C-0.297604 22.1876 0.983172 23.7886 2.71599 23.7886H3.73308L7.46241 6.53573C7.74493 5.29262 8.85619 4.38855 10.137 4.38855Z" fill="#00CDFA"/>
    <path d="M28.3504 4.38855H27.3333L23.604 21.6414C23.3403 22.8845 22.2291 23.7886 20.9483 23.7886H3.75195L3.5071 24.881C3.14923 26.5761 4.43001 28.1771 6.16283 28.1771H22.8694C25.0355 28.1771 26.9001 26.6703 27.371 24.5608L31.025 7.70351C31.3829 5.98952 30.0832 4.38855 28.3504 4.38855Z" fill="url(#paint0_linear_14094_3114)"/>
    <path d="M23.604 21.6414L27.3333 4.38855H10.1369C8.85617 4.38855 7.74491 5.27379 7.48122 6.53574L3.75189 23.7886H20.9482C22.229 23.7886 23.3214 22.8845 23.604 21.6414Z" fill="#3A00FF"/>
    <path d="M9.34745 17.2058L8.10303 10.7362H10.0545L10.6555 14.7735L12.6282 10.7362H13.9433L14.714 14.7735L16.5241 10.7362H18.4756L15.315 17.2058H13.6817L12.9039 13.4159L11.002 17.2058H9.34745Z" fill="white"/>
    <path d="M17.7896 16.1594L18.8077 14.9786C19.2673 15.5443 19.8471 15.8342 20.5612 15.8342C21.0208 15.8342 21.4238 15.6432 21.4875 15.3251C21.5087 15.1342 21.3814 14.9715 21.0844 14.8301C21.0137 14.7948 20.8582 14.7382 20.6107 14.6534C20.1228 14.4624 19.9107 14.3917 19.4865 14.1231C18.8926 13.7554 18.6097 13.2463 18.7087 12.3696C18.8996 11.1746 19.9956 10.51 21.3814 10.51C22.3289 10.51 23.1066 10.8211 23.7359 11.4362L22.7319 12.61C22.3147 12.2211 21.8339 12.0302 21.2895 12.0302C20.8511 12.0302 20.5895 12.1574 20.5329 12.4332C20.4834 12.6595 20.6036 12.8504 20.8865 12.9776C20.9784 13.0271 21.1693 13.1049 21.4521 13.211C21.7349 13.317 21.9753 13.4089 22.1733 13.5221C22.8097 13.7907 23.5591 14.42 23.3329 15.3816C23.2268 16.0109 22.9086 16.5059 22.3713 16.8594C21.841 17.2129 21.1976 17.3897 20.4764 17.3897C19.3168 17.3826 18.4188 16.9796 17.7896 16.1594Z" fill="white"/>
    <path d="M41.1582 20.5677H39.3312L35.7526 9.75647H38.1258L40.3106 17.0268L42.7592 9.75647H44.1341L46.6392 17.0268L48.7864 9.75647H51.1596L47.5998 20.5677H45.7728L43.4749 13.4858L41.1582 20.5677Z" fill="white"/>
    <path d="M53.194 20.5677H51.1221V12.6005H53.1186V13.6741C53.5895 12.8077 54.3241 12.3933 55.3035 12.3933C55.6237 12.3933 55.9439 12.4498 56.2641 12.5628L56.0946 14.5405C55.7367 14.4275 55.4353 14.371 55.1528 14.371C54.5501 14.371 54.0792 14.5782 53.7214 14.9737C53.3823 15.3692 53.194 15.972 53.194 16.7819V20.5677Z" fill="white"/>
    <path d="M59.0513 10.4345C59.0513 10.7924 58.9383 11.0937 58.6934 11.3386C58.4486 11.5834 58.1472 11.6965 57.7893 11.6965C57.4315 11.6965 57.1301 11.5834 56.8853 11.3386C56.6404 11.0937 56.5274 10.7924 56.5274 10.4345C56.5274 10.0767 56.6404 9.77529 56.8853 9.54927C57.1301 9.30441 57.4315 9.19141 57.7893 9.19141C58.1472 9.19141 58.4486 9.30441 58.6934 9.54927C58.9383 9.77529 59.0513 10.0767 59.0513 10.4345ZM58.8064 12.6005V20.5677H56.7346V12.6005H58.8064Z" fill="white"/>
    <path d="M65.2105 18.4771L65.832 20.0969C65.1728 20.5301 64.3817 20.7561 63.4777 20.7561C62.5547 20.7561 61.8767 20.4924 61.4058 19.965C60.9349 19.4376 60.7089 18.6466 60.7089 17.6107V14.3145H59.4093V12.5817H60.7277V9.75647H62.7808V12.5817H65.4177V14.3145H62.7808V17.4788C62.7808 18.4206 63.1575 18.8914 63.9109 18.8914C64.2876 18.8914 64.7396 18.7596 65.2105 18.4771Z" fill="white"/>
    <path d="M73.837 16.4052C73.837 16.65 73.8182 16.9514 73.7617 17.3092H67.7722C68.0735 18.4393 68.8458 19.0044 70.0889 19.0044C71.0118 19.0044 71.8782 18.7407 72.6693 18.1945L73.4792 19.6448C72.4621 20.3793 71.3132 20.7372 69.9947 20.7372C68.6009 20.7372 67.5273 20.3417 66.7739 19.5318C66.0394 18.7407 65.6627 17.7424 65.6627 16.5747C65.6627 15.3504 66.0394 14.3521 66.8116 13.5799C67.5838 12.7888 68.5821 12.3933 69.8064 12.3933C70.9741 12.3933 71.9159 12.7512 72.6693 13.4669C73.4603 14.2015 73.837 15.1809 73.837 16.4052ZM69.844 14.1073C69.3355 14.1073 68.8834 14.258 68.5256 14.5593C68.1677 14.8607 67.9229 15.2562 67.791 15.7836H71.8405C71.7464 15.2751 71.5203 14.8607 71.1625 14.5593C70.8046 14.258 70.3714 14.1073 69.844 14.1073Z" fill="white"/>
    <path d="M77.3025 20.7749C75.9087 20.7749 74.8163 20.2664 74.0064 19.2305L75.0988 17.9309C75.3814 18.2699 75.7204 18.5336 76.1159 18.7408C76.5115 18.9479 76.907 19.0421 77.3025 19.0421C77.6227 19.0421 77.8676 18.9668 78.0936 18.8161C78.3008 18.6654 78.4138 18.4771 78.4138 18.251C78.4138 17.9685 78.2254 17.7425 77.8487 17.573C77.7357 17.5165 77.4155 17.4035 76.907 17.2151C76.4549 17.0456 76.1159 16.9138 75.8899 16.7819C74.967 16.3487 74.5149 15.6518 74.5149 14.7101C74.5149 14.0132 74.7786 13.4481 75.3249 12.9773C75.8522 12.5252 76.5868 12.2992 77.4909 12.2992C78.621 12.2992 79.5627 12.6759 80.2785 13.4481L79.2614 14.7854C78.6963 14.258 78.0936 13.9943 77.4344 13.9943C77.1707 13.9943 76.9447 14.0508 76.7751 14.1827C76.6056 14.3145 76.5115 14.4652 76.5115 14.6536C76.5115 14.9926 76.7375 15.2374 77.2084 15.3881C78.2443 15.7837 78.8847 16.0285 79.1295 16.1604C80.0336 16.6312 80.4668 17.3093 80.4668 18.1757C80.4668 18.9291 80.1654 19.5318 79.5816 20.0215C79.0165 20.5301 78.2631 20.7749 77.3025 20.7749Z" fill="white"/>
    <path d="M80.8433 16.5747C80.8433 15.3881 81.2389 14.4087 82.0488 13.5988C82.8587 12.7889 83.8758 12.3745 85.1189 12.3745C86.362 12.3745 87.3791 12.7889 88.189 13.5988C88.98 14.3899 89.3944 15.3881 89.3944 16.5747C89.3944 17.7613 88.9989 18.7596 88.189 19.5506C87.3791 20.3605 86.362 20.7561 85.1189 20.7561C83.8758 20.7561 82.8587 20.3605 82.0488 19.5506C81.2389 18.7596 80.8433 17.7613 80.8433 16.5747ZM83.5367 18.1945C83.9511 18.6277 84.4785 18.8537 85.1189 18.8537C85.7404 18.8537 86.249 18.6277 86.6822 18.1945C87.1154 17.7425 87.3225 17.1963 87.3225 16.5747C87.3225 15.9532 87.1154 15.4069 86.6822 14.9737C86.249 14.5405 85.7404 14.3145 85.1189 14.3145C84.4785 14.3145 83.9511 14.5405 83.5367 14.9737C83.1224 15.4069 82.9152 15.9343 82.9152 16.5747C82.9152 17.2151 83.1224 17.7613 83.5367 18.1945Z" fill="white"/>
    <path d="M92.314 20.5677H90.2422V12.6005H92.2575V13.7118C92.4647 13.3162 92.8037 12.996 93.2558 12.7512C93.7078 12.5063 94.1975 12.3933 94.7626 12.3933C95.629 12.3933 96.3636 12.6758 96.9663 13.2597C97.569 13.8436 97.8704 14.6535 97.8704 15.7083V20.5865H95.7985V16.2733C95.7985 15.6518 95.6478 15.1621 95.3465 14.823C95.0451 14.484 94.6307 14.2956 94.1222 14.2956C93.576 14.2956 93.1428 14.484 92.8038 14.8607C92.4647 15.2374 92.2952 15.7271 92.2952 16.311V20.5677H92.314Z" fill="white"/>
    <path d="M101.411 10.4345C101.411 10.7924 101.298 11.0937 101.053 11.3386C100.808 11.5834 100.507 11.6965 100.149 11.6965C99.7913 11.6965 99.49 11.5834 99.2451 11.3386C99.0003 11.0937 98.8873 10.7924 98.8873 10.4345C98.8873 10.0767 99.0003 9.77529 99.2451 9.54927C99.49 9.30441 99.7913 9.19141 100.149 9.19141C100.507 9.19141 100.808 9.30441 101.053 9.54927C101.298 9.77529 101.411 10.0767 101.411 10.4345ZM101.166 12.6005V20.5677H99.0944V12.6005H101.166Z" fill="white"/>
    <path d="M106.233 20.7561C105.009 20.7561 103.992 20.3606 103.182 19.5884C102.391 18.8161 101.995 17.8179 101.995 16.5936C101.995 15.3693 102.391 14.3711 103.201 13.5988C104.011 12.8078 105.046 12.4122 106.29 12.4122C107.099 12.4122 107.853 12.6006 108.512 12.9961C109.171 13.3917 109.68 13.9379 110 14.6348L108.343 15.5388C107.853 14.7289 107.175 14.3334 106.308 14.3334C105.649 14.3334 105.103 14.5594 104.689 14.9926C104.255 15.4258 104.048 15.9532 104.048 16.5936C104.048 17.2528 104.255 17.799 104.67 18.2322C105.103 18.6654 105.63 18.8726 106.271 18.8726C106.685 18.8726 107.081 18.7596 107.476 18.5336C107.853 18.3076 108.135 18.0251 108.305 17.6672L109.981 18.6466C109.642 19.287 109.134 19.7955 108.474 20.1911C107.796 20.5489 107.043 20.7561 106.233 20.7561Z" fill="white"/>
    <defs>
    <linearGradient id="paint0_linear_14094_3114" x1="3.44647" y1="16.2855" x2="31.0777" y2="16.2855" gradientUnits="userSpaceOnUse">
    <stop stop-color="#FFB3FF"/>
    <stop offset="0.5335" stop-color="#FF76DF"/>
    <stop offset="1" stop-color="#C239C6"/>
    </linearGradient>
    </defs>
    </svg>
    