<svg width="390" height="125" version="1.1" id="Layer_1" xmlns="http://www.w3.org/2000/svg" xmlns:xlink="http://www.w3.org/1999/xlink" x="0px" y="0px"
	 viewBox="0 0 300 100" style="enable-background:new 0 0 300 100;" xml:space="preserve">
<g>
	<g>
		<path d="M111.4,92.9c-2.3,2.5-5.3,3.7-8.6,3.7c-3.2,0-6.1-1.2-8.3-3.4c-3-3-3-6.2-3-13.1c0-6.9,0-10,3-13.1c2.2-2.2,5-3.4,8.3-3.4
			c6.2,0,10.3,4,11.3,9.7h-3.4c-0.9-4.1-3.8-6.6-7.8-6.6c-2.1,0-4.2,0.9-5.6,2.3c-2,2.1-2.3,4.3-2.3,11c0,6.8,0.2,9,2.3,11.1
			c1.4,1.4,3.5,2.3,5.6,2.3c2.4,0,4.6-1,6.1-2.8c1.3-1.6,1.8-3.4,1.8-5.9v-2.5h-7.9v-3h11.4v5.1C114.1,88.3,113.4,90.8,111.4,92.9z"
			/>
		<path d="M140.8,96.4l-7.4-14.3h-7.8v14.3h-3.4V64.1h12.4c5.6,0,9.6,3.4,9.6,9c0,4.7-2.9,7.8-7,8.7l7.7,14.7H140.8z M134.3,67.2
			h-8.6V79h8.6c3.8,0,6.4-2,6.4-5.9C140.7,69.2,138,67.2,134.3,67.2z"/>
		<path d="M170.3,93.3c-2.2,2.2-5,3.4-8.3,3.4c-3.2,0-6.1-1.2-8.3-3.4c-3-3-3-6.2-3-13.1c0-6.9,0-10,3-13.1c2.2-2.2,5-3.4,8.3-3.4
			c3.2,0,6.1,1.2,8.3,3.4c3,3,3,6.2,3,13.1C173.4,87.1,173.4,90.3,170.3,93.3z M167.6,69.2c-1.4-1.5-3.4-2.3-5.6-2.3
			c-2.1,0-4.2,0.9-5.6,2.3c-2,2.1-2.3,4.3-2.3,11c0,6.8,0.2,8.9,2.3,11c1.4,1.4,3.5,2.3,5.6,2.3c2.1,0,4.2-0.9,5.6-2.3
			c2-2.1,2.3-4.3,2.3-11C169.9,73.5,169.7,71.3,167.6,69.2z"/>
		<path d="M192.3,96.7c-6.5,0-11.3-4.5-11.3-10.9V64.1h3.5v21.4c0,4.9,3.1,8.1,7.8,8.1c4.7,0,7.8-3.2,7.8-8.1V64.1h3.4v21.6
			C203.6,92.2,198.8,96.7,192.3,96.7z"/>
		<path d="M224.5,83.1H216v13.3h-3.4V64.1h12c5.9,0,10,3.7,10,9.5C234.5,79.4,230.4,83.1,224.5,83.1z M224.2,67.2H216V80h8.3
			c4,0,6.9-2.2,6.9-6.4C231.1,69.3,228.3,67.2,224.2,67.2z"/>
		<g>
			<path d="M89.8,49.5v-5.1l13.8-21.6H90.4v-5.6h20.7v5L97.2,43.8h13.8v5.6H89.8z"/>
			<path d="M116.6,49.5V17.1h21.3v5.6h-15v7.6h12.8V36H123v7.9h15v5.6H116.6z"/>
			<path d="M161.3,49.5L155,36.6h-4.5v12.9h-6.3V17.1h12.7c6.6,0,10.5,4.5,10.5,9.9c0,4.5-2.8,7.4-5.9,8.5l7.2,13.9H161.3z
				 M156.4,22.8h-5.9v8.5h5.9c2.8,0,4.6-1.8,4.6-4.3C161,24.5,159.1,22.8,156.4,22.8z"/>
			<path d="M192.3,45.9c-2.3,2.3-5,3.5-8.7,3.5c-3.7,0-6.5-1.3-8.8-3.5c-3.3-3.3-3.2-7.3-3.2-12.9c0-5.6-0.1-9.6,3.2-12.9
				c2.3-2.3,5.1-3.5,8.8-3.5c3.7,0,6.4,1.3,8.7,3.5c3.3,3.3,3.2,7.3,3.2,12.9C195.6,38.6,195.6,42.6,192.3,45.9z M187.7,23.9
				c-0.9-1-2.3-1.7-4-1.7c-1.7,0-3.2,0.7-4.1,1.7c-1.2,1.4-1.5,2.9-1.5,9.1c0,6.2,0.3,7.7,1.5,9.1c0.9,1,2.4,1.7,4.1,1.7
				c1.7,0,3.1-0.7,4-1.7c1.2-1.4,1.6-2.9,1.6-9.1C189.3,26.8,188.9,25.3,187.7,23.9z"/>
			<path d="M236.2,45.9c-2.3,2.3-5,3.5-8.7,3.5c-3.7,0-6.5-1.3-8.8-3.5c-3.3-3.3-3.2-7.3-3.2-12.9c0-5.6-0.1-9.6,3.2-12.9
				c2.3-2.3,5.1-3.5,8.8-3.5c3.7,0,6.4,1.3,8.7,3.5c3.3,3.3,3.2,7.3,3.2,12.9C239.4,38.6,239.5,42.6,236.2,45.9z M231.5,23.9
				c-0.9-1-2.3-1.7-4-1.7c-1.7,0-3.2,0.7-4.1,1.7c-1.2,1.4-1.5,2.9-1.5,9.1c0,6.2,0.3,7.7,1.5,9.1c0.9,1,2.4,1.7,4.1,1.7
				c1.7,0,3.1-0.7,4-1.7c1.2-1.4,1.6-2.9,1.6-9.1C233.1,26.8,232.7,25.3,231.5,23.9z"/>
			<path d="M265,49.5l-12.8-19.8v19.8h-6.3V17.1h5.6l12.8,19.8V17.1h6.3v32.3H265z"/>
			<path d="M278.2,49.5V17.1h21.3v5.6h-15v7.6h12.8V36h-12.8v7.9h15v5.6H278.2z"/>
			<path d="M202.5,49.5v-6.7h6.8v6.7H202.5z"/>
		</g>
	</g>
	<g>
		<path d="M36.7,76.7c20.2,0,36.7-16.5,36.7-36.7c0-20.2-16.5-36.7-36.7-36.7C16.5,3.3,0,19.8,0,40C0,60.2,16.5,76.7,36.7,76.7z
			 M36.7,17c12.7,0,23,10.3,23,23c0,12.7-10.3,23-23,23c-12.7,0-23-10.3-23-23C13.7,27.3,24,17,36.7,17z"/>
		<polygon points="61.9,86 0,86 0,96.7 73.4,96.7 73.4,75.7 61.9,75.7 		"/>
	</g>
</g>
</svg>
