<svg xmlns="http://www.w3.org/2000/svg" width="2270" height="1299" viewBox="0 0 2270 1299"><path fill="#2F39BF" fill-rule="evenodd" d="M1310.507 1.098c-23.028 1.553-47.883 6.72-69.007 14.346-9.358 3.378-30.407 13.337-43.937 20.787l-5.937 3.269-211.563.5-211.563.5-4.5 2.114c-5.663 2.661-11.21 8.239-14.165 14.243-1.828 3.714-2.291 6.344-2.31 13.143-.022 7.598.293 9.075 2.975 13.921 3.66 6.612 9.846 11.324 18 13.711 5.588 1.636 18.053 1.794 181.658 2.312l175.658.556-8.658 13.059c-10.733 16.189-17.534 29.137-24.72 47.066-3.058 7.631-6.005 14.325-6.549 14.875-.649.656-65.049 1.172-187.189 1.5l-186.2.5-4.551 2.106c-14.212 6.576-20.94 21.594-16.506 36.848 1.311 4.508 2.852 6.971 6.882 11.001 9.891 9.892-6.242 8.975 167.991 9.545l152.816.5-2.816 2.552c-1.549 1.403-5.066 4.311-7.816 6.461-19.944 15.595-37.002 34.749-50.933 57.193-3.222 5.19-6.663 9.552-7.89 10-1.198.437-90.602.794-198.677.794H554.5l-5.27 2.382c-6.966 3.148-14.299 11.175-16.535 18.1-3.689 11.421-1.248 21.523 7.275 30.108 9.56 9.629-9.878 8.714 201.887 9.506l186.357.698-.637 3.603c-2.769 15.66-3.763 27.649-3.786 45.676-.015 11.04.291 21.953.679 24.25l.706 4.177h-17.772c-15.902 0-18.221.217-22.028 2.06-3.139 1.52-4.818 3.221-6.397 6.484-1.99 4.11-2.118 5.692-1.81 22.369.369 19.983.804 21.386 7.936 25.587 3.091 1.821 5.719 2.045 29.395 2.5l26 .5 7.547 14.568c10.801 20.851 20.387 34.465 37.249 52.906l7.797 8.526-127.797.5-127.796.5-5.586 2.62c-14.22 6.668-20.843 21.292-16.465 36.354 1.356 4.664 2.831 6.958 7.373 11.468 10.179 10.106-35.137 9.065 392.043 9.01 206.599-.026 386.885-.44 400.635-.92 26.195-.915 33.475-1.884 53.209-7.083 76.449-20.143 137.689-82.736 157.337-160.813 8.627-34.282 9.097-70.308 1.368-105.005-17.073-76.651-65.347-133.097-138.189-161.584-6.64-2.597-12.708-5.47-13.484-6.384-.777-.915-2.428-5.938-3.671-11.163-12.933-54.379-45.583-105.626-89.659-140.726-14.285-11.377-28.112-20.051-45.911-28.803-32.041-15.755-59.786-23.177-95.218-25.472-8.13-.527-15.682-.902-16.782-.834s-7.397.488-13.993.933M561.309 454.94c-7.227 3.293-8.309 6.803-8.309 26.955 0 9.562.464 18.204 1.064 19.79 1.834 4.854 5.84 8.154 11.337 9.336 3.575.77 37.519 1.005 113.599.788 106.413-.303 108.565-.347 111.895-2.309 7.126-4.197 7.572-5.627 7.897-25.32.277-16.774.174-17.908-2-22.121-1.261-2.443-3.562-5.368-5.115-6.5-2.805-2.046-3.531-2.06-114.5-2.294-108.06-.227-111.813-.173-115.868 1.675M2143.5 819.116c-32.459 4.716-57.314 19.583-67.514 40.384-4.388 8.948-5.986 16.555-5.986 28.5 0 18.624 4.739 30.874 16.43 42.469 14.586 14.465 36.413 22.377 78.57 28.479 32.345 4.682 48.186 10.64 58.035 21.829 10.444 11.865 8.87 31.402-3.47 43.073-8.983 8.496-20.763 13.128-38.688 15.214-25.058 2.916-49.448-2.312-67.844-14.542-6.986-4.645-18.394-15.939-21.627-21.412-1.01-1.71-2.202-3.11-2.648-3.11-.733 0-27.143 17.25-29.062 18.982-1.194 1.078 10.265 17.64 16.872 24.386 11.216 11.452 23.719 19.099 40.221 24.6 23.664 7.889 58.336 9.124 86.211 3.071 35.153-7.634 57.252-25.779 64.596-53.039 2.396-8.892 2.398-28.121.004-36.929-8.687-31.961-35.373-47.54-97.6-56.976-32.035-4.858-44.065-8.642-52.927-16.648-6.157-5.562-8.249-10.301-8.249-18.68 0-16.381 11.517-28.403 32.823-34.26 8.149-2.24 29.406-3.096 38.894-1.565 16.266 2.624 29.8 8.896 40.426 18.733 3.757 3.479 7.106 6.325 7.443 6.325.814 0 27.721-16.901 29.395-18.463 1.06-.989.547-2.177-2.725-6.316-14.873-18.816-34.608-29.375-63.08-33.75-10.409-1.599-38.522-1.805-48.5-.355m-1591.901 2.392c-54.936 8.969-92.149 44.022-103.783 97.758-2.933 13.547-3.187 41.561-.498 55.004 8.331 41.652 32.82 73.387 68.481 88.745 17.502 7.538 35.342 10.97 57.073 10.979 29.317.013 55.012-6.839 75.091-20.023 25.633-16.832 41.991-41.178 49.701-73.971 3.397-14.447 4.253-37.961 1.951-53.573-4.145-28.117-14.963-51.317-32.497-69.69-16.764-17.566-36.508-28.166-62.919-33.778-12.99-2.76-40.016-3.505-52.6-1.451M106.5 822.583c-55.643 8.591-92.966 44.406-104.162 99.953-2.476 12.286-2.483 40.325-.012 52.734 8.991 45.156 36.43 77.275 77.878 91.157 16.578 5.552 26.633 6.966 49.796 6.999 19.883.028 22.344-.17 32.725-2.637 22.769-5.412 42.559-15.391 58.744-29.623l3.791-3.333-4.88-4.998c-2.684-2.748-8.841-8.631-13.682-13.072l-8.803-8.075-2.697 2.156c-22.451 17.94-47.506 25.682-74.779 23.106-24.556-2.32-42.317-9.98-56.755-24.479-7.294-7.324-10.687-12.234-15.695-22.712-5.444-11.387-7.956-21.936-8.636-36.259-1.273-26.804 6.979-50.251 24.031-68.279 12.04-12.729 26.17-20.505 45.136-24.84 11.924-2.725 34.013-2.508 46 .451 11.29 2.788 27.084 10.472 35.257 17.155 5.521 4.514 6.476 4.963 8.111 3.814 1.02-.715 7.081-6.328 13.47-12.472l11.616-11.17-5.727-5.252c-16.093-14.756-40.7-26.388-64.153-30.325-11.546-1.938-34.018-1.937-46.574.001M248 946.5V1069h172v-37H289V824h-41zm729 .015v122.645l55.75-.408c61.222-.448 64.589-.727 84.25-6.975 52.513-16.688 83.105-65.561 78.902-126.05-2.226-32.036-14.855-60.233-35.844-80.034-15.27-14.405-33.305-23.561-56.814-28.844-9.286-2.087-12.482-2.208-67.994-2.584L977 823.87zm834.374-120.984c.323.842 21.967 33.216 48.097 71.942l47.51 70.411.26 50.308.259 50.308 19.75.271 19.75.271V968.737l49.001-70.789c26.95-38.934 49.277-71.508 49.614-72.387.553-1.44-1.771-1.571-23.683-1.329l-24.295.268-35.069 53.235c-19.287 29.28-35.35 53.242-35.695 53.25s-15.81-24.06-34.368-53.485l-33.742-53.5h-23.989c-21.128 0-23.918.183-23.4 1.531M728.269 906.25c.346 78.9.418 81.501 2.488 89.944 12.792 52.173 55.785 80.624 115.807 76.638 45.909-3.049 79.089-30.53 89.43-74.069 3.376-14.215 3.974-29.653 3.99-103.013L940 825h-40v73.276c0 45.514-.401 76.471-1.057 81.708-2.173 17.327-10.111 33.794-20.74 43.025-5.502 4.778-18.362 11.218-26.203 13.122-8.384 2.035-27.787 1.511-37.3-1.009-17.603-4.662-31.375-15.522-38.721-30.533-7.808-15.954-7.397-10.642-7.74-99.839l-.307-79.75h-40.02zm480.525-76.5c.982 2.612 21.343 57.501 45.246 121.975l43.46 117.224 17.643.026c15.891.022 17.71-.149 18.322-1.725 13.862-35.714 35.349-94.996 45.489-125.5 7.267-21.862 13.378-39.75 13.58-39.75s6.286 18.112 13.519 40.25c7.528 23.039 20.248 58.743 29.749 83.5l16.597 43.25 18.05-.006 18.051-.006 44.387-120.744a477836 477836 0 0 1 44.857-121.994c.367-.977-4.412-1.246-21.887-1.233l-22.357.016-30.951 93.482c-17.023 51.416-31.235 93.146-31.582 92.734-.475-.565-54.006-153.474-63.539-181.499l-1.616-4.75-13.156.012-13.156.011-31.985 93.075c-17.592 51.191-32.217 93.217-32.5 93.392s-14.634-41.715-31.89-93.087L1251.75 825h-44.742zm469.848.481c-1.292 2.898-26.265 57.59-55.495 121.537-29.231 63.948-53.147 116.486-53.147 116.75 0 .265 9.375.482 20.834.482h20.834l11.513-25.25 11.513-25.25 67.929-.257 67.928-.257 11.897 25.507 11.897 25.507h42.49l-10.442-22.75c-5.742-12.513-30.813-67.3-55.713-121.75l-45.271-99-22.209-.269-22.208-.269zM553.834 857.567c-16.315 2.952-30.259 9.997-42.013 21.226-16.642 15.9-25.136 36.023-26.494 62.766-1.992 39.207 15.744 72.819 46.14 87.445 15.518 7.467 20.762 8.507 42.533 8.433 15.755-.053 19.687-.386 26.5-2.24 31.619-8.605 52.606-31.806 58.931-65.148 2.2-11.598 2.049-32.104-.321-43.549-7.757-37.459-32.731-62.89-67.758-68.998-10.507-1.832-27.194-1.804-37.518.065M1017 946.076v85.076l36.75-.382c36.739-.382 36.753-.382 45.701-3.13 14.765-4.533 23.829-9.809 33.64-19.582 16.639-16.576 23.909-35.605 23.909-62.581 0-13.973-1.536-22.745-6.017-34.364-10.873-28.196-34.464-45.354-67.483-49.081-4.95-.558-21.937-1.019-37.75-1.024L1017 861zm660.303-23.735c-13.858 30.887-25.494 56.947-25.857 57.909-.623 1.653 2.237 1.75 51.447 1.75 28.659 0 52.107-.364 52.107-.808 0-1.129-50.88-113.481-51.773-114.324-.4-.378-12.066 24.585-25.924 55.473M1421.5 1136.359c-9.964 4.602-11.19 17.461-2.288 23.987 3.375 2.474 10.069 2.61 14.529.295 11.631-6.039 7.893-23.741-5.328-25.227-2.176-.245-5.244.175-6.913.945m138.5-.707c-11.593 3.819-13.608 18.317-3.469 24.96 5.773 3.783 15.975 1.178 19.107-4.878 2.109-4.079 2.048-11.038-.126-14.356-2.754-4.203-10.951-7.228-15.512-5.726m267 .842c-11.163 2.502-22.3 8.747-31.008 17.385-13.239 13.134-19.378 27.601-19.357 45.621.018 15.697 3.918 27.055 13.805 40.208 7.886 10.492 21.278 19.191 35.06 22.776 11.558 3.006 29.76 1.663 41-3.026 11.825-4.932 25.44-17.221 31.297-28.248 5.956-11.213 7.707-18.461 7.661-31.71-.037-10.734-.36-12.901-3.06-20.544-9.207-26.066-31.634-42.66-58.898-43.581-6.328-.214-12.387.197-16.5 1.119m-532 62.576v63.069l28.25-.383c31.633-.43 34.331-.861 48.25-7.715 4.4-2.167 10.325-5.99 13.168-8.496 23.83-21.01 23.872-72.664.075-93.033-5.302-4.539-15.738-9.881-24.243-12.41-10.045-2.988-22.169-4.084-45.25-4.094L1295 1136zm447 .93v63h22v-126h-22zm-142-38v12h-13v20h13l.008 20.25c.008 21.749.989 30.874 3.936 36.621 4.356 8.494 10.518 11.174 27.306 11.881l11.75.495V1242h-7.566c-4.161 0-8.389-.441-9.395-.979-3.315-1.774-4.039-6.645-4.039-27.17V1194h21v-20h-21v-24h-22zm-282 37.484v41.764l14.75-.481c12.586-.41 15.745-.851 21.536-3.012 8.88-3.315 14.419-7.238 17.857-12.65 5.042-7.936 6.329-13.408 6.255-26.605-.081-14.519-2.249-21.404-8.805-27.959-8.139-8.14-18.291-11.424-37.843-12.244l-13.75-.577zm509.329-39.55c-14.474 5.211-24.659 17.436-27.571 33.094-3.228 17.355 7.035 36.3 23.951 44.217 5.528 2.586 8.33 3.237 15.413 3.575 13.414.642 23.416-3.342 32.337-12.879 20.531-21.949 12.188-57.324-16.006-67.873-7.311-2.735-20.721-2.799-28.124-.134m-347.553 13.545c-9.638 2.653-20.03 11.218-24.688 20.348-9.07 17.78-5.709 41.647 7.761 55.118 11.671 11.67 32.113 15.028 46.393 7.62l4.758-2.469-.006 3.202c-.022 12.774-8.445 20.702-21.994 20.702-8.691 0-13.593-2.21-20-9.015l-4.5-4.779-7.423 6.89c-7.272 6.749-7.394 6.943-6.012 9.526 2.122 3.964 14.216 12.965 20.662 15.377 3.127 1.17 9.344 2.386 13.815 2.701 21.016 1.483 37.572-7.985 44.673-25.547 2.251-5.568 2.289-6.354 2.572-52.403l.288-46.75h-21.948l-.314 3.022-.313 3.021-3.5-2.346c-8.439-5.657-19.426-7.19-30.224-4.218m195.106.766c-7.276 2.549-13.943 7.174-18.185 12.617l-2.753 3.532 6.751 6.803c3.713 3.742 7.092 6.803 7.508 6.803s2.628-2.031 4.915-4.512c6.703-7.272 17.497-9.324 25.978-4.939 3.765 1.947 5.64 4.933 6.506 10.357l.703 4.405-3.402-.699c-12.992-2.668-25.465-1.454-35.617 3.466-10.903 5.284-15.959 14.285-15.061 26.806.58 8.079 3.261 13.664 8.857 18.454 5.431 4.649 11.617 6.662 20.47 6.662 7.823 0 13.86-1.699 19.677-5.539 2.05-1.354 3.963-2.461 4.25-2.461s.521 1.35.521 3v3h22l-.016-30.25c-.017-32.924-.687-38.681-5.321-45.683-5.704-8.619-15.905-13.191-30.663-13.746-9.054-.339-11.412-.074-17.118 1.924m278.618-1.546c-5.426.721-12.916 3.545-18.03 6.796-16.406 10.433-23.827 30.637-18.912 51.491 8.093 34.335 52.908 45.485 76.749 19.096 2.031-2.248 3.693-4.436 3.693-4.862 0-.425-3.052-3.802-6.781-7.503l-6.782-6.729-5.468 5.151c-6.644 6.258-10.206 7.861-17.469 7.861-6.797 0-11.006-1.66-15.431-6.085-5.246-5.246-7.022-10.172-7.047-19.551-.019-6.988.372-8.89 2.771-13.483 3.716-7.113 9.322-11.06 16.56-11.66 7.071-.587 11.624 1.009 18.228 6.388 2.965 2.415 5.747 4.391 6.182 4.391s3.834-3.067 7.555-6.816l6.764-6.817-5.199-5.198c-6.271-6.271-15.097-10.755-23.883-12.134-6.551-1.028-8.024-1.065-13.5-.336m78.786.697c-18.01 5.864-29.286 23.231-29.286 45.104 0 8.813 1.815 17.256 5.088 23.673 2.74 5.369 10.293 13.389 15.378 16.326 13.443 7.765 35.205 7.456 48.034-.682 4.035-2.559 12.5-10.491 12.5-11.711 0-.363-3.147-3.782-6.992-7.598l-6.993-6.939-4.257 4.162c-9.6 9.385-23.04 10.994-33.124 3.966-2.654-1.851-7.602-10.576-7.624-13.447-.008-.972 6.551-1.25 29.49-1.25h29.5l.134-3.75c.392-10.931-1.645-22.41-5.217-29.413-3.425-6.712-10.313-13.29-17.183-16.407-5.186-2.353-7.83-2.877-15.734-3.117-6.093-.186-11.011.202-13.714 1.083m86.55.461c-7.565 2.502-11.609 5.124-17.321 11.231l-4.773 5.102 6.852 6.905c3.769 3.798 7.116 6.905 7.438 6.905s2.858-2.19 5.635-4.866c3.804-3.667 6.309-5.169 10.162-6.093 12.021-2.884 22.171 3.321 22.171 13.552 0 2.468-.231 2.609-3.25 1.989-12.824-2.637-25.359-1.401-35.464 3.496-10.863 5.265-16.058 14.72-15.041 27.379.605 7.546 3.423 13.247 8.837 17.881 5.431 4.649 11.617 6.662 20.47 6.662 7.823 0 13.86-1.699 19.677-5.539 2.05-1.354 3.963-2.461 4.25-2.461s.521 1.35.521 3v3h22.122l-.311-33.324-.311-33.324-3.018-5.897c-3.386-6.617-9.452-11.854-17.196-14.846-7.221-2.789-24.071-3.192-31.45-.752m97.923-.491c-2.057.766-4.854 2.122-6.215 3.013-3.176 2.081-3.544 2.042-3.544-.379 0-1.879-.667-2-11-2h-11v89h22l.006-27.25c.003-15.659.445-28.832 1.038-30.969 4.101-14.767 23.804-17.528 30.456-4.268 1.836 3.661 2.025 6.338 2.306 32.737l.307 28.75h22.014l-.332-31.75c-.316-30.246-.439-32.017-2.597-37.397-3.029-7.554-9.004-14.122-15.928-17.509-4.673-2.287-7.234-2.821-14.714-3.069-5.97-.199-10.331.173-12.797 1.091m-801.519 44.884.26 44.25 10.75.284 10.75.284V1174h-22.021zm136.76.25v44.5h22v-89h-22zm-413.762 7.25.262 36.75 5.75.3c5.228.273 5.75.114 5.75-1.75 0-2.511.09-2.514 4.193-.123 8.303 4.837 18.951 3.446 26.657-3.482 2.71-2.436 5.61-6.137 6.445-8.225 5.47-13.67 1.027-29.419-10.153-35.991-6.266-3.683-17.607-3.932-23.392-.513l-3.75 2.217V1189h-12.025zm346.146-31.892c-7.697 3.598-11.384 10.94-11.384 22.669 0 7.623 1.353 12.111 5.081 16.849 4.918 6.251 16.354 8.426 24.607 4.679 14.682-6.666 16.2-32.838 2.466-42.509-5.493-3.868-14.534-4.602-20.77-1.688m554.22-.875c-4.736 1.508-11.604 9.183-11.604 12.967 0 .692 5.817 1.05 17.067 1.05h17.068l-.694-2.25c-1.374-4.454-3.463-7.63-6.391-9.714-3.381-2.408-11.107-3.435-15.446-2.053m-843.326 19.267 10.239 26.094 9.746 24.843-3.631 9.176c-1.998 5.047-3.632 9.526-3.632 9.954s2.746.644 6.103.481l6.102-.298 13.423-33.5c7.383-18.425 13.691-34.535 14.019-35.801.581-2.243.437-2.293-5.754-2l-6.35.301-6.499 17.75c-3.575 9.763-6.735 17.746-7.022 17.741-.287-.006-3.424-8.106-6.972-18l-6.449-17.991h-6.908c-5.121 0-6.78.323-6.415 1.25m-38.429 10.27c-5.645 3.066-8.527 14.528-5.485 21.809 4.305 10.302 17.243 11.83 23.356 2.759 2.751-4.083 3.186-14.435.8-19.049-3.409-6.593-12.013-9.136-18.671-5.519m522.062 5.761c-6.17 4.158-6.279 10.466-.25 14.416 5.416 3.549 20.975 1.098 25.15-3.961.764-.925 1.181-3.368 1-5.852-.307-4.209-.376-4.281-5.311-5.555-8.179-2.111-16.623-1.721-20.589.952m443.019-.013c-10.01 6.746-2.858 17.645 10.57 16.107 5.68-.65 12.369-3.286 14.311-5.639.764-.925 1.181-3.368 1-5.852-.307-4.209-.376-4.281-5.311-5.555-8.161-2.106-16.624-1.72-20.57.939"/></svg>