<svg xmlns="http://www.w3.org/2000/svg" width="3204" height="2071" viewBox="0 0 3204 2071"><path d="m3060 332 97-250-4-16-956 252c102-148 67-266 67-266s-305 195-536 190-305-67-659 46-454 459-557 534c-102 74-423 321-423 321l290-93s-82 78-251 305v1c27 38 146 195 264 161 13-4 28-11 45-19 53 30 124 59 201 67 0 0-52-60-96-130l36-23-6 4 111 40-12-104h1l108 40-13-95 41-20 113-428 468-320-37 94c-95 233-273 288-273 288l-74 29c-56 65-79 81-98 301 45-12 87-14 126-4 200 54 269 295 215 362-13 16-45 45-86 78h-81l-1 66-8 7h-83l-1 64-22 16c-77 2-176-66-176-66 1 62 52 157 52 157l9-5-8 6s208 138 339 87c116-46 417-283 677-395l786-208 104-268-599 158v-242l703-185 104-269-807 213V572ZM1633 843l187-49 2 9-58 151-193 51Zm64 323-193 51 63-162 186-49 3 9Zm252-54-193 51 63-162 186-49 3 9Zm-5305-455 6-31c17-90 51-167 114-225 46-43 114-69 191-69 49 0 86 7 109 15l-43 148c-18-6-35-9-60-9-69 0-109 72-122 138l-6 33h146l-26 135h-143l-119 618h-192l118-618m657 618 6-126h-5c-60 100-132 138-192 138-110 0-164-94-164-226 0-228 114-552 438-552 75 0 151 13 197 31l-83 419c-18 88-32 234-31 316Zm69-618c-15-3-29-4-40-4-126 0-194 251-196 362 0 66 10 114 57 114 53 0 102-87 130-224Zm234 453c31 17 68 32 122 31 56-2 86-37 86-85 0-42-20-71-72-112-65-53-96-119-96-184 0-138 108-251 279-251 67 0 114 12 142 28l-42 140c-21-12-57-23-89-23-62 0-100 32-100 83 0 39 22 62 57 91 85 65 113 139 113 197 0 167-116 259-289 259-69 0-131-20-157-38Zm851-792-39 204h296l-25 135h-297l-66 350c-5 26-6 49-6 63 0 46 23 63 58 63 14 0 34 0 52-3l-23 145c-35 9-78 12-115 12-116 0-173-64-173-166 0-34 6-76 14-113l66-351h-87l26-136h88l30-155Z"/></svg>