<?xml version="1.0" encoding="UTF-8"?>
<!-- Generated by Pixelmator Pro 3.8 -->
<svg width="3213" height="2071" viewBox="0 0 3213 2071" xmlns="http://www.w3.org/2000/svg">
    <path id="Percorso" fill="#ffffff" stroke="none" d="M 3069 332 L 3166 82 L 3162 66 L 2206 318 C 2308 170 2273 52 2273 52 C 2273 52 1968 247 1737 242 C 1506 237 1432 175 1078 288 C 724 401 624 747 521 822 C 419 896 98 1143 98 1143 L 388 1050 C 388 1050 306 1128 137 1355 L 137 1356 C 164 1394 283 1551 401 1517 C 414 1513 429 1506 446 1498 C 499 1528 570 1557 647 1565 C 647 1565 595 1505 551 1435 L 587 1412 L 581 1416 L 692 1456 L 680 1352 L 681 1352 L 789 1392 L 776 1297 L 817 1277 L 930 849 L 1398 529 L 1361 623 C 1266 856 1088 911 1088 911 L 1014 940 C 958 1005 935 1021 916 1241 C 961 1229 1003 1227 1042 1237 C 1242 1291 1311 1532 1257 1599 C 1244 1615 1212 1644 1171 1677 L 1090 1677 L 1089 1743 L 1081 1750 L 998 1750 L 997 1814 L 975 1830 C 898 1832 799 1764 799 1764 C 800 1826 851 1921 851 1921 L 860 1916 L 852 1922 C 852 1922 1060 2060 1191 2009 C 1307 1963 1608 1726 1868 1614 L 2654 1406 L 2758 1138 L 2159 1296 L 2159 1054 L 2862 869 L 2966 600 L 2159 813 L 2159 572 Z M 1642 843 L 1829 794 L 1831 803 L 1773 954 L 1580 1005 Z M 1706 1166 L 1513 1217 L 1576 1055 L 1762 1006 L 1765 1015 Z M 1958 1112 L 1765 1163 L 1828 1001 L 2014 952 L 2017 961 Z"/>
</svg>
